<svg id="Group_28352" data-name="Group 28352" xmlns="http://www.w3.org/2000/svg" xmlns:xlink="http://www.w3.org/1999/xlink" width="42.873" height="60.11" viewBox="0 0 42.873 60.11">
  <defs>
    <clipPath id="clip-path">
      <rect id="Rectangle_4873" data-name="Rectangle 4873" width="17.032" height="12.688" transform="translate(0 0)" fill="#d89114"/>
    </clipPath>
  </defs>
  <g id="Group_28343" data-name="Group 28343" transform="translate(12.165 17.258)" clip-path="url(#clip-path)">
    <path id="Path_25786" data-name="Path 25786" d="M15.843,3.162c-.169-.027-.337-.065-.507-.079a8.865,8.865,0,0,0-2.895.387q-4.374,1.1-8.75,2.191a.678.678,0,0,1-.381-.031c-.715-.272-1.424-.558-2.135-.839-.045-.018-.093-.032-.2-.067.073.091.111.141.151.189.386.456.773.91,1.157,1.366.259.308.2.5-.2.6L1.2,7.117a1.148,1.148,0,0,0-.117.045c0,.019,0,.037,0,.056.45.055.9.135,1.352.162A15.94,15.94,0,0,0,6.126,7.11c.207-.036.357.053.386.226a.3.3,0,0,1-.28.338,15.581,15.581,0,0,1-4.066.263c-.478-.044-.949-.166-1.423-.251a.356.356,0,0,1-.308-.311C.42,7.289.387,7.206.364,7.122c-.071-.255,0-.379.254-.448.331-.089.664-.175,1.021-.269L.612,5.19Q.387,4.924.161,4.658c-.178-.208-.2-.321-.1-.465A.468.468,0,0,1,.654,3.97c.764.3,1.538.577,2.288.909a1.777,1.777,0,0,0,1.242.08q4.424-1.135,8.859-2.225a6.942,6.942,0,0,1,2.444-.217A2.906,2.906,0,0,1,16.6,2.89a.87.87,0,0,1,.426.785,1.414,1.414,0,0,1-1.092,1.576c-1.449.352-2.888.742-4.332,1.111a.466.466,0,0,0-.293.206c-.874,1.289-1.747,2.578-2.633,3.859a4.105,4.105,0,0,1-1.2,1.155,1.152,1.152,0,0,1-1,.207,1.169,1.169,0,0,1-.4-.239.482.482,0,0,1-.135-.589c.539-1.431,1.059-2.869,1.586-4.3A.732.732,0,0,1,7.6,6.5a.263.263,0,0,1,.343-.115.266.266,0,0,1,.172.334,2.111,2.111,0,0,1-.072.214Q7.3,8.948,6.567,10.96c-.026.071-.051.208-.028.22a.394.394,0,0,0,.277.054,1.679,1.679,0,0,0,.56-.288,6.353,6.353,0,0,0,.909-.972C9.357,8.44,10.4,6.888,11.455,5.342c.025-.036.048-.074.075-.108a.286.286,0,0,1,.4-.081.278.278,0,0,1,.079.4c-.017.032-.039.062-.086.134.284-.07.528-.129.772-.192,1.043-.27,2.082-.556,3.13-.806a.821.821,0,0,0,.607-1.015l-.614.144c-.25.06-.5.123-.749.18a.277.277,0,0,1-.366-.2.282.282,0,0,1,.226-.354c.272-.074.547-.136.821-.2a.985.985,0,0,0,.1-.035V3.162" transform="translate(0 -2.14)" fill="#d89114"/>
    <path id="Path_25787" data-name="Path 25787" d="M20.145,87.126q3.108,0,6.217,0a.808.808,0,0,1,.24.027.28.28,0,0,1-.04.537,1.016,1.016,0,0,1-.187.012H13.941c-.038,0-.075,0-.113,0-.212-.011-.322-.112-.32-.29a.286.286,0,0,1,.326-.286c.779,0,1.558,0,2.336,0h3.975Z" transform="translate(-11.63 -75.016)" fill="#d89114"/>
    <path id="Path_25788" data-name="Path 25788" d="M35.151.6l.872.5a1.686,1.686,0,0,1,.145.088.28.28,0,0,1,.094.38.272.272,0,0,1-.372.115C35.285,1.348,34.681,1,34.087.64a.317.317,0,0,1-.11-.284.391.391,0,0,1,.255-.227A11.4,11.4,0,0,1,35.707,0,9.28,9.28,0,0,1,38.54.526a.293.293,0,0,1,.234.367c-.049.166-.206.225-.414.176C37.715.917,37.073.75,36.421.634A11.653,11.653,0,0,0,35.167.542L35.151.6" transform="translate(-29.249 0)" fill="#d89114"/>
  </g>
  <path id="Path_25498" data-name="Path 25498" d="M21.466,60.109c-.9-1.837-1.729-3.708-2.715-5.491A80.1,80.1,0,0,0,6.307,38.188,22.034,22.034,0,0,1,.038,21.162,22.577,22.577,0,0,1,17.492.494C23.27-.866,28.47.674,33.139,3.963,40.047,8.83,43.28,15.657,42.831,24.089a21.482,21.482,0,0,1-6.172,14.018,77.811,77.811,0,0,0-13.3,17.948c-.683,1.322-1.264,2.7-1.895,4.054M34.161,23.517A12.947,12.947,0,1,0,21.2,36.443,12.98,12.98,0,0,0,34.161,23.517" transform="translate(0 0)" fill="#d89114"/>
</svg>
