<svg xmlns="http://www.w3.org/2000/svg" xmlns:xlink="http://www.w3.org/1999/xlink" width="24.669" height="34.588" viewBox="0 0 24.669 34.588">
  <defs>
    <clipPath id="clip-path">
      <rect id="Rectangle_4873" data-name="Rectangle 4873" width="9.801" height="7.301" transform="translate(0 0)" fill="#d89114"/>
    </clipPath>
  </defs>
  <g id="Group_28347" data-name="Group 28347" transform="translate(-1590 -813.809)">
    <g id="Group_28343" data-name="Group 28343" transform="translate(1597 823.739)" clip-path="url(#clip-path)">
      <path id="Path_25786" data-name="Path 25786" d="M9.116,2.875c-.1-.016-.194-.038-.292-.046a5.1,5.1,0,0,0-1.666.223q-2.517.634-5.035,1.26A.39.39,0,0,1,1.9,4.294c-.411-.156-.819-.321-1.229-.482C.65,3.8.623,3.794.563,3.774c.042.052.064.081.087.109.222.262.445.523.666.786.149.177.113.286-.113.346L.691,5.15a.661.661,0,0,0-.067.026c0,.011,0,.022,0,.032.259.032.518.078.778.093a9.172,9.172,0,0,0,2.124-.155c.119-.021.206.03.222.13a.173.173,0,0,1-.161.194,8.965,8.965,0,0,1-2.34.151C.972,5.6.7,5.527.428,5.477A.2.2,0,0,1,.251,5.3c-.01-.049-.028-.1-.042-.145-.041-.147,0-.218.146-.258L.943,4.74l-.591-.7-.26-.306c-.1-.12-.117-.185-.057-.267A.269.269,0,0,1,.376,3.34c.44.172.885.332,1.316.523a1.022,1.022,0,0,0,.715.046q2.546-.653,5.1-1.28A3.994,3.994,0,0,1,8.911,2.5a1.672,1.672,0,0,1,.641.214A.5.5,0,0,1,9.8,3.17a.814.814,0,0,1-.629.907c-.834.2-1.662.427-2.493.639a.268.268,0,0,0-.169.118c-.5.742-1.005,1.484-1.515,2.221a2.362,2.362,0,0,1-.691.665.663.663,0,0,1-.574.119A.673.673,0,0,1,3.5,7.7a.277.277,0,0,1-.077-.339c.31-.823.609-1.651.912-2.477A.421.421,0,0,1,4.373,4.8a.151.151,0,0,1,.2-.066.153.153,0,0,1,.1.192,1.215,1.215,0,0,1-.042.123Q4.2,6.2,3.779,7.362c-.015.041-.03.119-.016.126a.227.227,0,0,0,.159.031.966.966,0,0,0,.322-.166,3.655,3.655,0,0,0,.523-.559c.617-.882,1.218-1.776,1.824-2.665.014-.021.028-.042.043-.062a.165.165,0,0,1,.229-.047.16.16,0,0,1,.045.229c-.01.019-.023.036-.049.077.163-.04.3-.074.444-.11.6-.156,1.2-.32,1.8-.464a.472.472,0,0,0,.349-.584L9.1,3.251c-.144.034-.287.071-.431.1a.159.159,0,0,1-.211-.114.162.162,0,0,1,.13-.2c.157-.042.315-.078.472-.118a.567.567,0,0,0,.055-.02V2.875" transform="translate(0 -2.286)" fill="#d89114"/>
      <path id="Path_25787" data-name="Path 25787" d="M17.327,87.126H20.9a.465.465,0,0,1,.138.015.161.161,0,0,1-.023.309.584.584,0,0,1-.108.007h-7.22c-.122-.006-.186-.064-.184-.167a.165.165,0,0,1,.188-.164c.448,0,.9,0,1.344,0h2.287Z" transform="translate(-12.427 -80.157)" fill="#d89114"/>
      <path id="Path_25788" data-name="Path 25788" d="M34.649.348l.5.29a.97.97,0,0,1,.083.05.161.161,0,0,1,.054.219.156.156,0,0,1-.214.066c-.348-.2-.7-.4-1.037-.6a.182.182,0,0,1-.064-.163.225.225,0,0,1,.147-.131A6.558,6.558,0,0,1,34.969,0,5.34,5.34,0,0,1,36.6.3a.169.169,0,0,1,.134.211c-.028.1-.119.129-.238.1-.371-.087-.741-.183-1.116-.25a6.705,6.705,0,0,0-.721-.053l-.01.036" transform="translate(-31.254 0)" fill="#d89114"/>
    </g>
    <path id="Path_25498" data-name="Path 25498" d="M12.352,34.587c-.519-1.057-1-2.134-1.562-3.16a46.089,46.089,0,0,0-7.16-9.454,12.679,12.679,0,0,1-3.607-9.8A12.991,12.991,0,0,1,10.065.284a10.823,10.823,0,0,1,9,2,12.588,12.588,0,0,1,5.577,11.58,12.361,12.361,0,0,1-3.551,8.066,44.773,44.773,0,0,0-7.652,10.328c-.393.761-.727,1.552-1.09,2.333m7.3-21.056A7.45,7.45,0,1,0,12.2,20.969a7.469,7.469,0,0,0,7.455-7.438" transform="translate(1590 813.809)" fill="#d89114"/>
  </g>
</svg>
