<?xml version="1.0" encoding="utf-8"?>
<!-- Generator: Adobe Illustrator 27.8.0, SVG Export Plug-In . SVG Version: 6.00 Build 0)  -->
<svg version="1.1" id="Layer_1" xmlns="http://www.w3.org/2000/svg" xmlns:xlink="http://www.w3.org/1999/xlink" x="0px" y="0px"
	 viewBox="0 0 32 32" style="enable-background:new 0 0 32 32;" xml:space="preserve">
<style type="text/css">
	.st0{clip-path:url(#SVGID_00000133511172082890649600000002376156934277531281_);}
	.st1{fill:#888888;}
</style>
<g>
	<defs>
		<rect id="SVGID_1_" x="2.5" y="5.9" width="27.1" height="20.2"/>
	</defs>
	<clipPath id="SVGID_00000134935682415057273170000004273819077531717054_">
		<use xlink:href="#SVGID_1_"  style="overflow:visible;"/>
	</clipPath>
	<g id="Group_27917" style="clip-path:url(#SVGID_00000134935682415057273170000004273819077531717054_);">
		<path id="Path_25494" class="st1" d="M27.7,7.5c-0.3,0-0.5-0.1-0.8-0.1c-1.6-0.1-3.1,0.2-4.6,0.6c-4.6,1.2-9.3,2.3-13.9,3.5
			c-0.2,0-0.4,0-0.6-0.1c-1.1-0.4-2.3-0.9-3.4-1.3c-0.1,0-0.1-0.1-0.3-0.1c0.1,0.1,0.2,0.2,0.2,0.3c0.6,0.7,1.2,1.4,1.8,2.2
			c0.4,0.5,0.3,0.8-0.3,1c-0.5,0.1-0.9,0.2-1.4,0.4c-0.1,0-0.1,0-0.2,0.1c0,0,0,0.1,0,0.1c0.7,0.1,1.4,0.2,2.2,0.3
			c2,0.1,3.9-0.1,5.9-0.4c0.3-0.1,0.6,0.1,0.6,0.4c0,0.3-0.2,0.5-0.4,0.5c0,0,0,0,0,0c-2.1,0.4-4.3,0.6-6.5,0.4
			c-0.8-0.1-1.5-0.3-2.3-0.4c-0.3,0-0.5-0.2-0.5-0.5c0-0.1-0.1-0.3-0.1-0.4c-0.1-0.4,0-0.6,0.4-0.7C4,13,4.5,12.8,5.1,12.7l-1.6-1.9
			c-0.2-0.3-0.5-0.6-0.7-0.8C2.4,9.6,2.4,9.4,2.6,9.2c0.2-0.3,0.6-0.5,0.9-0.4c1.2,0.5,2.4,0.9,3.6,1.4c0.6,0.3,1.3,0.3,2,0.1
			c4.7-1.2,9.4-2.4,14.1-3.5c1.3-0.3,2.6-0.5,3.9-0.3c0.6,0.1,1.2,0.3,1.8,0.6c0.4,0.3,0.7,0.7,0.7,1.2c0.2,1.2-0.6,2.3-1.7,2.5
			c-2.3,0.6-4.6,1.2-6.9,1.8c-0.2,0-0.4,0.2-0.5,0.3c-1.4,2.1-2.8,4.1-4.2,6.1c-0.5,0.7-1.2,1.4-1.9,1.8c-0.4,0.4-1,0.5-1.6,0.3
			c-0.2-0.1-0.4-0.2-0.6-0.4c-0.3-0.2-0.4-0.6-0.2-0.9c0.9-2.3,1.7-4.6,2.5-6.8c0-0.1,0.1-0.2,0.1-0.2c0.1-0.2,0.3-0.3,0.5-0.2
			c0.2,0.1,0.3,0.3,0.3,0.5c0,0.1-0.1,0.2-0.1,0.3c-0.8,2.1-1.6,4.3-2.3,6.4c0,0.1-0.1,0.3,0,0.3c0.1,0.1,0.3,0.1,0.4,0.1
			c0.3-0.1,0.6-0.3,0.9-0.5c0.5-0.5,1-1,1.4-1.5c1.7-2.4,3.4-4.9,5-7.4c0-0.1,0.1-0.1,0.1-0.2c0.1-0.2,0.4-0.3,0.6-0.1c0,0,0,0,0,0
			c0.2,0.1,0.3,0.4,0.1,0.6c0,0,0,0,0,0c0,0.1-0.1,0.1-0.1,0.2c0.5-0.1,0.8-0.2,1.2-0.3c1.7-0.4,3.3-0.9,5-1.3
			c0.7-0.2,1.1-0.9,1-1.6c0,0,0,0,0,0c-0.3,0.1-0.7,0.2-1,0.2c-0.4,0.1-0.8,0.2-1.2,0.3c-0.2,0.1-0.5,0-0.6-0.3c0,0,0,0,0-0.1
			c-0.1-0.2,0.1-0.5,0.3-0.6c0,0,0,0,0,0c0.4-0.1,0.9-0.2,1.3-0.3C27.6,7.6,27.6,7.6,27.7,7.5L27.7,7.5"/>
		<path id="Path_25495" class="st1" d="M16,25.2c3.3,0,6.6,0,9.9,0c0.1,0,0.3,0,0.4,0c0.2,0.1,0.3,0.3,0.3,0.6
			c-0.1,0.1-0.2,0.3-0.3,0.3c-0.1,0-0.2,0-0.3,0H6.1c-0.1,0-0.1,0-0.2,0c-0.3,0-0.5-0.2-0.5-0.5c0-0.3,0.2-0.5,0.5-0.5
			c0,0,0,0,0.1,0c1.2,0,2.5,0,3.7,0H16L16,25.2z"/>
		<path id="Path_25496" class="st1" d="M11.8,6.9l1.4,0.8c0.1,0,0.2,0.1,0.2,0.1c0.2,0.1,0.3,0.4,0.2,0.6c-0.1,0.2-0.4,0.3-0.6,0.2
			c0,0,0,0,0,0c-1-0.5-1.9-1.1-2.9-1.7C10,6.8,10,6.6,10,6.5c0.1-0.2,0.2-0.3,0.4-0.4c0.8-0.1,1.6-0.2,2.3-0.2
			c1.5,0,3.1,0.3,4.5,0.8c0.3,0,0.4,0.3,0.4,0.5c0,0,0,0,0,0c-0.1,0.3-0.3,0.4-0.7,0.3c-1-0.2-2-0.5-3.1-0.7
			C13.2,6.8,12.5,6.8,11.8,6.9L11.8,6.9"/>
	</g>
</g>
</svg>
