<svg xmlns="http://www.w3.org/2000/svg" xmlns:xlink="http://www.w3.org/1999/xlink" width="277.766" height="40.804" viewBox="0 0 277.766 40.804">
  <defs>
    <clipPath id="clip-path">
      <path id="Path_25860" data-name="Path 25860" d="M0,0H277.765V-40.8H0Z" fill="#fff"/>
    </clipPath>
  </defs>
  <g id="Group_28425" data-name="Group 28425" transform="translate(0 40.804)">
    <g id="Group_28405" data-name="Group 28405" clip-path="url(#clip-path)">
      <text id="INDIA_GERMANY_UK" data-name="INDIA   |   GERMANY    |    UK" transform="translate(42.691 -0.085)" fill="#fff" font-size="12" font-family="Jost" font-weight="500" letter-spacing="0.1em"><tspan x="0" y="0" xml:space="preserve">INDIA   |   GERMANY    |    UK</tspan></text>
    </g>
    <g id="Group_28406" data-name="Group 28406" transform="translate(160.621 -37.532)">
      <path id="Path_25861" data-name="Path 25861" d="M0,0-3.8,12.5.622-2.029,3.063,2.553,0,12.5H-3.8" fill="#fff"/>
    </g>
    <g id="Group_28407" data-name="Group 28407" transform="translate(265.966 -40.804)">
      <path id="Path_25862" data-name="Path 25862" d="M0,0-.569.064l-.51.066-.51.063-.567.134-.512.132-.454.194-.452.262-.454.329-.4.328-.342.392-.341.391-.341.459-.511.982-.338.655-.114.327-.116.327-.056.327V5.7l.056.327.06.26.17.2.17.26.226.2.284.2.284.2.338.132.682.324L.452,10.014l.852.392.339.131.173.13.169.067.113.133L2.154,11l.058.132v.259l-.058.2-.169.39-.228.328-.227.329-.284.26-.4.131-.4.131L0,13.222H-9.021l-.794,2.554H4.141l.452-.066.4-.065.454-.071.4-.19.4-.2.4-.327.172-.195.17-.2.227-.259.169-.33.172-.327.167-.327.172-.457L8,12.3l.055-.195.114-.263.056-.327.116-.323.112-.329.057-.392v-.33l-.057-.326L8.4,9.489l-.115-.323-.229-.33-.282-.263-.284-.26-.341-.2-.793-.395L1.53,5.432,1.246,5.3l-.282-.2L.68,4.91l-.171-.2-.057-.13V4.451L.4,4.319l.055-.13.113-.262L.68,3.6l.284-.458.113-.2.227-.13.17-.131L1.7,2.618l.227-.066H11L11.8,0Z" fill="#fff"/>
    </g>
    <g id="Group_28408" data-name="Group 28408" transform="translate(55.708 -40.804)">
      <path id="Path_25863" data-name="Path 25863" d="M0,0-3.066,10.078l-.34,1.05-.227.458-.226.39-.283.328-.342.261-.338.2-.4.2-.4.127-.4.065-.34.067H-7.829l-.4-.067-.4-.065-.338-.127-.283-.2-.23-.2-.113-.326-.112-.327-.058-.393.058-.458.057-.458.055-.525.285-.912.112-.461.114-.461L-6.524,0h-5.107l-.793,2.618-.8,2.552-.8,2.616-.793,2.556-.226.786-.171.653-.112.656-.057.653v.523l.057.263.112.261.115.2.113.2.169.2.17.195.4.263.51.2.51.19.624.071.682.065.681.066h7.827l.568-.066.625-.136.567-.19.51-.266.456-.327.451-.39.453-.459.4-.522.339-.591.284-.59.284-.653.227-.719L2.21,9.489,5.1,0Z" fill="#fff"/>
    </g>
    <g id="Group_28409" data-name="Group 28409" transform="translate(63.707 -40.804)">
      <path id="Path_25864" data-name="Path 25864" d="M0,0-4.823,15.776H.283L4.31,2.552H9.02l.849.066.4.065.34.066.282.129.285.2.228.2.169.194.058.33.058.328-.058.327-.058.394-.226.85-1.363,4.45-.34.983-.226.458-.228.39L8.9,12.3l-.34.261-.4.264-.4.134-.453.127-.454.065-.909.067H1.985l-.8,2.554H9.416l.623-.066.568-.136.567-.19.513-.266.508-.327.455-.39.4-.459.4-.522.341-.591.284-.59.283-.653.283-.719.455-1.378.225-.848.228-.789.226-.782.172-.72.17-.655.057-.656.113-.588V3.862l-.057-.526-.056-.458L16,2.486l-.17-.393L15.6,1.768l-.284-.328-.284-.261-.4-.264L14.3.718,13.841.589l-.453-.13L12.933.327,11.912.193,10.889.064H9.814L8.791,0Z" fill="#fff"/>
    </g>
    <g id="Group_28410" data-name="Group 28410" transform="translate(238.282 -40.804)">
      <path id="Path_25865" data-name="Path 25865" d="M0,0-.511.064l-.51.066-.568.063L-2.1.327l-.513.132L-3.12.653l-.454.262-.454.329-.4.328-.34.392-.34.391-.285.459L-5.9,3.8l-.341.655-.17.327-.057.327-.057.327v.59l.114.26.114.2.226.26.226.2.286.2.281.2.285.132.68.324L.509,10.014l.794.392.4.131.167.13.116.067.114.133.11.129.059.132v.131l-.059.128v.2l-.224.39-.172.328-.225.329-.341.26-.34.131-.4.131-.454.067H-9.02l-.794,2.554H4.2l.4-.066.455-.065.4-.071.4-.19.4-.2.4-.327.226-.195.171-.2.17-.259.171-.33.17-.327.171-.327.169-.457.17-.461.059-.195.054-.263.113-.327L8.4,11.2l.055-.329.059-.392V9.819l-.059-.33-.17-.323-.167-.33-.285-.263-.341-.26-.34-.2L6.41,7.721,1.588,5.432,1.247,5.3l-.284-.2-.226-.2-.17-.2-.058-.13L.453,4.451V4.189l.114-.262L.737,3.6l.226-.458.17-.2.17-.13.227-.131L1.7,2.618l.225-.066H11L11.8,0Z" fill="#fff"/>
    </g>
    <g id="Group_28411" data-name="Group 28411" transform="translate(252.975 -40.804)">
      <path id="Path_25866" data-name="Path 25866" d="M0,0-4.822,15.776H.284l3.4-11.129L5.106,0Z" fill="#fff"/>
    </g>
    <g id="Group_28412" data-name="Group 28412" transform="translate(203.903 -40.804)">
      <path id="Path_25867" data-name="Path 25867" d="M0,0-4.821,15.776H.284l3.4-11.129L5.108,0Z" fill="#fff"/>
    </g>
    <g id="Group_28413" data-name="Group 28413" transform="translate(174.86 -40.804)">
      <path id="Path_25868" data-name="Path 25868" d="M0,0-5.334,3.6l-.283.263-.339.2-.23.066-.168.065h-.568l-.226-.065-.227-.066-.228-.2-.17-.263L-7.946,3.4l-.282-.591L-9.758,0H-13.22l3.462,6.547-.171-.265.34.59.172.262.17.2.169.2.227.13H-8l.172-.064.168-.066.4-.2.284-.2L-2.95,4.386l-3.517,11.39h5.1L3.46,0Z" fill="#fff"/>
    </g>
    <g id="Group_28414" data-name="Group 28414" transform="translate(127.378 -40.804)">
      <path id="Path_25869" data-name="Path 25869" d="M0,0-.568.064-1.079.13l-.51.063-.568.134-.508.132L-3.12.653l-.455.262-.453.329-.4.328-.341.392-.34.391-.284.459-.566.982-.342.655-.113.327-.113.327-.058.327V5.7l.058.327.058.26.168.2.17.26.227.2.283.2.285.2.341.132.678.324L.454,10.014l.851.392.34.131.169.13.171.067.112.133L2.155,11l.057.132v.259l-.057.2-.17.39-.228.328-.227.329-.284.26-.4.131-.4.131-.4.067H-9.022l-.792,2.554H4.142l.452-.066.4-.065.452-.071.4-.19.4-.2.4-.327.169-.195.171-.2.227-.259.17-.33.172-.327.169-.327.172-.457L8,12.3l.057-.195.114-.263.057-.327.112-.323.115-.329.055-.392v-.33l-.055-.326L8.4,9.489l-.111-.323-.229-.33-.284-.263-.281-.26-.341-.2-.8-.395L1.588,5.432,1.246,5.3l-.283-.2-.284-.2-.169-.2-.056-.13V4.189l.112-.262L.679,3.6l.284-.458.116-.2.226-.13.169-.131L1.7,2.618l.227-.066h9.076L11.8,0Z" fill="#fff"/>
    </g>
    <g id="Group_28415" data-name="Group 28415" transform="translate(183.028 -40.804)">
      <path id="Path_25870" data-name="Path 25870" d="M0,0-4.823,15.776H.284l2.5-8.183.908-2.946.626-2.095h6.07l.452.066.4.065.17.066.17.129.167.13.116.133.057.131.057.133V3.6l-.057.133v.195l-.057.131-.116.261-.167.263-.34.457-.4.328-.452.261-.513.2-.283.066L9.3,5.953H4.2l-.455,1.64h5.1l.342.064.284.064.226.131.17.133.171.131.171.2.054.26V9.1l-.054.327-.226.72-.341.983-.171.458-.284.39-.284.328-.34.261-.4.264-.4.134-.453.127-.456.065-.9.067H1.984l-.792,2.554h9.191l.4-.066.455-.065.4-.071.4-.19.4-.2.4-.327.226-.195.17-.2.17-.259.17-.33.17-.327.171-.327.169-.457.171-.461.171-.654.114-.589.113-.655.112-.587V8.771l-.056-.458-.056-.392-.171-.328-.227-.263-.34-.2-.341-.2L13.1,6.872l-.454-.064h-.623l.34-.068H13.1l.453-.063.454-.067.454-.063.4-.134.4-.262.4-.2.284-.325.283-.328.228-.39.171-.459.111-.393.171-.653.169-.591.057-.589V1.7l-.057-.2-.055-.194-.114-.2-.113-.2L16.679.787,16.508.653l-.4-.262-.455-.13L15.146.13,14.579.064h-.625L12.708,0ZM-4.823,15.776h0Z" fill="#fff"/>
    </g>
    <g id="Group_28416" data-name="Group 28416" transform="translate(29.385 -40.804)">
      <path id="Path_25871" data-name="Path 25871" d="M0,0-4.822,15.776H.284L3.8,4.255l.283-.721L4.2,3.207l.227-.263.171-.195.283-.131.283-.066h5.845L11.8,0Z" fill="#fff"/>
    </g>
    <g id="Group_28417" data-name="Group 28417" transform="translate(155.289 -40.804)">
      <path id="Path_25872" data-name="Path 25872" d="M0,0-1.361.915l-1.306.916-1.3.918-1.36.85-.285.263-.4.2-.171.066-.168.065h-.568L-7.2,4.124l-.172-.066-.225-.2-.17-.263L-7.942,3.4l-.342-.591-.34-.721-.4-.653L-9.36.718-9.759,0h-3.458l.509,1.045.51.984.568,1.048.51.981.227.457.171.395.17.522.057.521v.984l-.115.459-.112.456-.623,2.031-.626,1.963-.568,1.962-.622,1.968h5.1l.624-2.1.683-2.161.622-2.094.68-2.1.057-.393.173-.327.17-.328.225-.329.225-.325.286-.261.282-.262.23-.132,1.813-1.241L-.172,2.486,1.643,1.244,3.46,0ZM-9.36,15.776h0Zm-3.8,0" fill="#fff"/>
    </g>
    <g id="Group_28418" data-name="Group 28418" transform="translate(218.822 -40.804)">
      <path id="Path_25873" data-name="Path 25873" d="M0,0-.739.064-1.418.13-2.04.193l-.567.134-.512.132-.51.13-.454.2-.4.194-.4.2-.34.194-.341.2-.283.2-.227.261-.511.457-.4.458-.4.461-.338.457L-8,4.319l-.229.459-.228.458-.4.981L-9.132,7.33l-.227,1.111-.056.525-.056.523-.058.458v.92l.058.392.056.391.113.4.114.325.169.327.17.393.228.391.228.4.28.393.231.2.169.2.226.195.285.128.283.2.339.13.34.132.457.127.452.071.51.065.567.066h4.6l.679-.066.624-.136.569-.127.566-.2.51-.2.454-.2L4.2,14.6l.455-.262.4-.26.737-.592.68-.716.625-.72.566-.786.512-.917.455-.917.4-.914.17-.457.114-.461.113-.459.055-.524.058-.522V5.562L9.474,4.91l-.055-.655L9.248,3.6l-.056-.392-.114-.393-.17-.328-.171-.327L8.51,1.768,8.227,1.44l-.286-.261L7.6.849l-.4-.2L6.694.391l-.51-.13L5.618.13,4.936.064,4.2,0ZM-3.459,13.024l-.17-.061-.227-.134-.116-.132-.168-.132-.114-.261-.113-.195-.114-.263-.056-.327-.055-.323-.057-.329v-.392l.057-.4.055-.454.115-.458.168-.525.171-.525.173-.589.224-.59.227-.655.284-.654.282-.655.4-.587.4-.59.513-.46.281-.259.284-.133.341-.195.342-.066L0,2.618l.454-.066h1.7l.34.066h.34l.34.065.228.066.226.065.227.13.169.064.171.133.285.264.17.327.112.326.058.328.056.392V5.826l-.056.391-.058.393-.112.395-.114.457-.169.39L4.2,8.377l-.4.916-.454.983-.567.92-.283.39-.34.39-.341.328-.4.329-.511.26-.282.07-.283.127-.285.065h-.4l-.342.067H-2.665l-.283-.067h-.286Z" fill="#fff"/>
    </g>
    <g id="Group_28419" data-name="Group 28419" transform="translate(9.814 -40.804)">
      <path id="Path_25874" data-name="Path 25874" d="M0,0-.51.064-1.078.13l-.511.063L-2.1.327l-.51.132-.509.194-.454.262-.456.329-.4.328-.342.392-.339.391-.282.459-.568.982-.342.655-.112.327-.114.327-.057.327V5.7l.057.327.114.26.112.2.228.26.227.2.225.2.342.2.284.132.68.324L.453,10.014l.852.392.338.131.172.13.17.067.114.133L2.157,11l.054.132.058.131-.058.128-.054.2-.172.39-.17.328-.284.329-.284.26-.4.131-.4.131-.4.067H-9.021l-.793,2.554H4.141l.454-.066.4-.065.454-.071.4-.19.4-.2.4-.327.17-.195.227-.2.17-.259.169-.33.172-.327.17-.327.171-.457.167-.461.059-.195.057-.263.114-.327.055-.323.114-.329.058-.392V9.819L8.4,9.489l-.112-.323-.23-.33-.224-.263-.341-.26-.339-.2-.8-.395L1.589,5.432,1.247,5.3l-.283-.2-.283-.2-.173-.2-.055-.13V4.189l.113-.262L.681,3.6l.283-.458.171-.2.17-.13.17-.131L1.7,2.618l.224-.066h9.078L11.8,0Z" fill="#fff"/>
    </g>
    <g id="Group_28420" data-name="Group 28420" transform="translate(68.301 -27.453)">
      <path id="Path_25875" data-name="Path 25875" d="M0,0H.056Z" fill="#fff"/>
    </g>
    <g id="Group_28421" data-name="Group 28421" transform="translate(68.357 -27.582)">
      <path id="Path_25876" data-name="Path 25876" d="M0,0H.058Z" fill="#fff"/>
    </g>
    <g id="Group_28422" data-name="Group 28422" transform="translate(84.581 -40.804)">
      <path id="Path_25877" data-name="Path 25877" d="M0,0-4.878,15.776H.284l3.4-11.129L5.107,0Z" fill="#fff"/>
    </g>
    <g id="Group_28423" data-name="Group 28423" transform="translate(24.507 -40.804)">
      <path id="Path_25878" data-name="Path 25878" d="M0,0-.8,2.552H3.175L3.97,0Z" fill="#fff"/>
    </g>
    <g id="Group_28424" data-name="Group 28424" transform="translate(99.5 -40.804)">
      <path id="Path_25879" data-name="Path 25879" d="M0,0-.735.064-1.418.13l-.623.063-.567.134-.568.132-.454.13-.454.2-.4.194-.4.2-.343.194-.341.2-.285.2-.281.261-.453.457-.455.458-.342.461-.338.457L-8,4.319l-.228.459-.227.458-.4.981L-9.133,7.33-9.36,8.441l-.113.525-.057.523v1.378l.057.392.057.391.114.4.112.325.172.327.168.393.228.391.227.4.283.393.169.2.229.2.226.195.283.128.284.2.342.13.338.132.455.127.453.071.512.065.567.066H.284l.737-.066.624-.136.567-.127.568-.2.51-.2.453-.2L4.2,14.6l.454-.262.4-.26.738-.592.68-.716.567-.72.568-.786.568-.917.452-.917.343-.914.17-.457.17-.461.113-.459.057-.524.057-.522V5.562L9.475,4.91l-.057-.655L9.248,3.6l-.113-.392-.116-.393-.113-.328-.224-.327-.173-.391L8.226,1.44l-.283-.261-.4-.33-.4-.2L6.694.391l-.51-.13L5.616.13,4.936.064,4.2,0ZM-2.211,12.765l-.34-.068-.285-.064-.228-.068-.225-.128-.227-.067-.286-.325-.282-.328-.226-.458L-4.424,11l-.056-.262-.059-.328v-.328l.059-.39.056-.395.055-.393.115-.459.17-.456.17-.523.172-.525.226-.524.282-.587.285-.526.282-.588.456-.523.226-.262.227-.263.285-.2.34-.194.338-.2.342-.2L0,2.749l.4-.2H2.155l.341.066h.342l.284.065.284.066.225.065.227.13.169.064.172.133.226.264.17.327.17.326.058.328.055.392V5.826l-.055.391-.058.33L4.54,7.4l-.283.786L3.915,9.1l-.4.849-.512.787-.282.394-.283.327-.4.326-.4.328-.453.195-.284.133L.625,12.5l-.341.132-.341.064-.4.068-.4.064h-.964Z" fill="#fff"/>
    </g>
  </g>
</svg>
