<svg id="Group_30" data-name="Group 30" xmlns="http://www.w3.org/2000/svg" xmlns:xlink="http://www.w3.org/1999/xlink" width="34.34" height="34.341" viewBox="0 0 34.34 34.341">
  <defs>
    <clipPath id="clip-path">
      <rect id="Rectangle_85" data-name="Rectangle 85" width="34.34" height="34.341" fill="#d3bc8b"/>
    </clipPath>
  </defs>
  <g id="Group_78" data-name="Group 78" transform="translate(0 0)" clip-path="url(#clip-path)">
    <path id="Path_90" data-name="Path 90" d="M17.17,34.341A17.17,17.17,0,1,1,34.34,17.17a17.19,17.19,0,0,1-17.17,17.17m0-32.8A15.634,15.634,0,1,0,32.8,17.17,15.652,15.652,0,0,0,17.17,1.536" transform="translate(0 0)" fill="#d3bc8b"/>
    <path id="Path_91" data-name="Path 91" d="M38.866,31.8h-2.59v8.334H32.437V31.8H30.611V28.536h1.826V26.425a3.6,3.6,0,0,1,3.873-3.874l2.844.012V25.73H37.09a.782.782,0,0,0-.814.889v1.92H39.2Z" transform="translate(-18.858 -13.892)" fill="#d3bc8b"/>
  </g>
</svg>
