<svg xmlns="http://www.w3.org/2000/svg" xmlns:xlink="http://www.w3.org/1999/xlink" width="115.11" height="47.921" viewBox="0 0 115.11 47.921">
  <defs>
    <clipPath id="clip-path">
      <path id="Path_25696" data-name="Path 25696" d="M0,0H115.11V-47.921H0Z" fill="none"/>
    </clipPath>
  </defs>
  <g id="Group_28162" data-name="Group 28162" transform="translate(0 47.921)">
    <g id="Group_28161" data-name="Group 28161" clip-path="url(#clip-path)">
      <g id="Group_28160" data-name="Group 28160" transform="translate(18.126 -37.601)">
        <path id="Path_25695" data-name="Path 25695" d="M0,0A.456.456,0,0,0-.307-.418a4.19,4.19,0,0,0-.77-.261L-2.083-.931a4.217,4.217,0,0,1-1.006-.387,2.293,2.293,0,0,1-.77-.674,1.857,1.857,0,0,1-.307-1.117A2.1,2.1,0,0,1-3.93-4.121a2.047,2.047,0,0,1,.655-.724,3.061,3.061,0,0,1,.991-.433,5.1,5.1,0,0,1,1.258-.146,4.243,4.243,0,0,1,1.308.181,2.848,2.848,0,0,1,.931.493,2.284,2.284,0,0,1,.588.73,2.708,2.708,0,0,1,.272.89H-.181A.656.656,0,0,0-.3-3.436a.7.7,0,0,0-.221-.187,1.324,1.324,0,0,0-.614-.13,1.191,1.191,0,0,0-.574.105.338.338,0,0,0-.181.307.4.4,0,0,0,.181.332,1.812,1.812,0,0,0,.473.232,6.611,6.611,0,0,0,.664.186q.374.086.765.2a6.65,6.65,0,0,1,.765.267,2.564,2.564,0,0,1,.664.4,1.96,1.96,0,0,1,.473.594,1.794,1.794,0,0,1,.181.84A2.3,2.3,0,0,1,2.023.81a2.184,2.184,0,0,1-.7.775,3.282,3.282,0,0,1-1.071.463A5.644,5.644,0,0,1-1.117,2.2a4.079,4.079,0,0,1-1.3-.2,3.25,3.25,0,0,1-1-.529A2.474,2.474,0,0,1-4.07.709a2.1,2.1,0,0,1-.257-.93h2.274A.8.8,0,0,0-1.66.352a1.039,1.039,0,0,0,.322.136A1.452,1.452,0,0,0-.986.533,1.605,1.605,0,0,0-.267.4.429.429,0,0,0,0,0M5.762-.443,5.712-1.57l-.1-1.066h.021L6.95,2.013H8.6L9.918-2.636h.02l-.12,1.308L9.788-.2V2.013h2.133V-5.233H9.053L7.775-.714,6.5-5.233H3.629V2.013H5.762Zm12.329,1.5H15.727l-.272.956H13.13l2.6-7.246h2.415l2.6,7.246H18.373Zm-.412-1.51-.765-2.6-.735,2.6Zm6.955,2.466H22.259V-5.233H25.68a7.728,7.728,0,0,1,1.52.126,2.815,2.815,0,0,1,.991.377,1.408,1.408,0,0,1,.538.645,2.4,2.4,0,0,1,.161.915A2.12,2.12,0,0,1,28.6-2.058a1.465,1.465,0,0,1-.925.659q.281.111.513.217a1.033,1.033,0,0,1,.387.3,1.393,1.393,0,0,1,.242.528A3.626,3.626,0,0,1,28.9.523v.594a3.152,3.152,0,0,0,.02.392.469.469,0,0,0,.071.217.188.188,0,0,0,.161.065v.222H26.747a1.883,1.883,0,0,1-.086-.453,8.073,8.073,0,0,1-.035-.815,3.678,3.678,0,0,0-.04-.594.732.732,0,0,0-.176-.387.785.785,0,0,0-.388-.212,2.756,2.756,0,0,0-.664-.065h-.724Zm0-4.116h.936a1.848,1.848,0,0,0,.84-.151.55.55,0,0,0,.287-.533.647.647,0,0,0-.267-.569,1.18,1.18,0,0,0-.689-.186H24.634Zm7.448,4.116h2.375V-3.331H36.59v-1.9H29.948v1.9h2.134Zm11.286,0,.825-4.207h.02l.836,4.207h2.334l1.8-7.246H46.89L46.075-.755h-.02l-.866-4.478H43.227L42.362-.755h-.02l-.815-4.478h-2.3l1.8,7.246Zm19.844,0H60.837V-5.233h3.421a7.721,7.721,0,0,1,1.52.126,2.808,2.808,0,0,1,.991.377,1.4,1.4,0,0,1,.538.645,2.382,2.382,0,0,1,.161.915,2.128,2.128,0,0,1-.291,1.112,1.47,1.47,0,0,1-.926.659q.282.111.513.217a1.034,1.034,0,0,1,.387.3,1.393,1.393,0,0,1,.242.528,3.619,3.619,0,0,1,.086.875v.594a2.968,2.968,0,0,0,.02.392.458.458,0,0,0,.07.217.189.189,0,0,0,.161.065v.222H65.325a1.847,1.847,0,0,1-.085-.453A7.757,7.757,0,0,1,65.2.745a3.678,3.678,0,0,0-.04-.594.725.725,0,0,0-.176-.387A.786.786,0,0,0,64.6-.448a2.77,2.77,0,0,0-.665-.065h-.724Zm0-4.116h.936a1.845,1.845,0,0,0,.84-.151.55.55,0,0,0,.287-.533.647.647,0,0,0-.267-.569,1.178,1.178,0,0,0-.689-.186H63.212ZM74.978.322h-3.26V-5.233H69.343V2.013h5.635Zm7.161.825a3.057,3.057,0,0,1-1.213.659,5.65,5.65,0,0,1-1.585.207H76.222V-5.233H79.4a5.541,5.541,0,0,1,1.574.207,3.147,3.147,0,0,1,1.193.634,2.774,2.774,0,0,1,.755,1.081,4.178,4.178,0,0,1,.261,1.55A4.9,4.9,0,0,1,82.913-.02a2.951,2.951,0,0,1-.774,1.167M80.81-1.63a3.88,3.88,0,0,0-.1-.936,1.286,1.286,0,0,0-.307-.589,1.142,1.142,0,0,0-.549-.3,3.378,3.378,0,0,0-.81-.085H78.6V.322h.5a1.672,1.672,0,0,0,1.268-.463A2.1,2.1,0,0,0,80.81-1.63M52.636,2.722a4.88,4.88,0,0,0,.654.263l.181-2.01.009-.1.36-4,.073-.81L53.152.038,53.044.6a2.872,2.872,0,0,1-1.131-2.287,2.88,2.88,0,0,1,2.1-2.772l.319-1.666.086-.452a4.9,4.9,0,0,0-4.532,4.89,4.907,4.907,0,0,0,2.749,4.408M55.219-6.3l.354,1.843a2.879,2.879,0,0,1,2.1,2.771A2.873,2.873,0,0,1,56.542.6L56.427,0l-.592-3.084-.159-.831.071.8.361,4,.009.1.18,2.01a4.687,4.687,0,0,0,.651-.263h0A4.9,4.9,0,0,0,59.7-1.686a4.9,4.9,0,0,0-4.531-4.89ZM55.151.576l-.242-4.548-.032-.591-.09-1.7-.09,1.7-.032.591L54.423.575l-.032.59-.107,2.028a4.747,4.747,0,0,0,.508.027,4.827,4.827,0,0,0,.5-.026l-.107-2.027Zm-.357-9.24L55.363-7.2h.643l-1.212-3.124L53.582-7.2h.642ZM3.473,23.159H4.15q2.16,0,2.16,1.906l-.042,7.157A8.25,8.25,0,0,1,3.939,34.3,12.354,12.354,0,0,1,.911,35.61a12.188,12.188,0,0,1-3.367.466,10.555,10.555,0,0,1-5.951-1.758,11.214,11.214,0,0,1-3.917-4.849,17.733,17.733,0,0,1-1.4-7.284A18,18,0,0,1-12.3,14.752,11.259,11.259,0,0,1-8.279,9.861,10.773,10.773,0,0,1-2.16,8.125a12.834,12.834,0,0,1,4.765.847,9.39,9.39,0,0,1,3.621,2.519,10.234,10.234,0,0,1,2.16,4.3h.381L8.174,9.4A16.593,16.593,0,0,0,5.336,8.019a20.226,20.226,0,0,0-3.6-.974,24.319,24.319,0,0,0-4.32-.36A16.768,16.768,0,0,0-10.736,8.59a13.582,13.582,0,0,0-5.442,5.379A16.345,16.345,0,0,0-18.126,22.1a16.221,16.221,0,0,0,1.948,8.11,13.614,13.614,0,0,0,5.442,5.358,16.932,16.932,0,0,0,8.068,1.948,18.689,18.689,0,0,0,5.823-.826,15.854,15.854,0,0,0,4.3-2.1,12.858,12.858,0,0,0,2.753-2.541V25.065q-.086-1.906,2.117-1.906h.635v-.424H3.473Zm31.974,9.825a6.12,6.12,0,0,1-2.223,1.843,7.5,7.5,0,0,1-3.325.656H23.928V24.98h6.4A2.1,2.1,0,0,1,32,25.636a2.4,2.4,0,0,1,.572,1.631v.466h.465V20.787h-.465v.466A2.417,2.417,0,0,1,32,22.863a2.068,2.068,0,0,1-1.673.677h-6.4V12.952h7.877a2.573,2.573,0,0,1,1.991.784,2.863,2.863,0,0,1,.72,2.012v.55h.423V10.835a10.088,10.088,0,0,1-1.948.445,17.292,17.292,0,0,1-2.753.233H17.11v.423H17.7a2.28,2.28,0,0,1,2.372,2.245V34.212a2.4,2.4,0,0,1-.7,1.61A2.228,2.228,0,0,1,17.7,36.5H17.11v.424H35.236l2.075-6.649h-.424a10.324,10.324,0,0,1-1.44,2.71m39.111,2.9a2.468,2.468,0,0,1-.939-1.464l-3.445-23.5h-.381L58.82,31.133,47.432,10.92h-.423L43.758,34.128h-.053a2.441,2.441,0,0,1-.932,1.757,3.044,3.044,0,0,1-1.9.614h-.593v.424h7.877v-.381h-.593a1.37,1.37,0,0,1-1.228-.636,2.126,2.126,0,0,1-.293-.861L47.81,19.551,57.85,37.6h.424a10.145,10.145,0,0,1,.466-1.927,21.357,21.357,0,0,1,1.016-2.393l7.6-13.912,2.021,15.394H69.37a1.815,1.815,0,0,1-.233,1.143,1.361,1.361,0,0,1-1.25.636h-.635v.381h9.783V36.5h-.593a3.069,3.069,0,0,1-1.884-.614m21.831-8.427a5.105,5.105,0,0,0-1.864-2.181l-7.919-5.8a7.571,7.571,0,0,1-1.144-1.038,3.517,3.517,0,0,1-.677-1.1,3.43,3.43,0,0,1-.212-1.207,3.26,3.26,0,0,1,1.419-2.689,5.666,5.666,0,0,1,3.536-1.08A5.768,5.768,0,0,1,93.276,13.4a3.519,3.519,0,0,1,1.249,2.859h.466l.118-4.193h.009V11.3H93.395c-.225-.038-.461-.074-.712-.106q-.825-.1-1.821-.191t-2.1-.084a7.937,7.937,0,0,0-3.6.8A6.541,6.541,0,0,0,82.6,13.948a6.2,6.2,0,0,0-1.038,3.24,6.307,6.307,0,0,0,.529,2.9,5.969,5.969,0,0,0,2.1,2.477l7.665,5.59a5.588,5.588,0,0,1,1.588,1.652,3.762,3.762,0,0,1,.487,1.906,3.9,3.9,0,0,1-1.418,3.113,6.168,6.168,0,0,1-4,1.249,6.876,6.876,0,0,1-3.451-.741,5.278,5.278,0,0,1-2.224-2.224,5.893,5.893,0,0,1-.593-3.345h-.465a9.564,9.564,0,0,0-.551,1.884,10.826,10.826,0,0,0-.212,2.1,7.125,7.125,0,0,0,.17,1.694,7.065,7.065,0,0,0,1.948,1.1,13.621,13.621,0,0,0,2.647.72,16.944,16.944,0,0,0,2.9.254,9.526,9.526,0,0,0,4.235-.911,7.431,7.431,0,0,0,2.964-2.541,6.4,6.4,0,0,0,1.1-3.663,6.517,6.517,0,0,0-.592-2.943" fill="#fff"/>
      </g>
    </g>
  </g>
</svg>
