<svg id="Component_33_1" data-name="Component 33 – 1" xmlns="http://www.w3.org/2000/svg" xmlns:xlink="http://www.w3.org/1999/xlink" width="24.669" height="34.588" viewBox="0 0 24.669 34.588">
  <defs>
    <clipPath id="clip-path">
      <rect id="Rectangle_4855" data-name="Rectangle 4855" width="24.669" height="34.588" fill="#d11"/>
    </clipPath>
  </defs>
  <g id="Group_27926" data-name="Group 27926" clip-path="url(#clip-path)">
    <path id="Path_25498" data-name="Path 25498" d="M12.352,34.587c-.519-1.057-1-2.134-1.562-3.16a46.089,46.089,0,0,0-7.16-9.454,12.679,12.679,0,0,1-3.607-9.8A12.991,12.991,0,0,1,10.065.284a10.823,10.823,0,0,1,9,2,12.588,12.588,0,0,1,5.577,11.58,12.361,12.361,0,0,1-3.551,8.066,44.773,44.773,0,0,0-7.652,10.328c-.393.761-.727,1.552-1.09,2.333m7.3-21.056A7.45,7.45,0,1,0,12.2,20.969a7.469,7.469,0,0,0,7.455-7.438" transform="translate(0 0)" fill="#d11"/>
    <path id="Path_25499" data-name="Path 25499" d="M45.741,50.583c.61,0,1.148-.005,1.686,0a.819.819,0,1,1,.009,1.623c-.549.015-1.1,0-1.695,0,0,.571,0,1.092,0,1.613-.005.6-.326,1-.806,1s-.815-.39-.822-.985c-.006-.5-.006-.991-.01-1.487a.77.77,0,0,0-.047-.143c-.541,0-1.1.018-1.666,0a.811.811,0,0,1-.788-1.2.848.848,0,0,1,.806-.427c.551,0,1.1,0,1.7,0,0-.6,0-1.168,0-1.731a.747.747,0,0,1,.493-.8.956.956,0,0,1,.76.085,1.263,1.263,0,0,1,.36.782c.055.53.016,1.071.016,1.66" transform="translate(-32.72 -37.865)" fill="#d11"/>
  </g>
</svg>
