<?xml version="1.0" encoding="utf-8"?>
<!-- Generator: Adobe Illustrator 27.8.0, SVG Export Plug-In . SVG Version: 6.00 Build 0)  -->
<svg version="1.1" id="Group_27910" xmlns="http://www.w3.org/2000/svg" xmlns:xlink="http://www.w3.org/1999/xlink" x="0px"
	 y="0px" viewBox="0 0 32 32" style="enable-background:new 0 0 32 32;" xml:space="preserve">
<style type="text/css">
	.st0{clip-path:url(#SVGID_00000069387753215422721860000017561595187955708548_);}
	.st1{fill:#FFFFFF;}
</style>
<g>
	<defs>
		<rect id="SVGID_1_" x="1.8" y="1.9" width="28.4" height="28.2"/>
	</defs>
	<clipPath id="SVGID_00000162324501426378175420000006415027689588809896_">
		<use xlink:href="#SVGID_1_"  style="overflow:visible;"/>
	</clipPath>
	<g id="Group_27909" style="clip-path:url(#SVGID_00000162324501426378175420000006415027689588809896_);">
		<path id="Path_25459" class="st1" d="M19.4,12.2c0,0.9,0,1.8,0,2.7c0,0.6-0.2,0.8-0.8,0.8h-5.1c-0.6,0-0.8-0.2-0.8-0.9
			c0-0.9,0-1.8,0-2.7h-0.3c-0.8,0-1.6,0-2.5,0c-0.4,0-0.7-0.2-0.8-0.6c0,0,0-0.1,0-0.1c0-1.7,0-3.5,0-5.2c0-0.4,0.3-0.8,0.7-0.8
			c0.1,0,0.1,0,0.2,0c0.9,0,1.8,0,2.7,0V5.1c0-0.8,0-1.6,0-2.4c-0.1-0.4,0.2-0.7,0.6-0.8c0.1,0,0.1,0,0.2,0c1.7,0,3.5,0,5.2,0
			c0.4,0,0.7,0.2,0.8,0.6c0,0.1,0,0.1,0,0.2c0,0.8,0,1.6,0,2.4c0,0.1,0,0.2,0,0.4h0.6c0.7,0,1.5,0,2.2,0c0.4,0,0.7,0.2,0.8,0.6
			c0,0,0,0.1,0,0.1c0,1.7,0,3.4,0,5.2c0,0.4-0.2,0.7-0.6,0.8c-0.1,0-0.1,0-0.2,0c-0.8,0-1.6,0-2.4,0L19.4,12.2 M14,14.3H18V14
			c0-0.8,0-1.6,0-2.3c-0.1-0.4,0.2-0.8,0.6-0.8c0.1,0,0.1,0,0.2,0c0.6,0,1.1,0,1.7,0h1.1V6.9h-0.4c-0.8,0-1.6,0-2.4,0
			C18.4,6.9,18,6.6,18,6.2c0-0.1,0-0.1,0-0.2c0-0.6,0-1.3,0-1.9c0-0.3,0-0.5,0-0.8H14v2.4c0,1-0.1,1.2-1.2,1.2h-2.4v4h0.4
			c0.8,0,1.6,0,2.4,0c0.4,0,0.7,0.3,0.7,0.6c0,0,0,0,0,0.1c0,0.1,0,0.3,0,0.4C14,12.7,14,13.5,14,14.3"/>
		<path id="Path_25460" class="st1" d="M1.8,11.9c-0.2-1.3,0.8-2.5,2.1-2.7c0,0,0,0,0.1,0c1.2-0.1,2.3,0.8,2.5,2
			c0.3,1.4,0.6,2.9,0.9,4.3c0.1,0.4-0.1,0.7-0.5,0.9c0,0-0.1,0-0.1,0c-0.4,0.1-0.7-0.2-0.8-0.6c0,0,0,0,0,0
			c-0.3-1.4-0.6-2.8-0.9-4.3c-0.1-0.6-0.6-1-1.1-0.9c0,0,0,0,0,0c-0.6,0.1-0.9,0.6-0.8,1.2c0,0,0,0,0,0c0.1,1.7,0.3,3.5,0.4,5.2
			c0.1,1.8,0.3,3.7,0.5,5.5c0.1,0.9,0.6,1.7,1.3,2.3c0.8,0.6,1.6,1.1,2.4,1.7C8.7,27,9.3,28,9.7,29c0,0.1,0.1,0.3,0.1,0.4
			c0,0.4-0.4,0.7-0.7,0.6c-0.3,0-0.5-0.2-0.6-0.4c0-0.1,0-0.1-0.1-0.2C8.1,28.7,7.6,28,7,27.6C6.2,27,5.4,26.5,4.7,26
			c-1.2-0.9-2-2.3-2.1-3.8c-0.1-1.7-0.3-3.4-0.4-5.1C2,15.3,1.9,13.5,1.8,11.9"/>
		<path id="Path_25461" class="st1" d="M30.2,11.9c-0.1,1.4-0.2,2.9-0.4,4.4c-0.1,1.5-0.2,3-0.4,4.4c-0.1,0.9-0.2,1.7-0.3,2.6
			c-0.2,1-0.9,2-1.7,2.6c-0.8,0.6-1.5,1.1-2.3,1.6c-0.7,0.5-1.3,1.2-1.5,2c-0.1,0.4-0.4,0.6-0.7,0.6c-0.3,0-0.6-0.3-0.6-0.6
			c0-0.2,0-0.3,0.1-0.5c0.3-1.1,1-2,1.9-2.6c0.7-0.5,1.5-1,2.2-1.5c1-0.7,1.6-1.9,1.6-3.1c0.1-1.8,0.3-3.6,0.4-5.4
			c0.1-1.6,0.3-3.2,0.4-4.8c0.1-0.5-0.3-1-0.9-1.1c-0.5-0.1-1,0.3-1.1,0.9c-0.3,1.2-0.5,2.5-0.8,3.7c-0.1,0.2-0.1,0.5-0.2,0.7
			c0,0.4-0.4,0.7-0.8,0.6c-0.4,0-0.7-0.4-0.6-0.8c0-0.1,0-0.1,0-0.2c0.3-1.5,0.6-3,1-4.5c0.3-1.2,1.5-2,2.7-1.8
			C29.5,9.4,30.4,10.6,30.2,11.9"/>
		<path id="Path_25462" class="st1" d="M15.1,25.9c0,0.9,0,1.9,0,2.8c0,0.4-0.3,0.7-0.7,0.7c-0.3,0-0.6-0.2-0.7-0.4
			c0-0.1-0.1-0.3,0-0.4c0-1.7,0-3.3,0-5c0-0.6-0.2-1.2-0.6-1.6c-0.5-0.5-1-0.9-1.6-1.3c-1.1-0.8-2.3-1.6-3.4-2.4
			c-0.2-0.2-0.5-0.3-0.8-0.2c-0.5,0.1-0.7,0.6-0.6,1c0,0.2,0.1,0.3,0.3,0.5c0.7,0.7,1.5,1.4,2.2,2.2c0.2,0.2,0.5,0.5,0.7,0.7
			c0.3,0.3,0.3,0.7,0,1c0,0,0,0,0,0c-0.3,0.3-0.7,0.3-1,0.1c0,0,0,0,0,0c-1-1-2.1-2-3.1-3c-0.8-0.8-0.8-2.1-0.1-3
			c0.7-0.9,1.9-1.1,2.9-0.5c1.6,1.1,3.2,2.2,4.8,3.4c0.8,0.5,1.4,1.4,1.6,2.3c0,0.3,0.1,0.5,0.1,0.8C15.1,24.3,15.1,25.1,15.1,25.9
			L15.1,25.9z"/>
		<path id="Path_25463" class="st1" d="M16.9,25.8c0-0.7,0-1.3,0-2c-0.1-1.3,0.5-2.6,1.6-3.4c0.4-0.3,0.9-0.7,1.3-1
			c1.1-0.8,2.2-1.5,3.3-2.3c1-0.7,2.4-0.5,3.1,0.5c0.2,0.3,0.3,0.6,0.4,0.9c0.2,0.7,0,1.5-0.5,2c-1,1-2.1,2-3.1,3
			c-0.3,0.3-0.7,0.3-1,0c0,0,0,0,0,0c-0.3-0.3-0.2-0.7,0-1c0,0,0,0,0,0c1-0.9,1.9-1.9,2.9-2.8c0.2-0.2,0.4-0.5,0.3-0.8
			c0-0.5-0.5-0.8-0.9-0.7c-0.1,0-0.3,0.1-0.4,0.1c-0.2,0.1-0.4,0.3-0.7,0.5c-1.2,0.8-2.4,1.7-3.6,2.5c-0.2,0.2-0.4,0.3-0.6,0.5
			c-0.6,0.5-0.9,1.2-0.9,2c0,1.6,0,3.3,0,4.9c0,0.3-0.2,0.6-0.5,0.7c-0.3,0.1-0.6-0.1-0.8-0.4c-0.1-0.2-0.1-0.3-0.1-0.5
			C16.9,27.6,16.9,26.7,16.9,25.8"/>
	</g>
</g>
</svg>
