<svg id="Group_28348" data-name="Group 28348" xmlns="http://www.w3.org/2000/svg" xmlns:xlink="http://www.w3.org/1999/xlink" width="42.872" height="60.11" viewBox="0 0 42.872 60.11">
  <defs>
    <clipPath id="clip-path">
      <rect id="Rectangle_4855" data-name="Rectangle 4855" width="42.872" height="60.11" fill="#d11"/>
    </clipPath>
  </defs>
  <g id="Group_27926" data-name="Group 27926" clip-path="url(#clip-path)">
    <path id="Path_25498" data-name="Path 25498" d="M21.466,60.109c-.9-1.837-1.729-3.708-2.715-5.491A80.1,80.1,0,0,0,6.307,38.188,22.034,22.034,0,0,1,.038,21.162,22.577,22.577,0,0,1,17.492.494C23.27-.866,28.47.674,33.139,3.963,40.047,8.83,43.28,15.657,42.831,24.089a21.482,21.482,0,0,1-6.172,14.018,77.811,77.811,0,0,0-13.3,17.948c-.683,1.322-1.264,2.7-1.895,4.054M34.161,23.517A12.947,12.947,0,1,0,21.2,36.443,12.98,12.98,0,0,0,34.161,23.517" transform="translate(0 0)" fill="#d11"/>
    <path id="Path_25499" data-name="Path 25499" d="M48.877,52.476c1.059,0,1.995-.009,2.93,0a1.423,1.423,0,1,1,.015,2.821c-.955.026-1.91.006-2.945.006,0,.992.006,1.9,0,2.8-.009,1.046-.566,1.73-1.4,1.74s-1.416-.678-1.429-1.712c-.011-.861-.01-1.722-.017-2.584a1.338,1.338,0,0,0-.082-.249c-.94,0-1.918.032-2.895-.008a1.409,1.409,0,0,1-1.369-2.079,1.474,1.474,0,0,1,1.4-.742c.957.007,1.914,0,2.963,0,0-1.05-.007-2.029,0-3.009a1.3,1.3,0,0,1,.856-1.383,1.662,1.662,0,0,1,1.32.148,2.2,2.2,0,0,1,.625,1.359c.095.922.028,1.861.028,2.885" transform="translate(-26.247 -30.374)" fill="#d11"/>
  </g>
</svg>
