<?xml version="1.0" encoding="utf-8"?>
<!-- Generator: Adobe Illustrator 27.8.0, SVG Export Plug-In . SVG Version: 6.00 Build 0)  -->
<svg version="1.1" id="Layer_1" xmlns="http://www.w3.org/2000/svg" xmlns:xlink="http://www.w3.org/1999/xlink" x="0px" y="0px"
	 viewBox="0 0 500 130" style="enable-background:new 0 0 500 130;" xml:space="preserve">
<style type="text/css">
	.st0{enable-background:new    ;}
	.st1{fill:#FFFFFF;}
	.st2{fill:#D3BC8B;}
</style>
<g>
	<g class="st0">
		<path class="st1" d="M260.2,88.8h4.1v17.6h6v3.9h-10.1V88.8z"/>
		<path class="st1" d="M275.5,88.8h4.1v21.5h-4.1V88.8z"/>
	</g>
	<g class="st0">
		<path class="st1" d="M286.7,88.8h4.1v7.4l5.8-7.4h4.9l-7.5,9.6l8.3,11.9h-4.9l-6.6-9.6v9.6h-4.1V88.8z"/>
	</g>
	<g class="st0">
		<path class="st1" d="M307.6,88.8h11.8v4h-7.7v3.9h7.7v3.9h-7.7v5.7h7.7v4h-11.8V88.8z"/>
	</g>
	<g class="st0">
		<path class="st1" d="M335.4,88.8h3.9l9.2,14.2V88.8h4.1v21.5h-3.9l-9.2-14.1v14.1h-4.1V88.8z"/>
	</g>
	<g class="st0">
		<path class="st1" d="M370.2,88.3c3,0,5.7,1.1,7.9,3.3c2.2,2.2,3.3,4.9,3.3,8.1c0,3.1-1.1,5.8-3.2,8c-2.2,2.2-4.8,3.3-7.9,3.3
			c-3.2,0-5.9-1.1-8.1-3.4c-2.1-2.2-3.2-4.9-3.2-8c0-2.1,0.5-4,1.5-5.7c1-1.7,2.4-3.1,4.1-4.1C366.3,88.8,368.1,88.3,370.2,88.3z
			 M370.1,92.3c-2,0-3.7,0.7-5,2.1c-1.4,1.4-2,3.1-2,5.3c0,2.4,0.9,4.3,2.6,5.7c1.3,1.1,2.9,1.6,4.6,1.6c1.9,0,3.6-0.7,5-2.1
			c1.4-1.4,2.1-3.1,2.1-5.2c0-2.1-0.7-3.8-2.1-5.2C373.8,93,372.1,92.3,370.1,92.3z"/>
	</g>
	<g class="st0">
		<path class="st1" d="M407.1,88.3c3,0,5.7,1.1,7.9,3.3c2.2,2.2,3.3,4.9,3.3,8.1c0,3.1-1.1,5.8-3.2,8c-2.2,2.2-4.8,3.3-7.9,3.3
			c-3.2,0-5.9-1.1-8.1-3.4c-2.1-2.2-3.2-4.9-3.2-8c0-2.1,0.5-4,1.5-5.7s2.4-3.1,4.1-4.1C403.2,88.8,405,88.3,407.1,88.3z M407,92.3
			c-2,0-3.7,0.7-5,2.1c-1.4,1.4-2,3.1-2,5.3c0,2.4,0.9,4.3,2.6,5.7c1.3,1.1,2.9,1.6,4.6,1.6c1.9,0,3.6-0.7,5-2.1
			c1.4-1.4,2.1-3.1,2.1-5.2c0-2.1-0.7-3.8-2.1-5.2C410.7,93,409,92.3,407,92.3z"/>
		<path class="st1" d="M422.3,88.8h11.9v4h-3.9v17.5h-4.2V92.9h-3.8V88.8z"/>
	</g>
	<g class="st0">
		<path class="st1" d="M439.5,88.8h4.2v8.1h7.2v-8.1h4.1v21.5h-4.1v-9.4h-7.2v9.4h-4.2V88.8z"/>
	</g>
	<g class="st0">
		<path class="st1" d="M462.3,88.8H474v4h-7.7v3.9h7.7v3.9h-7.7v5.7h7.7v4h-11.8V88.8z"/>
	</g>
	<g id="Group_28331">
		<g class="st0">
			<path class="st1" d="M483.2,88.8h4.3c2.4,0,4.1,0.2,5.1,0.6c1,0.4,1.8,1.1,2.4,2.1c0.6,1,0.9,2.2,0.9,3.5c0,1.4-0.3,2.6-1,3.6
				c-0.7,1-1.7,1.7-3.1,2.2l5.1,9.6h-4.5l-4.8-9.1h-0.4v9.1h-4.1V88.8z M487.3,97.2h1.3c1.3,0,2.2-0.2,2.7-0.5
				c0.5-0.3,0.7-0.9,0.7-1.7c0-0.5-0.1-0.9-0.4-1.2s-0.6-0.6-1-0.8c-0.4-0.2-1.2-0.2-2.2-0.2h-1.1V97.2z"/>
		</g>
		<g class="st0">
			<path class="st2" d="M55.1,39.6c-11,15.7-23,30.2-36.2,43.9c-3.7,3.8-4.8,5.6-7,10.4c-2.1,4.4-5.6,12.2-5.6,17
				c0,3.9,2.8,5.8,6.5,5.8c13.5,0,50.2-31,53.7-30.9l0.3,0.6c-4.6,3.5-9.2,6.9-13.9,10.2c-9.5,6.6-22.4,16.7-33.2,21.2
				c-3.6,1.5-4.5,1.8-8.5,1.8c-5.8,0-8.1-4.3-8.1-9.6c0-5.6,2.1-11.1,4.2-16.2H6.9c-1.4-1-2.3-1-2.3-3c0-1.9,1.8-2.7,3.2-3.8
				c4-2.9,3.9-3,6.3-7.4c8.6-15.5,21.8-33.8,33-47.7c2.7-3.4,16.8-21.3,21.4-21.3c1,0,1.8,0.7,1.8,1.8C70.3,18,58.3,34.9,55.1,39.6z
				 M31.6,60.8c-0.6,1-4.2,6.2-4.5,7.2c0.2,0.1,0.4,0.1,0.6,0.1c2.8,0,38.5-43.8,39.2-51c-0.2-0.2-0.4-0.2-0.7-0.2
				C63.3,16.8,34.8,56,31.6,60.8z"/>
			<path class="st2" d="M66.7,93.9C67.9,90.1,74.8,77,79.9,77c2.2,0,4.6,1.4,4.6,3.5c0,1.7-1.4,3-2.8,3.9
				c-5.3,3.4-11.5,12.5-11.5,18.2c0,4.5,3.7,6,8.4,6c17.5,0,40.4-22.5,43.6-22.5c0.1,0,0.2,0,0.2,0.1c0,1.7-15,12.4-17.3,14
				c-7,4.8-19.3,11-28.6,11c-7,0-11-4.6-11-10.2C65.6,98.5,66,96.1,66.7,93.9z M91.2,58.4c1.7-0.6,3.9-0.1,5.2,1.1
				c0.8,0.8,1,1.2,0.7,2.4c-0.5,3-4.8,4.5-7.5,2.6C87.5,62.8,88.4,59.4,91.2,58.4z"/>
			<path class="st2" d="M133.2,77.4c2.4,0,3.7,2.2,3.7,4.3c0,3.3-9,15.4-9,23.4c0,2.4,1,3.8,3.6,3.8c5.7,0,14.6-7.5,18.5-11.4
				c7.1-7.2,12.8-15.4,17.3-24.5c0.6-1.3,1.2-2.6,2-3.9c0.7-1.2,1.8-2.3,3.3-2.3c1.6,0,3,1.5,3,3.1c0,2.7-5.9,9.1-8,11.5
				c-7,8.1-26.1,31.5-37,31.5c-5.8,0-7.4-6.2-7.4-11C123.3,97.1,126.9,77.4,133.2,77.4z"/>
		</g>
		<g class="st0">
			<path class="st2" d="M247,85.9c-0.3,1.8-5,5.2-6.6,6.4c-11,8.1-22.6,17.2-36.9,17.2c-7.5,0-12.9-5-12.9-12.6
				c0-10.6,10.1-25.5,21.5-25.5c2.2,0,3.8,2.3,3.8,4.3c0,7.5-12,16.9-19.3,16.2c-1.3,1.1-2.1,5.3-2.1,7c0,6.8,6,7.8,11.5,7.8
				c15.3,0,29.1-13.2,41-21.4l-0.4-0.1L247,85.9z M200.4,85.5h0.2l0.4,0.3c3,0.2,12.2-6.4,12.2-9.4c0-0.6-1-0.6-1.4-0.6
				C209.8,75.7,200.7,83.4,200.4,85.5z"/>
		</g>
	</g>
</g>
</svg>
