<?xml version="1.0" encoding="utf-8"?>
<!-- Generator: Adobe Illustrator 27.8.0, SVG Export Plug-In . SVG Version: 6.00 Build 0)  -->
<svg version="1.1" id="Group_27912" xmlns="http://www.w3.org/2000/svg" xmlns:xlink="http://www.w3.org/1999/xlink" x="0px"
	 y="0px" viewBox="0 0 32 32" style="enable-background:new 0 0 32 32;" xml:space="preserve">
<style type="text/css">
	.st0{clip-path:url(#SVGID_00000058551027278525198050000010620600134017586347_);}
	.st1{fill:#FFFFFF;}
</style>
<g>
	<defs>
		<rect id="SVGID_1_" x="3.8" y="1.8" width="24.4" height="28.3"/>
	</defs>
	<clipPath id="SVGID_00000078004332787366515670000011909105041478300068_">
		<use xlink:href="#SVGID_1_"  style="overflow:visible;"/>
	</clipPath>
	<g id="Group_27911" style="clip-path:url(#SVGID_00000078004332787366515670000011909105041478300068_);">
		<path id="Path_25464" class="st1" d="M17.9,7c0,0.9,0,1.9,0,2.8c0,0.1,0.1,0.2,0.1,0.3c0.3,0.4,0.2,1-0.2,1.3
			c-0.4,0.2-0.8,0.2-1.2-0.1c-0.3-0.3-0.4-0.8-0.1-1.2c0.1-0.1,0.1-0.3,0.1-0.5c0-0.7,0-1.5,0-2.2c0-0.3-0.1-0.3-0.4-0.3
			c-1.4,0-2.7,0-4.1,0c-0.4,0-0.6-0.2-0.7-0.4c-0.1-0.3,0.1-0.7,0.4-0.7c0.1,0,0.1,0,0.2,0c0.9,0,1.8,0,2.7,0c0.5,0,0.9,0,1.4,0
			c0.1,0,0.2,0,0.3,0c0-0.1,0-0.3-0.1-0.4c-0.5-1.7-2.4-2.7-4.1-2.1c-1.2,0.4-2.1,1.4-2.2,2.7c0,0.2,0,0.3,0,0.5c0,0.9,0,1.9,0,2.8
			c0,0.3,0,0.7,0.2,1c0.2,0.4,0.1,0.9-0.3,1.1c-0.4,0.3-0.8,0.2-1.2-0.1c-0.3-0.3-0.4-0.8-0.2-1.2c0.1-0.2,0.2-0.4,0.2-0.6
			c0-0.7,0-1.4,0-2.1c0-0.2-0.1-0.3-0.3-0.3c-1.1,0-2.2,0-3.3,0C5.1,6.9,5,7,5,7.3c0,2.1,0,4.2,0,6.4c0,4,0,8,0,12
			C5,26.9,5.1,27,6.3,27c1.5,0,2.9,0,4.4,0c0.3,0,0.6,0.3,0.6,0.6c0,0.3-0.3,0.6-0.6,0.6l0,0c-1,0-2,0-3,0c-0.7,0-1.4,0-2,0
			c-1,0.1-1.9-0.7-2-1.7c0-0.1,0-0.2,0-0.3c0-3.6,0-7.3,0-10.9c0-2.9,0-5.9,0-8.8c0-0.6,0.2-0.8,0.8-0.8c1.3,0,2.7,0,4,0
			C8.8,5.7,9,5.7,9,5.4c0.4-1.8,1.9-3.2,3.7-3.5c2.3-0.4,4.5,1.2,5,3.5c0.1,0.3,0.1,0.4,0.4,0.4c1.1,0,2.3,0,3.4,0
			c0.6,0,0.8,0.2,0.8,0.8c0,2.3,0,4.5,0,6.8c0,0.1,0,0.3,0,0.4c-0.1,0.2-0.4,0.4-0.6,0.4c-0.3,0-0.5-0.3-0.5-0.6c0-0.8,0-1.5,0-2.3
			c0-1.3,0-2.6,0-3.9c0-0.3-0.1-0.4-0.4-0.4c-0.9,0-1.7,0-2.6,0C18.2,6.9,18.1,6.9,17.9,7"/>
		<path id="Path_25465" class="st1" d="M20.5,15.4c2.3,0,4.6,0,7,0c0.5,0,0.7,0.2,0.7,0.7c0,4.1,0,8.1,0,12.2c0,1-0.8,1.9-1.8,1.9
			c0,0-0.1,0-0.1,0c-3.9,0-7.8,0-11.6,0c-1,0-1.9-0.8-1.9-1.8c0,0,0-0.1,0-0.1c0-4.1,0-8.1,0-12.2c0-0.5,0.2-0.7,0.8-0.7L20.5,15.4
			L20.5,15.4z M20.5,16.6L20.5,16.6c-2,0-4.1,0-6.1,0c-0.3,0-0.3,0.1-0.3,0.3c0,3.7,0,7.4,0,11.1c0,0.7,0.2,0.9,0.9,0.9h11
			c0.8,0,1-0.2,1-1c0-3.6,0-7.3,0-10.9c0-0.4,0-0.4-0.4-0.4C24.6,16.6,22.5,16.6,20.5,16.6"/>
		<path id="Path_25466" class="st1" d="M20.5,23.1c-1.7,0-3.1-1.3-3.2-3c0-0.2-0.1-0.4-0.2-0.6c-0.2-0.4-0.2-0.9,0.2-1.2
			c0.3-0.3,0.8-0.3,1.2,0c0.4,0.3,0.5,0.8,0.2,1.2c-0.2,0.3-0.2,0.6-0.1,1c0.3,1.1,1.3,1.7,2.4,1.4c0.9-0.2,1.5-1,1.5-1.9
			c0-0.1,0-0.3-0.1-0.4c-0.3-0.4-0.2-1,0.1-1.3c0.4-0.3,0.9-0.3,1.2,0c0.4,0.3,0.4,0.9,0.1,1.3c-0.1,0.1-0.1,0.2-0.1,0.4
			C23.7,21.6,22.3,23.1,20.5,23.1C20.5,23.1,20.5,23.1,20.5,23.1"/>
	</g>
</g>
</svg>
