<svg xmlns="http://www.w3.org/2000/svg" xmlns:xlink="http://www.w3.org/1999/xlink" width="24.669" height="34.588" viewBox="0 0 24.669 34.588">
  <defs>
    <clipPath id="clip-path">
      <rect id="Rectangle_4849" data-name="Rectangle 4849" width="7.671" height="8.89" fill="#2cb842"/>
    </clipPath>
  </defs>
  <g id="Group_28345" data-name="Group 28345" transform="translate(-1514 -813.809)">
    <g id="Group_28341" data-name="Group 28341" transform="translate(1522 822.212)">
      <g id="Group_27911" data-name="Group 27911" clip-path="url(#clip-path)">
        <path id="Path_25464" data-name="Path 25464" d="M4.438,1.605c0,.3,0,.584,0,.871,0,.027.026.056.042.082a.293.293,0,0,1-.438.383A.307.307,0,0,1,4,2.551.306.306,0,0,0,4.048,2.4c0-.234,0-.469,0-.7,0-.088-.032-.106-.111-.106-.427,0-.854,0-1.282,0-.124,0-.2-.049-.222-.136a.187.187,0,0,1,.191-.242c.282,0,.563,0,.845,0h.446c.031,0,.062,0,.107-.007C4.015,1.167,4.01,1.131,4,1.1a1.023,1.023,0,0,0-1.988.174,1.035,1.035,0,0,0,0,.142q0,.437,0,.874a.515.515,0,0,0,.064.315.271.271,0,0,1-.091.36.291.291,0,0,1-.367-.021.308.308,0,0,1-.053-.374.448.448,0,0,0,.056-.191c.007-.225,0-.449,0-.674,0-.077-.022-.106-.1-.105-.342,0-.684,0-1.025,0-.095,0-.116.036-.116.123,0,.665,0,1.329,0,1.994q0,1.885,0,3.77c0,.4.026.423.428.422q.693,0,1.386,0a.189.189,0,1,1,.01.377c-.313,0-.627,0-.94,0H.627A.586.586,0,0,1,0,7.652Q0,5.938,0,4.224,0,2.847,0,1.471c0-.2.051-.252.253-.252.418,0,.835,0,1.253,0,.086,0,.126-.019.146-.111A1.377,1.377,0,0,1,2.824.015,1.393,1.393,0,0,1,4.4,1.1c.018.084.045.12.14.119.357-.006.715,0,1.073,0,.178,0,.238.06.238.24q0,1.064,0,2.127a.4.4,0,0,1-.016.13.187.187,0,0,1-.2.113.184.184,0,0,1-.161-.183c0-.237,0-.475,0-.712,0-.405,0-.81,0-1.215,0-.089-.023-.123-.117-.121-.269.006-.538,0-.807,0-.034,0-.068,0-.109.008" transform="translate(0 0)" fill="#2cb842"/>
        <path id="Path_25465" data-name="Path 25465" d="M151.41,223.763h2.183c.171,0,.231.057.231.226q0,1.908,0,3.816a.576.576,0,0,1-.588.589q-1.827,0-3.654,0a.58.58,0,0,1-.593-.6q0-1.913,0-3.825c0-.146.075-.21.24-.21h2.183Zm0,.379h0c-.642,0-1.284,0-1.927,0-.082,0-.108.022-.108.107q0,1.742,0,3.484c0,.219.068.286.29.286h3.464c.246,0,.316-.07.316-.316q0-1.713,0-3.427c0-.131,0-.132-.131-.133h-1.908" transform="translate(-146.153 -219.505)" fill="#2cb842"/>
        <path id="Path_25466" data-name="Path 25466" d="M219.437,267.86a1,1,0,0,1-.993-.949.5.5,0,0,0-.06-.2.3.3,0,0,1,.06-.378.293.293,0,0,1,.375,0,.276.276,0,0,1,.064.374.33.33,0,0,0-.036.306.616.616,0,0,0,1.215-.141.257.257,0,0,0-.039-.131.3.3,0,0,1,.043-.4.291.291,0,0,1,.389.008.3.3,0,0,1,.034.4.253.253,0,0,0-.036.121,1.008,1.008,0,0,1-1.014,1" transform="translate(-214.19 -261.197)" fill="#2cb842"/>
      </g>
    </g>
    <path id="Path_25498" data-name="Path 25498" d="M12.352,34.587c-.519-1.057-1-2.134-1.562-3.16a46.089,46.089,0,0,0-7.16-9.454,12.679,12.679,0,0,1-3.607-9.8A12.991,12.991,0,0,1,10.065.284a10.823,10.823,0,0,1,9,2,12.588,12.588,0,0,1,5.577,11.58,12.361,12.361,0,0,1-3.551,8.066,44.773,44.773,0,0,0-7.652,10.328c-.393.761-.727,1.552-1.09,2.333m7.3-21.056A7.45,7.45,0,1,0,12.2,20.969a7.469,7.469,0,0,0,7.455-7.438" transform="translate(1514 813.809)" fill="#2cb842"/>
  </g>
</svg>
