<svg id="Group_28350" data-name="Group 28350" xmlns="http://www.w3.org/2000/svg" xmlns:xlink="http://www.w3.org/1999/xlink" width="42.873" height="60.11" viewBox="0 0 42.873 60.11">
  <defs>
    <clipPath id="clip-path">
      <rect id="Rectangle_4849" data-name="Rectangle 4849" width="13.332" height="15.451" fill="#2cb842"/>
    </clipPath>
  </defs>
  <g id="Group_28341" data-name="Group 28341" transform="translate(13.903 14.604)">
    <g id="Group_27911" data-name="Group 27911" clip-path="url(#clip-path)">
      <path id="Path_25464" data-name="Path 25464" d="M7.713,2.79c0,.515,0,1.014,0,1.514,0,.048.045.1.073.142a.509.509,0,0,1-.761.665.533.533,0,0,1-.073-.678.532.532,0,0,0,.079-.256c.008-.407,0-.814.007-1.221,0-.152-.056-.185-.193-.184-.742.005-1.485,0-2.227,0-.215,0-.349-.085-.386-.237a.325.325,0,0,1,.331-.421c.489-.006.979,0,1.468,0H6.81c.054,0,.107-.006.186-.011-.018-.077-.027-.14-.047-.2a1.778,1.778,0,0,0-3.454.3,1.8,1.8,0,0,0-.008.247q0,.759,0,1.518a.9.9,0,0,0,.112.548.471.471,0,0,1-.158.626A.506.506,0,0,1,2.8,5.11a.535.535,0,0,1-.092-.65.778.778,0,0,0,.1-.332c.012-.39,0-.781.007-1.172,0-.134-.038-.184-.177-.183-.594.005-1.188.006-1.782,0-.165,0-.2.063-.2.214,0,1.155,0,2.31,0,3.465q0,3.276,0,6.551c0,.691.046.735.744.733q1.2,0,2.409,0a.329.329,0,1,1,.017.654c-.544,0-1.089,0-1.633,0H1.09A1.019,1.019,0,0,1,0,13.3Q0,10.32,0,7.342,0,4.949,0,2.556c0-.349.089-.438.439-.439.726,0,1.452,0,2.178,0,.149,0,.218-.032.254-.193A2.392,2.392,0,0,1,4.907.026,2.42,2.42,0,0,1,7.643,1.914c.032.146.078.209.243.206.621-.011,1.243,0,1.864,0,.309,0,.414.1.414.416q0,1.848,0,3.7a.7.7,0,0,1-.027.227.325.325,0,0,1-.346.2.32.32,0,0,1-.279-.319c-.006-.412,0-.825,0-1.238,0-.7,0-1.408,0-2.112,0-.154-.04-.214-.2-.211-.467.01-.935,0-1.4,0-.059,0-.118.008-.19.013" transform="translate(0 0)" fill="#2cb842"/>
      <path id="Path_25465" data-name="Path 25465" d="M153.2,223.763h3.793c.3,0,.4.1.4.393q0,3.316,0,6.632a1,1,0,0,1-1.022,1.024q-3.175.006-6.35,0a1.007,1.007,0,0,1-1.03-1.036q0-3.324,0-6.648c0-.255.13-.366.417-.366H153.2Zm-.005.658h0c-1.116,0-2.232,0-3.348,0-.142,0-.187.038-.187.186q.007,3.027,0,6.055c0,.38.119.5.5.5h6.02c.428,0,.549-.121.549-.549q0-2.978,0-5.956c0-.228,0-.23-.228-.23h-3.315" transform="translate(-144.062 -216.365)" fill="#2cb842"/>
      <path id="Path_25466" data-name="Path 25466" d="M220.245,269.039a1.737,1.737,0,0,1-1.727-1.649.86.86,0,0,0-.1-.349.527.527,0,0,1,.1-.658.51.51,0,0,1,.651-.008.48.48,0,0,1,.111.649.573.573,0,0,0-.063.531,1.071,1.071,0,0,0,2.111-.246.447.447,0,0,0-.068-.227.521.521,0,0,1,.075-.7.505.505,0,0,1,.675.013.522.522,0,0,1,.059.69.439.439,0,0,0-.062.211,1.752,1.752,0,0,1-1.762,1.741" transform="translate(-211.125 -257.459)" fill="#2cb842"/>
    </g>
  </g>
  <path id="Path_25498" data-name="Path 25498" d="M21.466,60.109c-.9-1.837-1.729-3.708-2.715-5.491A80.1,80.1,0,0,0,6.307,38.188,22.034,22.034,0,0,1,.038,21.162,22.577,22.577,0,0,1,17.492.494C23.27-.866,28.47.674,33.139,3.963,40.047,8.83,43.28,15.657,42.831,24.089a21.482,21.482,0,0,1-6.172,14.018,77.811,77.811,0,0,0-13.3,17.948c-.683,1.322-1.264,2.7-1.895,4.054M34.161,23.517A12.947,12.947,0,1,0,21.2,36.443,12.98,12.98,0,0,0,34.161,23.517" transform="translate(0 0)" fill="#2cb842"/>
</svg>
