<svg xmlns="http://www.w3.org/2000/svg" xmlns:xlink="http://www.w3.org/1999/xlink" width="210.346" height="55.008" viewBox="0 0 210.346 55.008">
  <defs>
    <clipPath id="clip-path">
      <path id="Path_25884" data-name="Path 25884" d="M0,0H210.346V-55.008H0Z" fill="#fff"/>
    </clipPath>
  </defs>
  <g id="Group_28473" data-name="Group 28473" transform="translate(0 55.008)">
    <g id="Group_28431" data-name="Group 28431" clip-path="url(#clip-path)">
      <g id="Group">
        <text id="THAIL" transform="translate(72.705 -0.085)" fill="#fff" font-size="12" font-family="Jost" font-weight="500" letter-spacing="0.1em"><tspan x="0" y="0">THAIL</tspan></text>
        <text id="AND" transform="translate(110.104 -0.085)" fill="#fff" font-size="12" font-family="Jost" font-weight="500" letter-spacing="0.1em"><tspan x="0" y="0">AND</tspan></text>
      </g>
      <g id="Group_28427" data-name="Group 28427" transform="translate(91.447 -55.008)">
        <path id="Path_25880" data-name="Path 25880" d="M0,0,13.165,11.7V.714h2.643V17.031L2.621,5.342V16.386H0Z" fill="#fff"/>
      </g>
      <g id="Group_28428" data-name="Group 28428" transform="translate(13.972 -38.592)">
        <path id="Path_25881" data-name="Path 25881" d="M0,0C-1.014,0-1.925.006-2.836-.008a.5.5,0,0,1-.306-.187Q-6.022-3.669-8.89-7.15c-.026-.032-.042-.071-.114-.194.211,0,.369.007.526,0a13.332,13.332,0,0,0,2.046-.122,2.937,2.937,0,0,0,2.426-3.176,2.992,2.992,0,0,0-2.817-2.905,9.774,9.774,0,0,0-1.028-.024c-1.213,0-2.427,0-3.682,0V-.026h-2.439v-15.7h.421c2.26,0,4.52-.019,6.779.007a5.191,5.191,0,0,1,4.25,1.886A5.426,5.426,0,0,1-4.507-5.691c-.062.029-.119.066-.214.119L0,0" fill="#fff"/>
      </g>
      <g id="Group_28429" data-name="Group 28429" transform="translate(36.879 -40.969)">
        <path id="Path_25882" data-name="Path 25882" d="M0,0C.973,0,1.9.013,2.821,0a7.831,7.831,0,0,0,3-.618A5,5,0,0,0,8.927-5.564,5.259,5.259,0,0,0,3.7-10.909c-1.444-.118-2.907-.02-4.4-.02V-.843a2.246,2.246,0,0,1-.227-.2c-.748-.914-1.5-1.826-2.233-2.75a.913.913,0,0,1-.208-.514c-.012-2.921-.009-5.842-.008-8.763,0-.068.009-.137.016-.231a2.052,2.052,0,0,1,.286-.036c2.288.02,4.581-.04,6.863.089a8.311,8.311,0,0,1,6.1,2.809,7.145,7.145,0,0,1,1.675,4.374A7.587,7.587,0,0,1,10.1-.787,8.031,8.031,0,0,1,4.848,2.154a24.01,24.01,0,0,1-2.687.215.61.61,0,0,1-.436-.176C1.166,1.542.631.872.09.206A1.163,1.163,0,0,1,0,0" fill="#fff"/>
      </g>
      <g id="Group_28430" data-name="Group 28430" transform="translate(114.727 -51.92)">
        <path id="Path_25883" data-name="Path 25883" d="M0,0V10.136c-.389-.474-.706-.858-1.02-1.243-.471-.577-.948-1.15-1.4-1.737a.854.854,0,0,1-.195-.48c-.012-2.934-.008-5.868-.007-8.8,0-.069.012-.137.019-.218a.709.709,0,0,1,.167-.041c2.316.02,4.638-.047,6.947.088A8.14,8.14,0,0,1,10.9.862a7.693,7.693,0,0,1-4.916,12.16,23.52,23.52,0,0,1-3.02.3.8.8,0,0,1-.567-.254c-.571-.655-1.107-1.338-1.727-2.1.327,0,.56,0,.794,0a16.749,16.749,0,0,0,4.01-.268A5.4,5.4,0,0,0,8.58,2.107,5.542,5.542,0,0,0,5.437.208,23.647,23.647,0,0,0,0,0" fill="#fff"/>
      </g>
    </g>
    <g id="Group_28432" data-name="Group 28432" transform="translate(21.421 -45.445)">
      <path id="Path_25885" data-name="Path 25885" d="M0,0V4.468H7.289V6.83H-2.653V-8.855h9.92v2.3H.014v4.365h7.01V0Z" fill="#fff"/>
    </g>
    <g id="Group_28434" data-name="Group 28434" clip-path="url(#clip-path)">
      <g id="Group_28433" data-name="Group 28433" transform="translate(77.124 -49.721)">
        <path id="Path_25886" data-name="Path 25886" d="M0,0C-.272.481-.521.912-.763,1.347q-2.6,4.693-5.2,9.392a.664.664,0,0,1-.7.4c-.757-.026-1.516-.008-2.274-.009-.137,0-.274-.011-.47-.02C-6.242,5.651-3.114.243.046-5.22,3.155.234,6.238,5.644,9.364,11.13c-1.032,0-1.985.011-2.936-.016-.113,0-.25-.2-.326-.336Q3.169,5.594.247.405C.181.287.106.173,0,0" fill="#fff"/>
      </g>
    </g>
    <g id="Group_28435" data-name="Group 28435" transform="translate(64.141 -40.984)">
      <path id="Path_25888" data-name="Path 25888" d="M0,0V2.358H-10.866V-13.315h2.631V0Z" fill="#fff"/>
    </g>
    <g id="Group_28437" data-name="Group 28437" clip-path="url(#clip-path)">
      <g id="Group_28436" data-name="Group 28436" transform="translate(191.109 -45.717)">
        <path id="Path_25889" data-name="Path 25889" d="M0,0V-.974c.605-.04,1.218-.042,1.818-.127A3.078,3.078,0,0,0,4.562-3.006a3.244,3.244,0,0,0-.5-3.382A2.747,2.747,0,0,0,2.2-7.409C.627-7.551-.955-7.583-2.589-7.664V7.1h-1.13V-8.6c.339,0,.664,0,.989,0,1.557.026,3.121-.025,4.669.1A4.075,4.075,0,0,1,5.825-5.391C6.361-2.675,5.162-.474,1.861-.1,1.256-.031.642-.032,0,0" fill="#fff"/>
      </g>
    </g>
    <g id="Group_28438" data-name="Group 28438" transform="translate(201.872 -54.293)">
      <path id="Path_25891" data-name="Path 25891" d="M0,0V15.68H8.474V14.649H1.144V.966H8.466V0Z" fill="#fff"/>
    </g>
    <g id="Group_28452" data-name="Group 28452" clip-path="url(#clip-path)">
      <g id="Group_28439" data-name="Group 28439" transform="translate(174.008 -54.882)">
        <path id="Path_25892" data-name="Path 25892" d="M0,0C.211.4.405.732.565,1.083a.451.451,0,0,1-.048.339Q-2.888,7.884-6.3,14.342c-.293.556-.6,1.1-.874,1.669a.454.454,0,0,1-.5.285c-.308-.016-.618,0-1.008,0C-5.775,10.833-2.9,5.446,0,0" fill="#fff"/>
      </g>
      <g id="Group_28440" data-name="Group 28440" transform="translate(160.937 -42.313)">
        <path id="Path_25893" data-name="Path 25893" d="M0,0C.08.051.13.077.174.111.386.276.6.442.807.608A9.508,9.508,0,0,1-8.645,3.657a8,8,0,0,1-6.383-6.712H-13.9A7.021,7.021,0,0,0-8.019,2.719,8.3,8.3,0,0,0,0,0" fill="#fff"/>
      </g>
      <g id="Group_28441" data-name="Group 28441" transform="translate(161.713 -51.267)">
        <path id="Path_25894" data-name="Path 25894" d="M0,0-.836.629C-1.188.317-1.523,0-1.878-.291A8.223,8.223,0,0,0-11.8-.815a6.512,6.512,0,0,0-2.654,3.676c-.11.4-.276.559-.691.5a4.461,4.461,0,0,0-.595,0,3.312,3.312,0,0,1,.037-.336A8.174,8.174,0,0,1-8.76-3.124,9.732,9.732,0,0,1,0,0" fill="#fff"/>
      </g>
      <g id="Group_28442" data-name="Group 28442" transform="translate(138.426 -45.71)">
        <path id="Path_25895" data-name="Path 25895" d="M0,0C.138-.268.258-.5.38-.735.412-.8.451-.851.5-.933,2.04-.367,3.359.408,3.757,2.094A3.962,3.962,0,0,1,1.235,6.833,7.763,7.763,0,0,1-6.623,5.086l.828-.644c.116.093.221.181.33.264A6.775,6.775,0,0,0-.1,6.16a3.108,3.108,0,0,0,2.67-4.122A3.059,3.059,0,0,0,.832.345C.578.222.31.127,0,0" fill="#fff"/>
      </g>
      <g id="Group_28443" data-name="Group 28443" transform="translate(142.219 -52.328)">
        <path id="Path_25896" data-name="Path 25896" d="M0,0-.783.61c-.477-.334-.9-.688-1.382-.956a5.19,5.19,0,0,0-5-.288,2.711,2.711,0,0,0-.391,4.745,14.945,14.945,0,0,0,1.708.9l-.412.8A4.439,4.439,0,0,1-9.819,2.622a3.856,3.856,0,0,1,3.24-4.6A6.816,6.816,0,0,1,0,0" fill="#fff"/>
      </g>
      <g id="Group_28444" data-name="Group 28444" transform="translate(182.601 -38.591)">
        <path id="Path_25897" data-name="Path 25897" d="M0,0A10.678,10.678,0,0,1-1.079-.012a.519.519,0,0,1-.33-.255Q-3.357-3.951-5.286-7.646C-5.825-8.673-6.353-9.7-6.91-10.721a.785.785,0,0,1,0-.917c.134-.2.231-.414.395-.714L0,0" fill="#fff"/>
      </g>
      <g id="Group_28445" data-name="Group 28445" transform="translate(51.524 -29.227)">
        <path id="Path_25898" data-name="Path 25898" d="M0,0A.961.961,0,0,1,1.23.5a17.408,17.408,0,0,0,1.527,2.12V-.011h.867v4.1a.961.961,0,0,1-1.217-.453C1.973,2.886,1.443,2.192.879,1.364v2.73H0Z" fill="#fff"/>
      </g>
      <g id="Group_28446" data-name="Group 28446" transform="translate(166.207 -29.261)">
        <path id="Path_25899" data-name="Path 25899" d="M0,0H.853V4.105c-.738.166-.8.138-1.206-.461C-.807,2.972-1.268,2.3-1.728,1.633c-.023-.034-.055-.062-.154-.17v2.67H-2.77V.063c.631-.191.814-.13,1.156.375C-1.1,1.191-.588,1.941,0,2.8Z" fill="#fff"/>
      </g>
      <g id="Group_28447" data-name="Group 28447" transform="translate(162.016 -27.999)">
        <path id="Path_25900" data-name="Path 25900" d="M0,0C-.481,0-.9.08-1.292-.306A1.083,1.083,0,0,0-2.579-.368a1.4,1.4,0,0,0-.528,1.831A1.316,1.316,0,0,0-1.439,2.1,1.022,1.022,0,0,0-.75,1.231h-1.4V.621H.1A1.9,1.9,0,0,1-1.351,2.879,2.184,2.184,0,0,1-4.077,1.407a2.1,2.1,0,0,1,1.53-2.639A2.023,2.023,0,0,1,0,0" fill="#fff"/>
      </g>
      <g id="Group_28448" data-name="Group 28448" transform="translate(143.431 -29.184)">
        <path id="Path_25901" data-name="Path 25901" d="M0,0A14.613,14.613,0,0,1,2.148.02a1.893,1.893,0,0,1,1.6,2.1A1.9,1.9,0,0,1,2.028,4.044,17.309,17.309,0,0,1,0,4.059ZM.9.663V3.347c.674.027,1.334.1,1.732-.527a1.431,1.431,0,0,0,.009-1.584C2.251.592,1.586.629.9.663" fill="#fff"/>
      </g>
      <g id="Group_28449" data-name="Group 28449" transform="translate(56.533 -25.12)">
        <path id="Path_25902" data-name="Path 25902" d="M0,0V-4.066a15.225,15.225,0,0,1,2.15.019,1.91,1.91,0,0,1,1.606,2.1A1.928,1.928,0,0,1,1.986-.012C1.339.052.68,0,0,0M.869-.726c.684.037,1.338.117,1.769-.512a1.564,1.564,0,0,0-.054-1.69c-.454-.559-1.078-.5-1.715-.466Z" fill="#fff"/>
      </g>
      <g id="Group_28450" data-name="Group 28450" transform="translate(128.779 -29.223)">
        <path id="Path_25903" data-name="Path 25903" d="M0,0C.663,0,1.3-.034,1.94.009A1.2,1.2,0,0,1,3.128,1.021,1.209,1.209,0,0,1,2.361,2.4c-.037.019-.071.045-.14.089l.974,1.632a5.74,5.74,0,0,1-.778-.01A.575.575,0,0,1,2.061,3.9c-.24-.36-.432-.751-.673-1.11a1.8,1.8,0,0,0-.407-.327l-.123.1V4.1H0ZM.883,1.873c.448-.062.94.185,1.246-.254A.715.715,0,0,0,2.146.967C1.845.488,1.334.752.883.684Z" fill="#fff"/>
      </g>
      <g id="Group_28451" data-name="Group 28451" transform="translate(91.099 -25.117)">
        <path id="Path_25904" data-name="Path 25904" d="M0,0H-.864V-4.1c.655,0,1.3-.032,1.932.009a1.224,1.224,0,0,1,1.171.937A1.217,1.217,0,0,1,1.5-1.717c-.05.026-.1.054-.172.094L2.286-.04C1.4.123,1.347.1.956-.57a8.555,8.555,0,0,0-.45-.756,1.928,1.928,0,0,0-.392-.317L0-1.562ZM.025-3.429v1.2C.47-2.3.967-2.051,1.259-2.5a.722.722,0,0,0,0-.65c-.292-.455-.792-.2-1.236-.276" fill="#fff"/>
      </g>
    </g>
    <g id="Group_28453" data-name="Group 28453" transform="translate(102.533 -27.577)">
      <path id="Path_25906" data-name="Path 25906" d="M0,0V-1.632H.859v4.08H.012V.747H-1.78v1.7h-.859V-1.639H-1.8V0Z" fill="#fff"/>
    </g>
    <g id="Group_28465" data-name="Group 28465" clip-path="url(#clip-path)">
      <g id="Group_28454" data-name="Group 28454" transform="translate(46.342 -25.099)">
        <path id="Path_25907" data-name="Path 25907" d="M0,0C.173-.479.326-.907.482-1.333c.317-.861.64-1.718.949-2.581.073-.2.2-.308.408-.255.261.065.627-.2.781.21.485,1.3.963,2.6,1.466,3.959a3.591,3.591,0,0,0-.458,0C3.275.054,3.058-.064,3-.42a.388.388,0,0,0-.5-.364,2.594,2.594,0,0,1-.641,0C1.4-.84,1.07-.742.982-.225.966-.135.775-.033.65-.01A3.694,3.694,0,0,1,0,0M2.63-1.47l-.6-1.669L1.448-1.47Z" fill="#fff"/>
      </g>
      <g id="Group_28455" data-name="Group 28455" transform="translate(74.208 -25.099)">
        <path id="Path_25908" data-name="Path 25908" d="M0,0A4.093,4.093,0,0,0-.535,0a.387.387,0,0,1-.5-.367.446.446,0,0,0-.589-.42,1.735,1.735,0,0,1-.472,0c-.5-.058-.9-.006-.991.591-.012.074-.168.169-.267.182A5.772,5.772,0,0,1-4.063,0l.34-.917c.361-.98.742-1.954,1.073-2.944.149-.447.485-.27.766-.312a.4.4,0,0,1,.5.32C-.971-2.687-.533-1.527-.1-.364c.037.1.06.208.1.364M-2.022-3.143l-.591,1.666h1.18l-.589-1.666" fill="#fff"/>
      </g>
      <g id="Group_28456" data-name="Group 28456" transform="translate(89.132 -25.099)">
        <path id="Path_25909" data-name="Path 25909" d="M0,0C-.224,0-.394-.012-.562,0c-.261.023-.45-.037-.485-.324-.051-.4-.3-.517-.685-.461a1.751,1.751,0,0,1-.428,0c-.48-.053-.869,0-.949.583-.01.078-.2.17-.312.189A4.148,4.148,0,0,1-4.06,0c.048-.173.075-.305.121-.43.42-1.135.867-2.262,1.252-3.408.13-.387.379-.331.657-.336s.5-.025.618.33C-.973-2.572-.487-1.314,0,0M-2.052-3.135l-.586,1.66h1.182c-.192-.536-.371-1.035-.6-1.66" fill="#fff"/>
      </g>
      <g id="Group_28457" data-name="Group 28457" transform="translate(137.034 -25.099)">
        <path id="Path_25910" data-name="Path 25910" d="M0,0A3.629,3.629,0,0,0-.452,0c-.35.05-.584-.061-.634-.42-.044-.322-.242-.395-.539-.365a2.593,2.593,0,0,1-.557,0c-.47-.054-.837.008-.922.565-.014.087-.213.184-.34.208A3.878,3.878,0,0,1-4.092,0c.526-1.423,1.032-2.79,1.533-4.144.994-.092.994-.092,1.319.787C-.835-2.262-.431-1.166,0,0M-2.051-3.133l-.586,1.66h1.183c-.192-.535-.372-1.034-.6-1.66" fill="#fff"/>
      </g>
      <g id="Group_28458" data-name="Group 28458" transform="translate(118.817 -26.465)">
        <path id="Path_25911" data-name="Path 25911" d="M0,0A2.077,2.077,0,0,1-2.474,1.37a2.039,2.039,0,0,1-1.717-2.2A2.051,2.051,0,0,1-2.355-2.819a1.994,1.994,0,0,1,2.3,1.313c-.455.006-.88.126-1.266-.311a1.045,1.045,0,0,0-1.274-.124,1.241,1.241,0,0,0-.7,1.24A1.208,1.208,0,0,0-2.534.544,1.3,1.3,0,0,0-1.06.2C-.862.013-.417.069,0,0" fill="#fff"/>
      </g>
      <g id="Group_28459" data-name="Group 28459" transform="translate(98.594 -26.462)">
        <path id="Path_25912" data-name="Path 25912" d="M0,0A1.969,1.969,0,0,1-2.188,1.409,2.064,2.064,0,0,1-4.151-.724,2.056,2.056,0,0,1-2.3-2.822,1.975,1.975,0,0,1-.01-1.5c-.456,0-.9.126-1.268-.328A1.1,1.1,0,0,0-2.6-1.92,1.288,1.288,0,0,0-3.248-.61,1.189,1.189,0,0,0-2.441.562,1.3,1.3,0,0,0-1.01.189C-.827,0-.385.062,0,0" fill="#fff"/>
      </g>
      <g id="Group_28460" data-name="Group 28460" transform="translate(126.55 -29.219)">
        <path id="Path_25913" data-name="Path 25913" d="M0,0H.848c0,1,.068,1.984-.021,2.957a1.586,1.586,0,0,1-1.87,1.218,1.512,1.512,0,0,1-1.528-1.5c-.016-.886,0-1.772,0-2.679H-1.7c0,.857,0,1.689,0,2.521a.8.8,0,0,0,1.06.852A.746.746,0,0,0,0,2.521C0,1.689,0,.857,0,0" fill="#fff"/>
      </g>
      <g id="Group_28461" data-name="Group 28461" transform="translate(69.381 -27.95)">
        <path id="Path_25914" data-name="Path 25914" d="M0,0A4.7,4.7,0,0,1-.677-.008.773.773,0,0,1-1.1-.2a1.191,1.191,0,0,0-1-.381A1.146,1.146,0,0,0-3.137.164a1.46,1.46,0,0,0,.221,1.57,1.208,1.208,0,0,0,1.286.347.63.63,0,0,0,.37-.19c.309-.5.788-.315,1.223-.348A1.849,1.849,0,0,1-2.015,2.907,2.089,2.089,0,0,1-4.144,1.021a2.081,2.081,0,0,1,1.705-2.34A2.047,2.047,0,0,1,0,0" fill="#fff"/>
      </g>
      <g id="Group_28462" data-name="Group 28462" transform="translate(151.753 -26.28)">
        <path id="Path_25915" data-name="Path 25915" d="M0,0H.9c.12.359.361.6.759.5A.776.776,0,0,0,2.16.107C2.2-.024,2.009-.3,1.847-.4a4.15,4.15,0,0,0-.841-.29C.206-.952-.078-1.341.027-2.023a1.275,1.275,0,0,1,1.379-1c1-.025,1.54.352,1.632,1.179-.391-.063-.821.2-1.131-.3-.081-.13-.465-.14-.693-.1-.118.018-.308.295-.274.389a.9.9,0,0,0,.421.457c.314.155.671.227,1,.353a1.023,1.023,0,0,1,.742.971,1.123,1.123,0,0,1-.666,1.122A1.969,1.969,0,0,1,.554.971,1.057,1.057,0,0,1,0,0" fill="#fff"/>
      </g>
      <g id="Group_28463" data-name="Group 28463" transform="translate(61.214 -26.295)">
        <path id="Path_25916" data-name="Path 25916" d="M0,0A5.622,5.622,0,0,1,.668.008.414.414,0,0,1,.952.176a.577.577,0,0,0,.7.341c.19-.05.467-.22.482-.359a.693.693,0,0,0-.311-.546A5.576,5.576,0,0,0,.862-.724,1.047,1.047,0,0,1,0-1.9,1.174,1.174,0,0,1,.991-2.963a1.591,1.591,0,0,1,2.016.877,1.974,1.974,0,0,1,.031.264c-.4-.073-.825.2-1.132-.3-.08-.131-.465-.144-.693-.11-.12.018-.316.291-.283.385a.9.9,0,0,0,.415.461c.314.155.672.226,1,.354A1.031,1.031,0,0,1,3.1-.067a1.135,1.135,0,0,1-.7,1.143A1.952,1.952,0,0,1,.583,1.009,1.038,1.038,0,0,1,0,0" fill="#fff"/>
      </g>
      <g id="Group_28464" data-name="Group 28464" transform="translate(76.188 -26.701)">
        <path id="Path_25917" data-name="Path 25917" d="M0,0V1.568H-.845V-2.571A20.139,20.139,0,0,1,1.34-2.45a1.138,1.138,0,0,1,.915,1.28A1.24,1.24,0,0,1,1.073-.006C.737.027.4,0,0,0M.017-.652c.46-.074.969.168,1.241-.316a.71.71,0,0,0-.034-.649c-.309-.389-.775-.2-1.207-.22Z" fill="#fff"/>
      </g>
    </g>
    <g id="Group_28466" data-name="Group 28466" transform="translate(80.444 -28.557)">
      <path id="Path_25919" data-name="Path 25919" d="M0,0V1.008H1.379V1.7H0V2.761H1.575v.666H-.879v-4.1H1.569V0Z" fill="#fff"/>
    </g>
    <g id="Group_28467" data-name="Group 28467" transform="translate(113.532 -29.245)">
      <path id="Path_25920" data-name="Path 25920" d="M0,0V.689H-1.571V1.7H-.2v.681H-1.583V3.448H-.008v.665H-2.456V0Z" fill="#fff"/>
    </g>
    <g id="Group_28468" data-name="Group 28468" transform="translate(148.225 -29.251)">
      <path id="Path_25921" data-name="Path 25921" d="M0,0H2.441V.687H.881V1.7H2.258v.674H.878V3.459H2.445v.663H0Z" fill="#fff"/>
    </g>
    <g id="Group_28469" data-name="Group 28469" transform="translate(122.834 -29.214)">
      <path id="Path_25922" data-name="Path 25922" d="M0,0V.667H-1.116V4.089H-2V.68H-3.108V0Z" fill="#fff"/>
    </g>
    <g id="Group_28470" data-name="Group 28470" transform="translate(109.907 -29.225)">
      <path id="Path_25923" data-name="Path 25923" d="M0,0V.659H-1.1V4.093h-.871V.7H-3.094V0Z" fill="#fff"/>
    </g>
    <g id="Group_28471" data-name="Group 28471" transform="translate(138.138 -29.223)">
      <path id="Path_25924" data-name="Path 25924" d="M0,0H.852V3.451H2.224v.641H0Z" fill="#fff"/>
    </g>
    <g id="Group_28472" data-name="Group 28472" transform="translate(44.146 -25.765)">
      <path id="Path_25925" data-name="Path 25925" d="M0,0H1.359V.631h-2.2V-3.454H0Z" fill="#fff"/>
    </g>
    <path id="Path_25926" data-name="Path 25926" d="M205.58-45.048H210.1v-2H205.58Z" fill="#fff"/>
    <path id="Path_25927" data-name="Path 25927" d="M104.8-29.216h2v4.091h-2Z" fill="#fff"/>
    <path id="Path_25928" data-name="Path 25928" d="M156.021-29.215h2v4.082h-2Z" fill="#fff"/>
  </g>
</svg>
