<svg xmlns="http://www.w3.org/2000/svg" xmlns:xlink="http://www.w3.org/1999/xlink" width="155.502" height="56.727" viewBox="0 0 155.502 56.727">
  <defs>
    <clipPath id="clip-path">
      <path id="Path_25754" data-name="Path 25754" d="M0,13.273H155.5V-43.453H0Z" transform="translate(0 43.453)" fill="none"/>
    </clipPath>
  </defs>
  <g id="Group_28260" data-name="Group 28260" transform="translate(0 43.453)">
    <g id="Group_28228" data-name="Group 28228" transform="translate(0 -43.453)" clip-path="url(#clip-path)">
      <g id="Group_28227" data-name="Group 28227" transform="translate(23.89 6.028)">
        <path id="Path_25753" data-name="Path 25753" d="M1.194.661A.8.8,0,0,0,1.045.283.844.844,0,0,0,.772.054,1.624,1.624,0,0,0,.018-.107,1.465,1.465,0,0,0-.688.022.415.415,0,0,0-.912.4.486.486,0,0,0-.688.81a2.24,2.24,0,0,0,.582.285,7.837,7.837,0,0,0,.817.23c.305.07.619.15.941.242a8.018,8.018,0,0,1,.941.328,3.121,3.121,0,0,1,.817.5,2.361,2.361,0,0,1,.582.731,2.207,2.207,0,0,1,.223,1.034,2.827,2.827,0,0,1-.309,1.356,2.686,2.686,0,0,1-.86.953,4.059,4.059,0,0,1-1.32.57,6.938,6.938,0,0,1-1.684.192,5,5,0,0,1-1.6-.242,4.039,4.039,0,0,1-1.234-.65,3.074,3.074,0,0,1-.8-.948A2.588,2.588,0,0,1-3.909,4.24h2.8a.989.989,0,0,0,.483.706,1.308,1.308,0,0,0,.4.167A1.748,1.748,0,0,0,.2,5.17,1.968,1.968,0,0,0,1.088,5a.529.529,0,0,0,.329-.49A.562.562,0,0,0,1.039,4a5.258,5.258,0,0,0-.946-.322c-.38-.094-.794-.2-1.239-.309A5.224,5.224,0,0,1-2.386,2.89a2.816,2.816,0,0,1-.948-.83A2.286,2.286,0,0,1-3.711.686,2.577,2.577,0,0,1-3.419-.56a2.53,2.53,0,0,1,.8-.892,3.8,3.8,0,0,1,1.221-.533A6.324,6.324,0,0,1,.154-2.163a5.223,5.223,0,0,1,1.61.222,3.476,3.476,0,0,1,1.146.607,2.822,2.822,0,0,1,.725.9,3.323,3.323,0,0,1,.334,1.1Z" transform="translate(3.909 2.163)" fill="#fff"/>
      </g>
    </g>
    <g id="Group_28229" data-name="Group 28229" transform="translate(33.683 -37.191)">
      <path id="Path_25755" data-name="Path 25755" d="M0,2.087V-6.832H3.53L5.1-1.269,6.676-6.832h3.531V2.087H7.581V-.639l.037-1.386.149-1.611H7.741L6.119,2.087H4.087L2.465-3.636H2.44l.124,1.313L2.627-.935V2.087Z" transform="translate(0 6.832)" fill="#fff"/>
    </g>
    <g id="Group_28230" data-name="Group 28230" transform="translate(45.379 -37.191)">
      <path id="Path_25756" data-name="Path 25756" d="M0,2.087,3.2-6.832H6.168l3.2,8.919H6.453L6.107.911H3.2L2.862,2.087ZM4.658-4.144l-.9,3.2H5.6Z" transform="translate(0 6.832)" fill="#fff"/>
    </g>
    <g id="Group_28232" data-name="Group 28232" transform="translate(0 -43.453)" clip-path="url(#clip-path)">
      <g id="Group_28231" data-name="Group 28231" transform="translate(56.616 6.263)">
        <path id="Path_25757" data-name="Path 25757" d="M.684,1.359v3.11H-2.239V-4.45H1.972A9.539,9.539,0,0,1,3.843-4.3a3.469,3.469,0,0,1,1.219.465,1.739,1.739,0,0,1,.663.794,2.954,2.954,0,0,1,.2,1.127A2.616,2.616,0,0,1,5.565-.543,1.813,1.813,0,0,1,4.424.269c.231.091.443.18.632.266a1.263,1.263,0,0,1,.478.372,1.709,1.709,0,0,1,.3.65,4.446,4.446,0,0,1,.106,1.077v.731a3.71,3.71,0,0,0,.025.483.569.569,0,0,0,.087.266.233.233,0,0,0,.2.081v.273H3.286a2.281,2.281,0,0,1-.106-.557,9.819,9.819,0,0,1-.043-1,4.6,4.6,0,0,0-.05-.731A.907.907,0,0,0,2.871,1.7a.969.969,0,0,0-.478-.26,3.361,3.361,0,0,0-.817-.081ZM.684-.6H1.835A2.3,2.3,0,0,0,2.871-.783a.678.678,0,0,0,.352-.657.8.8,0,0,0-.328-.7,1.464,1.464,0,0,0-.849-.228H.684Z" transform="translate(2.239 4.45)" fill="#fff"/>
      </g>
    </g>
    <g id="Group_28233" data-name="Group 28233" transform="translate(66.081 -37.19)">
      <path id="Path_25759" data-name="Path 25759" d="M0,0H8.175V2.341H5.55V8.919H2.625V2.341H0Z" fill="#fff"/>
    </g>
    <g id="Group_28234" data-name="Group 28234" transform="translate(77.509 -37.19)">
      <path id="Path_25760" data-name="Path 25760" d="M1.965,1.29H1.99l1-5.512H5.818L3.6,4.7H.726L-.3-.482H-.326L-1.342,4.7H-4.216L-6.433-4.222h2.824l1,5.512h.025l1.065-5.512H.9Z" transform="translate(6.433 4.222)" fill="#fff"/>
    </g>
    <g id="Group_28236" data-name="Group 28236" transform="translate(0 -43.453)" clip-path="url(#clip-path)">
      <g id="Group_28235" data-name="Group 28235" transform="translate(104.104 6.263)">
        <path id="Path_25761" data-name="Path 25761" d="M.684,1.359v3.11H-2.239V-4.45H1.972A9.539,9.539,0,0,1,3.843-4.3a3.469,3.469,0,0,1,1.219.465,1.739,1.739,0,0,1,.663.794,2.954,2.954,0,0,1,.2,1.127A2.616,2.616,0,0,1,5.565-.543a1.814,1.814,0,0,1-1.14.812q.347.137.631.266a1.263,1.263,0,0,1,.478.372,1.729,1.729,0,0,1,.3.65,4.522,4.522,0,0,1,.1,1.077v.731a3.71,3.71,0,0,0,.025.483.569.569,0,0,0,.087.266.233.233,0,0,0,.2.081v.273H3.286a2.281,2.281,0,0,1-.106-.557,9.819,9.819,0,0,1-.043-1,4.6,4.6,0,0,0-.05-.731A.907.907,0,0,0,2.871,1.7a.963.963,0,0,0-.478-.26,3.353,3.353,0,0,0-.817-.081ZM.684-.6H1.835A2.3,2.3,0,0,0,2.871-.783a.678.678,0,0,0,.352-.657.8.8,0,0,0-.328-.7,1.464,1.464,0,0,0-.849-.228H.684Z" transform="translate(2.239 4.45)" fill="#fff"/>
      </g>
    </g>
    <g id="Group_28237" data-name="Group 28237" transform="translate(114.573 -37.191)">
      <path id="Path_25763" data-name="Path 25763" d="M0,2.087V-6.832H2.923V.006H6.937V2.087Z" transform="translate(0 6.832)" fill="#fff"/>
    </g>
    <g id="Group_28242" data-name="Group 28242" transform="translate(0 -43.453)" clip-path="url(#clip-path)">
      <g id="Group_28238" data-name="Group 28238" transform="translate(123.041 6.262)">
        <path id="Path_25764" data-name="Path 25764" d="M0,2.087V-6.832H3.914a6.824,6.824,0,0,1,1.939.255A3.886,3.886,0,0,1,7.321-5.8a3.376,3.376,0,0,1,.928,1.332,5.108,5.108,0,0,1,.322,1.907A6.042,6.042,0,0,1,8.237-.416a3.632,3.632,0,0,1-.954,1.437,3.763,3.763,0,0,1-1.492.812,7.014,7.014,0,0,1-1.952.253ZM2.923.006h.62A2.058,2.058,0,0,0,5.1-.564,2.587,2.587,0,0,0,5.649-2.4a4.733,4.733,0,0,0-.117-1.151,1.583,1.583,0,0,0-.379-.725,1.4,1.4,0,0,0-.675-.372,4.083,4.083,0,0,0-1-.106H2.923Z" transform="translate(0 6.832)" fill="#fff"/>
      </g>
      <g id="Group_28239" data-name="Group 28239" transform="translate(90.624 4.609)">
        <path id="Path_25765" data-name="Path 25765" d="M.584,1.409A3.539,3.539,0,0,0,1.975,4.224l.133-.693.936-4.888-.089,1L2.512,4.564l-.01.12L2.28,7.158a5.764,5.764,0,0,1-.805-.324A6.038,6.038,0,0,1,3.669-4.611l-.106.556L3.169-2A3.545,3.545,0,0,0,.584,1.409" transform="translate(1.911 4.611)" fill="#fff"/>
      </g>
      <g id="Group_28240" data-name="Group 28240" transform="translate(97.123 4.609)">
        <path id="Path_25766" data-name="Path 25766" d="M1.3,1.409A6.036,6.036,0,0,1-2.078,6.833h0a5.878,5.878,0,0,1-.8.324L-3.1,4.683l-.012-.121L-3.558-.36l-.087-.979.2,1.023.73,3.8.141.742A3.535,3.535,0,0,0-1.19,1.409,3.542,3.542,0,0,0-3.772-2l-.436-2.269-.064-.339A6.037,6.037,0,0,1,1.3,1.409" transform="translate(4.272 4.611)" fill="#fff"/>
      </g>
      <g id="Group_28241" data-name="Group 28241" transform="translate(96.037 4.999)">
        <path id="Path_25767" data-name="Path 25767" d="M.546,2.139.824,4.634c-.424.021-.856.031-1.291.031s-.886-.01-1.32-.031l.278-2.5.082-.727.629-5.6.082-.727L-.482-7l.234,2.089.082.727.629,5.6Z" transform="translate(1.787 7.003)" fill="#fff"/>
      </g>
    </g>
    <g id="Group_28243" data-name="Group 28243" transform="translate(95.172 -43.453)">
      <path id="Path_25769" data-name="Path 25769" d="M.349,0-1.143,3.846h.791l.7-1.807.7,1.807h.791Z" transform="translate(1.143)" fill="#fff"/>
    </g>
    <g id="Group_28245" data-name="Group 28245" transform="translate(0 -43.453)" clip-path="url(#clip-path)">
      <g id="Group_28244" data-name="Group 28244" transform="translate(0 21.807)">
        <path id="Path_25770" data-name="Path 25770" d="M3.924,0H-6.607c-4.846,0-6.239,1.567-6.239,6.47v7.021c0,4.9,1.393,6.47,6.239,6.47H3.924c4.758,0,6.238-1.567,6.238-6.47V6.47c0-4.9-1.479-6.47-6.238-6.47M6.245,13.521c0,1.973-.551,2.523-2.35,2.523h-10.5c-1.8,0-2.351-.551-2.351-2.523V6.5c0-1.973.61-2.553,2.351-2.553H3.9c1.74,0,2.35.581,2.35,2.553Z" transform="translate(12.846)" fill="#fff"/>
      </g>
    </g>
    <g id="Group_28246" data-name="Group 28246" transform="translate(26.429 -21.646)">
      <path id="Path_25772" data-name="Path 25772" d="M5.071,4.671V-15.29H1.3V-.842L-12.394-15.29H-16.6V4.671h3.743v-14.71L1.212,4.671Z" transform="translate(16.602 15.29)" fill="#fff"/>
    </g>
    <g id="Group_28247" data-name="Group 28247" transform="translate(51.495 -21.646)">
      <path id="Path_25773" data-name="Path 25773" d="M4.487,3.754H-10.774V-.714H4.053V-3.935H-10.774v-4.41H4.487V-12.29H-14.69V7.671H4.487Z" transform="translate(14.69 12.29)" fill="#fff"/>
    </g>
    <g id="Group_28249" data-name="Group 28249" transform="translate(0 -43.453)" clip-path="url(#clip-path)">
      <g id="Group_28248" data-name="Group 28248" transform="translate(82.712 21.807)">
        <path id="Path_25774" data-name="Path 25774" d="M5.4,1.514c0-4.875-1.422-6.47-6.266-6.47h-16.8V15h16.8C3.975,15,5.4,13.438,5.4,8.535ZM1.481,8.563c0,1.974-.581,2.525-2.35,2.525H-13.723v-12.1H-.869c1.711,0,2.35.581,2.35,2.553Z" transform="translate(17.668 4.956)" fill="#fff"/>
      </g>
    </g>
    <g id="Group_28250" data-name="Group 28250" transform="translate(106.616 -21.646)">
      <path id="Path_25776" data-name="Path 25776" d="M5.954,0H.528L-6.609,7.224-13.862,0h-5.454L-9.191,9.662l-10.3,10.3H-14.3l7.573-7.747,7.892,7.747H6.3L-4.143,9.893Z" transform="translate(19.491)" fill="#fff"/>
    </g>
    <g id="Group_28253" data-name="Group 28253" transform="translate(0 -43.453)" clip-path="url(#clip-path)">
      <g id="Group_28251" data-name="Group 28251" transform="translate(134.496 21.807)">
        <path id="Path_25777" data-name="Path 25777" d="M3.5,0H-11.468V19.961h3.916v-6.47H3.5c4.583,0,6.035-1.538,6.035-5.628v-1.8C9.538,1.45,8.087,0,3.5,0M5.651,7.892c0,1.422-.581,2.031-2.147,2.031H-7.552V3.945H3.5c1.567,0,2.147.552,2.147,2.119Z" transform="translate(11.468)" fill="#fff"/>
      </g>
      <g id="Group_28252" data-name="Group 28252" transform="translate(82.732 46.934)">
        <path id="Path_25778" data-name="Path 25778" d="M2.286.109A3.393,3.393,0,0,0,.313-.358H-4.953A2.79,2.79,0,0,0-6.668.125a2.3,2.3,0,0,0-.815,1.936V3c0,1.748,1.805,2.35,5.162,2.593A21.766,21.766,0,0,1,.223,5.9a2.654,2.654,0,0,1,.85.27l0,.845c0,.18-.141.4-.764.4l-5.266-.007a.733.733,0,0,1-.4-.089.328.328,0,0,1-.14-.309V6.229H-7.483v.779a2.18,2.18,0,0,0,.867,2,3.45,3.45,0,0,0,1.885.416l5.044.007a3.5,3.5,0,0,0,1.906-.426A2.175,2.175,0,0,0,3.1,7.015V6.156c0-1.736-1.6-2.3-5.4-2.585a18.994,18.994,0,0,1-2.249-.292,2.9,2.9,0,0,1-.9-.289L-5.462,3V2.061c0-.195.266-.4.509-.4l5.266.008c.572,0,.764.2.764.4V2.91H3.1V2.066A2.21,2.21,0,0,0,2.286.109" transform="translate(7.483 0.358)" fill="#fff"/>
      </g>
    </g>
    <g id="Group_28254" data-name="Group 28254" transform="translate(94.857 3.481)">
      <path id="Path_25780" data-name="Path 25780" d="M0,0V1.846H4.249V9.77H6.27V1.846h4.407V0Z" fill="#fff"/>
    </g>
    <g id="Group_28256" data-name="Group 28256" transform="translate(0 -43.453)" clip-path="url(#clip-path)">
      <g id="Group_28255" data-name="Group 28255" transform="translate(106.968 46.934)">
        <path id="Path_25781" data-name="Path 25781" d="M2.316,1.785A2.548,2.548,0,0,0,1.74-.166a2.95,2.95,0,0,0,.416-1.725v-1.38A2.44,2.44,0,0,0,1.3-5.359,2.936,2.936,0,0,0-.484-5.845h-7.1V3.908l2.021.018V.727H-.579A.5.5,0,0,1-.24.889a1.418,1.418,0,0,1,.376.924V3.925h2.18V3.476c0-.4,0-1,0-1.1,0-.317,0-.17,0-.589M.136-1.886a.576.576,0,0,1-.62.591H-5.561v-2.53H-.373a.583.583,0,0,1,.509.591Z" transform="translate(7.582 5.845)" fill="#fff"/>
      </g>
    </g>
    <g id="Group_28257" data-name="Group 28257" transform="translate(118.411 3.481)">
      <path id="Path_25783" data-name="Path 25783" d="M0,0V9.77H11.17V7.749H2.021V5.713h8.147V3.692H2.021V2.021h8.768V0Z" fill="#fff"/>
    </g>
    <g id="Group_28258" data-name="Group 28258" transform="translate(131.014 3.481)">
      <path id="Path_25784" data-name="Path 25784" d="M0,0V9.77H11.171V7.749H2.021V5.713H10.17V3.692H2.021V2.021H10.79V0Z" fill="#fff"/>
    </g>
    <g id="Group_28259" data-name="Group 28259" transform="translate(143.619 3.481)">
      <path id="Path_25785" data-name="Path 25785" d="M0,0V1.846H4.248V9.77H6.269V1.846h4.409V0Z" fill="#fff"/>
    </g>
  </g>
</svg>
