<svg xmlns="http://www.w3.org/2000/svg" xmlns:xlink="http://www.w3.org/1999/xlink" width="154.099" height="43.453" viewBox="0 0 154.099 43.453">
  <defs>
    <clipPath id="clip-path">
      <path id="Path_25729" data-name="Path 25729" d="M0,0H154.1V-43.453H0Z" fill="none"/>
    </clipPath>
  </defs>
  <g id="Group_28226" data-name="Group 28226" transform="translate(0 43.453)">
    <g id="Group_28202" data-name="Group 28202" clip-path="url(#clip-path)">
      <g id="Group_28201" data-name="Group 28201" transform="translate(6.182)">
        <path id="Path_25728" data-name="Path 25728" d="M0,0C-4.8,0-6.182-1.63-6.182-6.731v-7.3c0-5.1,1.38-6.731,6.182-6.731H10.437c4.715,0,6.181,1.63,6.181,6.731v7.3C16.618-1.63,15.152,0,10.437,0ZM12.737-14.005c0-2.053-.6-2.656-2.329-2.656H0c-1.725,0-2.329.6-2.329,2.656v7.3c0,2.053.546,2.626,2.329,2.626H10.408c1.782,0,2.329-.573,2.329-2.626Z" fill="#fff"/>
      </g>
    </g>
    <g id="Group_28203" data-name="Group 28203" transform="translate(43.931 -20.767)">
      <path id="Path_25730" data-name="Path 25730" d="M0,0V15.032L-13.571,0H-17.74V20.767h3.709V5.464l13.945,15.3H3.738V0Z" fill="#fff"/>
    </g>
    <g id="Group_28204" data-name="Group 28204" transform="translate(51.03 -20.767)">
      <path id="Path_25731" data-name="Path 25731" d="M0,0V20.767H19V16.691H3.882V12.044H18.574V8.693H3.882V4.105H19V0Z" fill="#fff"/>
    </g>
    <g id="Group_28206" data-name="Group 28206" clip-path="url(#clip-path)">
      <g id="Group_28205" data-name="Group 28205" transform="translate(81.965)">
        <path id="Path_25732" data-name="Path 25732" d="M0,0V-20.766H16.647c4.8,0,6.21,1.66,6.21,6.731v7.3c0,5.1-1.409,6.731-6.21,6.731ZM18.976-14.005c0-2.053-.632-2.656-2.329-2.656H3.91V-4.075H16.647c1.754,0,2.329-.573,2.329-2.626Z" fill="#fff"/>
      </g>
    </g>
    <g id="Group_28207" data-name="Group 28207" transform="translate(125.493 -20.767)">
      <path id="Path_25734" data-name="Path 25734" d="M0,0-7.073,7.516-14.26,0h-5.406L-9.632,10.051-19.839,20.767h5.147l7.5-8.06,7.821,8.06H5.721L-4.629,10.292,5.377,0Z" fill="#fff"/>
    </g>
    <g id="Group_28210" data-name="Group 28210" clip-path="url(#clip-path)">
      <g id="Group_28208" data-name="Group 28208" transform="translate(137.164 -6.731)">
        <path id="Path_25735" data-name="Path 25735" d="M0,0V6.731H-3.881V-14.036H10.954c4.543,0,5.981,1.51,5.981,6.309v1.871C16.935-1.6,15.5,0,10.954,0ZM13.082-7.727c0-1.63-.575-2.2-2.128-2.2H0v6.218H10.954c1.553,0,2.128-.634,2.128-2.113Z" fill="#fff"/>
      </g>
      <g id="Group_28209" data-name="Group 28209" transform="translate(28.731 -34.244)">
        <path id="Path_25736" data-name="Path 25736" d="M0,0A.856.856,0,0,0-.147-.393a.866.866,0,0,0-.27-.238A1.541,1.541,0,0,0-1.166-.8a1.389,1.389,0,0,0-.7.135.436.436,0,0,0-.221.393.515.515,0,0,0,.221.426,2.212,2.212,0,0,0,.577.3,7.467,7.467,0,0,0,.81.238c.3.074.614.157.933.252a7.817,7.817,0,0,1,.933.341A3.081,3.081,0,0,1,2.2,1.8a2.461,2.461,0,0,1,.577.76,2.387,2.387,0,0,1,.221,1.076,3.051,3.051,0,0,1-.307,1.411,2.732,2.732,0,0,1-.853.992A3.9,3.9,0,0,1,.528,6.63a6.572,6.572,0,0,1-1.669.2,4.746,4.746,0,0,1-1.584-.251A3.908,3.908,0,0,1-3.946,5.9a3.145,3.145,0,0,1-.8-.986,2.8,2.8,0,0,1-.313-1.192h2.774a1.03,1.03,0,0,0,.479.735,1.282,1.282,0,0,0,.392.174,1.727,1.727,0,0,0,.43.058A1.872,1.872,0,0,0-.1,4.517a.55.55,0,0,0,.325-.509.583.583,0,0,0-.374-.535,5.007,5.007,0,0,0-.939-.335L-2.32,2.816a5.072,5.072,0,0,1-1.227-.5,2.832,2.832,0,0,1-.939-.864A2.464,2.464,0,0,1-4.861.026a2.78,2.78,0,0,1,.289-1.3,2.58,2.58,0,0,1,.8-.928,3.635,3.635,0,0,1,1.209-.554,5.91,5.91,0,0,1,1.534-.187,4.912,4.912,0,0,1,1.6.232A3.384,3.384,0,0,1,1.7-2.075a2.878,2.878,0,0,1,.718.935A3.6,3.6,0,0,1,2.75,0Z" fill="#fff"/>
      </g>
    </g>
    <g id="Group_28211" data-name="Group 28211" transform="translate(33.379 -27.659)">
      <path id="Path_25738" data-name="Path 25738" d="M0,0V-9.278H3.5L5.057-3.492,6.616-9.278h3.5V0h-2.6V-2.835l.037-1.443L7.7-5.954H7.672L6.064,0H4.051L2.443-5.954H2.418l.123,1.366L2.6-3.144V0Z" fill="#fff"/>
    </g>
    <g id="Group_28212" data-name="Group 28212" transform="translate(44.969 -27.659)">
      <path id="Path_25739" data-name="Path 25739" d="M0,0,3.167-9.278H6.113L9.28,0H6.395L6.052-1.224H3.167L2.835,0ZM4.615-6.482l-.9,3.325H5.548Z" fill="#fff"/>
    </g>
    <g id="Group_28214" data-name="Group 28214" clip-path="url(#clip-path)">
      <g id="Group_28213" data-name="Group 28213" transform="translate(59.001 -30.894)">
        <path id="Path_25740" data-name="Path 25740" d="M0,0V3.234H-2.9V-6.044H1.277a9.02,9.02,0,0,1,1.853.161A3.341,3.341,0,0,1,4.339-5.4,1.785,1.785,0,0,1,5-4.575a3.21,3.21,0,0,1,.2,1.173,2.829,2.829,0,0,1-.355,1.424,1.8,1.8,0,0,1-1.13.844q.344.142.626.277a1.276,1.276,0,0,1,.473.387A1.827,1.827,0,0,1,5.1.206,4.838,4.838,0,0,1,5.2,1.327v.761a4.231,4.231,0,0,0,.024.5.617.617,0,0,0,.086.277.227.227,0,0,0,.2.084v.283H2.578a2.466,2.466,0,0,1-.1-.579q-.044-.426-.043-1.044A5.07,5.07,0,0,0,2.382.85a.963.963,0,0,0-.215-.5.956.956,0,0,0-.473-.27A3.165,3.165,0,0,0,.884,0ZM0-2.036H1.142a2.165,2.165,0,0,0,1.025-.193.714.714,0,0,0,.35-.683.846.846,0,0,0-.326-.729,1.394,1.394,0,0,0-.841-.238H0Z" fill="#fff"/>
      </g>
    </g>
    <g id="Group_28215" data-name="Group 28215" transform="translate(65.485 -36.938)">
      <path id="Path_25742" data-name="Path 25742" d="M0,0H8.1V2.436H5.5V9.278H2.6V2.436H0Z" fill="#fff"/>
    </g>
    <g id="Group_28216" data-name="Group 28216" transform="translate(85.132 -31.203)">
      <path id="Path_25743" data-name="Path 25743" d="M0,0H.025l.994-5.734h2.8L1.62,3.544H-1.228L-2.246-1.843h-.025L-3.277,3.544H-6.125l-2.2-9.278h2.8L-4.53,0h.025l1.056-5.734h2.393Z" fill="#fff"/>
    </g>
    <g id="Group_28218" data-name="Group 28218" clip-path="url(#clip-path)">
      <g id="Group_28217" data-name="Group 28217" transform="translate(106.061 -30.894)">
        <path id="Path_25744" data-name="Path 25744" d="M0,0V3.234H-2.9V-6.044H1.277a9.02,9.02,0,0,1,1.853.161A3.341,3.341,0,0,1,4.339-5.4,1.785,1.785,0,0,1,5-4.575a3.21,3.21,0,0,1,.2,1.173,2.819,2.819,0,0,1-.356,1.424,1.8,1.8,0,0,1-1.129.844q.344.142.626.277a1.276,1.276,0,0,1,.473.387A1.827,1.827,0,0,1,5.1.206,4.838,4.838,0,0,1,5.2,1.327v.761a4.231,4.231,0,0,0,.024.5.617.617,0,0,0,.086.277.226.226,0,0,0,.2.084v.283H2.578a2.466,2.466,0,0,1-.1-.579q-.044-.426-.043-1.044A4.927,4.927,0,0,0,2.381.85a.954.954,0,0,0-.214-.5.956.956,0,0,0-.473-.27A3.165,3.165,0,0,0,.884,0ZM0-2.036H1.142a2.167,2.167,0,0,0,1.025-.193.713.713,0,0,0,.349-.683.845.845,0,0,0-.325-.729,1.394,1.394,0,0,0-.841-.238H0Z" fill="#fff"/>
      </g>
    </g>
    <g id="Group_28219" data-name="Group 28219" transform="translate(113.54 -27.659)">
      <path id="Path_25746" data-name="Path 25746" d="M0,0V-9.278H2.9v7.113H6.874V0Z" fill="#fff"/>
    </g>
    <g id="Group_28224" data-name="Group 28224" clip-path="url(#clip-path)">
      <g id="Group_28220" data-name="Group 28220" transform="translate(121.931 -27.659)">
        <path id="Path_25747" data-name="Path 25747" d="M0,0V-9.278H3.879A6.489,6.489,0,0,1,5.8-9.014,3.792,3.792,0,0,1,7.255-8.2a3.557,3.557,0,0,1,.92,1.385,5.567,5.567,0,0,1,.319,1.984A6.581,6.581,0,0,1,8.163-2.6a3.8,3.8,0,0,1-.945,1.495,3.7,3.7,0,0,1-1.479.844A6.617,6.617,0,0,1,3.805,0ZM2.9-2.165H3.51a1.984,1.984,0,0,0,1.547-.593A2.783,2.783,0,0,0,5.6-4.665a5.2,5.2,0,0,0-.116-1.2,1.668,1.668,0,0,0-.375-.754A1.367,1.367,0,0,0,4.437-7a3.88,3.88,0,0,0-.988-.109H2.9Z" fill="#fff"/>
      </g>
      <g id="Group_28221" data-name="Group 28221" transform="translate(92.278 -32.396)">
        <path id="Path_25748" data-name="Path 25748" d="M0,0A3.748,3.748,0,0,0,1.379,2.929l.132-.721.928-5.085L2.35-1.841,1.911,3.283,1.9,3.407,1.68,5.981a5.6,5.6,0,0,1-.8-.337A6.316,6.316,0,0,1-2.471,0,6.165,6.165,0,0,1,3.057-6.263l-.105.579L2.562-3.55A3.665,3.665,0,0,0,0,0" fill="#fff"/>
      </g>
      <g id="Group_28222" data-name="Group 28222" transform="translate(101.773 -32.396)">
        <path id="Path_25749" data-name="Path 25749" d="M0,0A6.313,6.313,0,0,1-3.352,5.643h0a5.614,5.614,0,0,1-.794.337l-.221-2.574-.01-.126-.44-5.12-.088-1.019.2,1.065.722,3.949.141.772A3.745,3.745,0,0,0-2.471,0a3.664,3.664,0,0,0-2.56-3.549l-.432-2.36-.064-.354A6.166,6.166,0,0,1,0,0" fill="#fff"/>
      </g>
      <g id="Group_28223" data-name="Group 28223" transform="translate(96.957 -28.742)">
        <path id="Path_25750" data-name="Path 25750" d="M0,0,.213,2.6c-.325.022-.656.032-.989.032s-.679-.011-1.011-.033L-1.574,0l.063-.756.482-5.822.063-.757.179-2.173.179,2.173.063.756L-.063-.757Z" fill="#fff"/>
      </g>
    </g>
    <g id="Group_28225" data-name="Group 28225" transform="translate(95.792 -43.453)">
      <path id="Path_25752" data-name="Path 25752" d="M0,0-1.479,4h.784L0,2.121.695,4h.784Z" fill="#fff"/>
    </g>
  </g>
</svg>
