<svg xmlns="http://www.w3.org/2000/svg" xmlns:xlink="http://www.w3.org/1999/xlink" width="179.681" height="43.453" viewBox="0 0 179.681 43.453">
  <defs>
    <clipPath id="clip-path">
      <path id="Path_25698" data-name="Path 25698" d="M0,0H179.681V-43.453H0Z" fill="none"/>
    </clipPath>
  </defs>
  <g id="Group_28200" data-name="Group 28200" transform="translate(0 43.453)">
    <g id="Group_28170" data-name="Group 28170" clip-path="url(#clip-path)">
      <g id="Group_28169" data-name="Group 28169" transform="translate(24.212 -31.387)">
        <path id="Path_25697" data-name="Path 25697" d="M0,0A1.1,1.1,0,0,0-.2-.515,1.165,1.165,0,0,0-.574-.827,2.2,2.2,0,0,0-1.6-1.047a1.988,1.988,0,0,0-.962.177.566.566,0,0,0-.3.515.664.664,0,0,0,.3.558,3.067,3.067,0,0,0,.793.388A10.7,10.7,0,0,0-.658.9q.624.144,1.282.33a11.309,11.309,0,0,1,1.283.447,4.3,4.3,0,0,1,1.113.675,3.263,3.263,0,0,1,.793,1,3.009,3.009,0,0,1,.3,1.41A3.849,3.849,0,0,1,3.695,6.61a3.656,3.656,0,0,1-1.173,1.3,5.5,5.5,0,0,1-1.8.776,9.416,9.416,0,0,1-2.294.262A6.81,6.81,0,0,1-3.746,8.62a5.477,5.477,0,0,1-1.679-.887,4.2,4.2,0,0,1-1.1-1.291,3.567,3.567,0,0,1-.43-1.562h3.814a1.344,1.344,0,0,0,.658.962,1.776,1.776,0,0,0,.54.228,2.407,2.407,0,0,0,.59.076A2.684,2.684,0,0,0-.143,5.918.721.721,0,0,0,.3,5.251a.766.766,0,0,0-.515-.7A7.042,7.042,0,0,0-1.5,4.111l-1.687-.422a7.1,7.1,0,0,1-1.687-.65A3.829,3.829,0,0,1-6.167,1.908,3.121,3.121,0,0,1-6.682.034a3.51,3.51,0,0,1,.4-1.7,3.434,3.434,0,0,1,1.1-1.216,5.145,5.145,0,0,1,1.662-.726,8.563,8.563,0,0,1,2.11-.245,7.091,7.091,0,0,1,2.193.3,4.753,4.753,0,0,1,1.561.827,3.82,3.82,0,0,1,.987,1.225A4.583,4.583,0,0,1,3.78,0Z" fill="#fff"/>
      </g>
    </g>
    <g id="Group_28171" data-name="Group 28171" transform="translate(30.601 -22.759)">
      <path id="Path_25699" data-name="Path 25699" d="M0,0V-12.157H4.809L6.952-4.576,9.1-12.157H13.9V0H10.327V-3.715l.05-1.891.2-2.2h-.034L8.335,0H5.568L3.358-7.8H3.324l.169,1.79L3.577-4.12V0Z" fill="#fff"/>
    </g>
    <g id="Group_28172" data-name="Group 28172" transform="translate(46.533 -22.759)">
      <path id="Path_25700" data-name="Path 25700" d="M0,0,4.353-12.157H8.4L12.756,0H8.791L8.319-1.6H4.353L3.9,0ZM6.344-8.493,5.113-4.137H7.627Z" fill="#fff"/>
    </g>
    <g id="Group_28174" data-name="Group 28174" clip-path="url(#clip-path)">
      <g id="Group_28173" data-name="Group 28173" transform="translate(65.821 -26.997)">
        <path id="Path_25701" data-name="Path 25701" d="M0,0V4.238H-3.982V-7.919H1.755A12.944,12.944,0,0,1,4.3-7.708a4.7,4.7,0,0,1,1.662.633,2.366,2.366,0,0,1,.9,1.081,4.029,4.029,0,0,1,.27,1.536,3.569,3.569,0,0,1-.489,1.866A2.462,2.462,0,0,1,5.1-1.486q.472.186.86.363a1.74,1.74,0,0,1,.65.507A2.368,2.368,0,0,1,7.011.27a6.125,6.125,0,0,1,.143,1.469v1a5.091,5.091,0,0,0,.034.659.776.776,0,0,0,.118.363.319.319,0,0,0,.27.11v.371H3.543a3.142,3.142,0,0,1-.143-.76,13.106,13.106,0,0,1-.059-1.367,6.209,6.209,0,0,0-.068-1,1.225,1.225,0,0,0-.3-.65A1.318,1.318,0,0,0,2.328.11,4.571,4.571,0,0,0,1.215,0ZM0-2.668H1.569a3.1,3.1,0,0,0,1.409-.253.923.923,0,0,0,.481-.895,1.084,1.084,0,0,0-.447-.954,1.978,1.978,0,0,0-1.156-.312H0Z" fill="#fff"/>
      </g>
    </g>
    <g id="Group_28175" data-name="Group 28175" transform="translate(74.733 -34.916)">
      <path id="Path_25703" data-name="Path 25703" d="M0,0H11.136V3.191H7.559v8.966H3.577V3.191H0Z" fill="#fff"/>
    </g>
    <g id="Group_28176" data-name="Group 28176" transform="translate(101.74 -27.402)">
      <path id="Path_25704" data-name="Path 25704" d="M0,0H.034L1.4-7.514H5.248L2.227,4.643H-1.687l-1.4-7.058h-.034L-4.505,4.643H-8.42L-11.44-7.514h3.847L-6.226,0h.033l1.452-7.514h3.29Z" fill="#fff"/>
    </g>
    <g id="Group_28178" data-name="Group 28178" clip-path="url(#clip-path)">
      <g id="Group_28177" data-name="Group 28177" transform="translate(130.509 -26.997)">
        <path id="Path_25705" data-name="Path 25705" d="M0,0V4.238H-3.982V-7.919H1.755A12.944,12.944,0,0,1,4.3-7.708a4.7,4.7,0,0,1,1.662.633,2.36,2.36,0,0,1,.9,1.081,4.029,4.029,0,0,1,.27,1.536,3.569,3.569,0,0,1-.489,1.866A2.462,2.462,0,0,1,5.1-1.486q.472.186.86.363a1.74,1.74,0,0,1,.65.507A2.368,2.368,0,0,1,7.011.27a6.125,6.125,0,0,1,.143,1.469v1a5.091,5.091,0,0,0,.034.659.776.776,0,0,0,.118.363.319.319,0,0,0,.27.11v.371H3.543a3.142,3.142,0,0,1-.143-.76,13.106,13.106,0,0,1-.059-1.367,6.209,6.209,0,0,0-.068-1,1.225,1.225,0,0,0-.3-.65A1.318,1.318,0,0,0,2.328.11,4.571,4.571,0,0,0,1.215,0ZM0-2.668H1.569a3.1,3.1,0,0,0,1.409-.253.923.923,0,0,0,.481-.895,1.084,1.084,0,0,0-.447-.954,1.978,1.978,0,0,0-1.156-.312H0Z" fill="#fff"/>
      </g>
    </g>
    <g id="Group_28179" data-name="Group 28179" transform="translate(140.789 -22.759)">
      <path id="Path_25707" data-name="Path 25707" d="M0,0V-12.157H3.982v9.32H9.449V0Z" fill="#fff"/>
    </g>
    <g id="Group_28184" data-name="Group 28184" clip-path="url(#clip-path)">
      <g id="Group_28180" data-name="Group 28180" transform="translate(152.324 -22.759)">
        <path id="Path_25708" data-name="Path 25708" d="M0,0V-12.157H5.332a9.315,9.315,0,0,1,2.641.346,5.3,5.3,0,0,1,2,1.064,4.638,4.638,0,0,1,1.266,1.815,7,7,0,0,1,.438,2.6,8.247,8.247,0,0,1-.455,2.921,4.952,4.952,0,0,1-1.3,1.959A5.147,5.147,0,0,1,7.888-.346,9.491,9.491,0,0,1,5.231,0ZM3.982-2.837h.844a2.8,2.8,0,0,0,2.126-.776,3.53,3.53,0,0,0,.742-2.5,6.452,6.452,0,0,0-.16-1.571,2.139,2.139,0,0,0-.515-.987A1.913,1.913,0,0,0,6.1-9.177,5.626,5.626,0,0,0,4.741-9.32H3.982Z" fill="#fff"/>
      </g>
      <g id="Group_28181" data-name="Group 28181" transform="translate(111.563 -28.965)">
        <path id="Path_25709" data-name="Path 25709" d="M0,0A4.823,4.823,0,0,0,1.9,3.838l.181-.945L3.353-3.77,3.23-2.412,2.627,4.3l-.015.164-.3,3.372a8.039,8.039,0,0,1-1.1-.441A8.232,8.232,0,0,1-3.4,0,8.227,8.227,0,0,1,4.2-8.206l-.146.759-.535,2.8A4.831,4.831,0,0,0,0,0" fill="#fff"/>
      </g>
      <g id="Group_28182" data-name="Group 28182" transform="translate(124.616 -28.965)">
        <path id="Path_25710" data-name="Path 25710" d="M0,0A8.228,8.228,0,0,1-4.608,7.394v0A7.942,7.942,0,0,1-5.7,7.836L-6,4.462-6.019,4.3l-.6-6.709-.12-1.335.267,1.395.993,5.175.193,1.011A4.819,4.819,0,0,0-3.4,0,4.83,4.83,0,0,0-6.916-4.65l-.593-3.092L-7.6-8.206A8.228,8.228,0,0,1,0,0" fill="#fff"/>
      </g>
      <g id="Group_28183" data-name="Group 28183" transform="translate(117.326 -24.177)">
        <path id="Path_25711" data-name="Path 25711" d="M0,0,.213,3.4c-.325.029-.656.043-.989.043s-.679-.015-1.011-.044L-1.574,0-1.511-1l.482-7.628.063-.992.179-2.847.179,2.847.063.991L-.063-.992Z" fill="#fff"/>
      </g>
    </g>
    <g id="Group_28185" data-name="Group 28185" transform="translate(116.393 -43.453)">
      <path id="Path_25713" data-name="Path 25713" d="M0,0-2.032,5.242H-.954L0,2.78.955,5.242H2.033Z" fill="#fff"/>
    </g>
    <g id="Group_28199" data-name="Group 28199" clip-path="url(#clip-path)">
      <g id="Group_28186" data-name="Group 28186" transform="translate(10.873 -15.975)">
        <path id="Path_25714" data-name="Path 25714" d="M0,0A8.119,8.119,0,0,0-3.755-.826,8.089,8.089,0,0,0-7.518,0,5.948,5.948,0,0,0-10,2.36a7.1,7.1,0,0,0-.878,3.594A7.112,7.112,0,0,0-10,9.554a5.906,5.906,0,0,0,2.478,2.355,8.09,8.09,0,0,0,3.763.831A8.12,8.12,0,0,0,0,11.909,5.92,5.92,0,0,0,2.486,9.554a7.112,7.112,0,0,0,.877-3.6A7.094,7.094,0,0,0,2.486,2.36,5.962,5.962,0,0,0,0,0M.279,9.178a4.818,4.818,0,0,1-1.6,2.109,4.07,4.07,0,0,1-2.43.745,4.075,4.075,0,0,1-2.433-.745,4.813,4.813,0,0,1-1.6-2.109,8.281,8.281,0,0,1-.569-3.224A8.305,8.305,0,0,1-7.789,2.73a4.763,4.763,0,0,1,1.6-2.1A4.035,4.035,0,0,1-3.755-.118a4.03,4.03,0,0,1,2.43.746,4.768,4.768,0,0,1,1.6,2.1A8.361,8.361,0,0,1,.848,5.954,8.336,8.336,0,0,1,.279,9.178" fill="#fff"/>
      </g>
      <g id="Group_28187" data-name="Group 28187" transform="translate(26.795 -4.232)">
        <path id="Path_25715" data-name="Path 25715" d="M0,0A7.365,7.365,0,0,1-.671-.772c-.225-.29-.442-.574-.651-.869s-.389-.548-.531-.762-.234-.36-.271-.419a5.324,5.324,0,0,0-.735-.917A2.441,2.441,0,0,0-3.8-4.372a3,3,0,0,0,1.489-.569,2.836,2.836,0,0,0,.9-1.115,3.264,3.264,0,0,0,.3-1.352,2.893,2.893,0,0,0-.308-1.4,2.539,2.539,0,0,0-.856-.944,3.922,3.922,0,0,0-1.268-.531,6.67,6.67,0,0,0-1.537-.166h-5.364v.187h.241a.956.956,0,0,1,.7.279.966.966,0,0,1,.29.563V-.3a.986.986,0,0,1-.29.558.963.963,0,0,1-.716.29h-.222V.735h4.693L-5.777.547h-.2A1.038,1.038,0,0,1-6.689.268.961.961,0,0,1-7.025-.44v-9.3l.483-.011c.274-.005.59,0,.952.011a2.964,2.964,0,0,1,.708.128,2.208,2.208,0,0,1,.69.355,1.793,1.793,0,0,1,.52.659,2.6,2.6,0,0,1,.225,1.057,2.856,2.856,0,0,1-.01.5,1.717,1.717,0,0,1-.084.371,2.485,2.485,0,0,1-.541,1.153,1.629,1.629,0,0,1-.792.488,4.1,4.1,0,0,1-.866.129c-.185.011-.34.016-.464.011l-.206-.011v.166a1.315,1.315,0,0,1,.727.317,2.513,2.513,0,0,1,.651.858,3.3,3.3,0,0,0,.242.531c.126.231.263.472.41.729s.3.5.44.735.257.424.343.558a4.558,4.558,0,0,0,.867.971A3.076,3.076,0,0,0-1.566.547a6.607,6.607,0,0,0,1.7.188H1.36V.547A1.977,1.977,0,0,1,.625.418,1.893,1.893,0,0,1,0,0" fill="#fff"/>
      </g>
      <g id="Group_28188" data-name="Group 28188" transform="translate(139.997 -4.449)">
        <path id="Path_25716" data-name="Path 25716" d="M0,0A8.378,8.378,0,0,1-.768-.884c-.258-.332-.506-.657-.746-.995s-.445-.626-.608-.872-.267-.411-.31-.479a5.96,5.96,0,0,0-.841-1.05,2.8,2.8,0,0,0-1.078-.725,3.435,3.435,0,0,0,1.7-.651A3.244,3.244,0,0,0-1.621-6.933,3.726,3.726,0,0,0-1.28-8.48a3.321,3.321,0,0,0-.353-1.6,2.918,2.918,0,0,0-.98-1.081,4.486,4.486,0,0,0-1.452-.608,7.651,7.651,0,0,0-1.759-.19h-6.141v.215h.276a1.092,1.092,0,0,1,.8.319,1.1,1.1,0,0,1,.332.644V-.344a1.134,1.134,0,0,1-.332.639,1.107,1.107,0,0,1-.819.331h-.255V.841h5.373L-6.614.626h-.233a1.186,1.186,0,0,1-.81-.319A1.1,1.1,0,0,1-8.041-.5V-11.146c.081,0,.264-.006.552-.012.314-.006.676,0,1.09.013A3.373,3.373,0,0,1-5.588-11a2.517,2.517,0,0,1,.789.4,2.061,2.061,0,0,1,.6.756,3.006,3.006,0,0,1,.258,1.209,3.185,3.185,0,0,1-.013.577,1.937,1.937,0,0,1-.1.424,2.842,2.842,0,0,1-.62,1.32,1.862,1.862,0,0,1-.906.559,4.705,4.705,0,0,1-.992.148c-.211.012-.39.018-.531.012S-7.323-5.6-7.338-5.6v.19a1.507,1.507,0,0,1,.832.362,2.894,2.894,0,0,1,.746.983,3.765,3.765,0,0,0,.276.608c.145.264.3.54.47.835s.338.571.5.841.294.485.393.639A5.211,5.211,0,0,0-3.126-.031,3.544,3.544,0,0,0-1.793.626,7.572,7.572,0,0,0,.151.841H1.557V.626A2.281,2.281,0,0,1,.715.479,2.185,2.185,0,0,1,0,0" fill="#fff"/>
      </g>
      <g id="Group_28189" data-name="Group 28189" transform="translate(39.725 -8.175)">
        <path id="Path_25717" data-name="Path 25717" d="M0,0A6.179,6.179,0,0,1-.754,2.452,3.331,3.331,0,0,1-2.282,3.819a5.542,5.542,0,0,1-2.3.43,4.151,4.151,0,0,1-2.245-.671,4.021,4.021,0,0,1-1.443-1.8,6.846,6.846,0,0,1-.5-2.73,6.875,6.875,0,0,1,.494-2.7A3.952,3.952,0,0,1-6.829-5.439a4.18,4.18,0,0,1,2.358-.633,4.663,4.663,0,0,1,2.58.7A3.874,3.874,0,0,1-.354-2.961H-.2l-.15-2.832a7.329,7.329,0,0,0-1.88-.692,10.429,10.429,0,0,0-2.35-.258,8.108,8.108,0,0,0-3.5.7,5.106,5.106,0,0,0-2.253,2,5.969,5.969,0,0,0-.783,3.133,5.9,5.9,0,0,0,.791,3.127,5.061,5.061,0,0,0,2.264,2,8.293,8.293,0,0,0,3.484.708A7.367,7.367,0,0,0-2.468,4.64a5.376,5.376,0,0,0,1.62-.772A4.149,4.149,0,0,0,.244,2.72L.169,0Z" fill="#fff"/>
      </g>
      <g id="Group_28190" data-name="Group 28190" transform="translate(53.383 -14.677)">
        <path id="Path_25718" data-name="Path 25718" d="M0,0H-3.39V.188h.2a1.013,1.013,0,0,1,.737.279.991.991,0,0,1,.306.708V5.289H-7.7V1.175A.9.9,0,0,1-7.387.467,1.042,1.042,0,0,1-6.652.188h.207V0h-4.7V.188h.223a1.015,1.015,0,0,1,.727.279.917.917,0,0,1,.3.708v8.83a.928.928,0,0,1-.3.7,1,1,0,0,1-.727.289h-.223v.188h4.7v-.188h-.207a1.029,1.029,0,0,1-.735-.289.911.911,0,0,1-.308-.7V5.96h5.552v4.045a1.008,1.008,0,0,1-.306.7,1,1,0,0,1-.737.289h-.2v.188h4.7v-.188H1.081A1.006,1.006,0,0,1,.354,10.7a1,1,0,0,1-.316-.7V1.175H.056a.918.918,0,0,1,.3-.708A1.018,1.018,0,0,1,1.081.188h.225V0H.038Z" fill="#fff"/>
      </g>
      <g id="Group_28191" data-name="Group 28191" transform="translate(67.751 -3.937)">
        <path id="Path_25719" data-name="Path 25719" d="M0,0A1.767,1.767,0,0,1-.656-.8l-4.858-10.37h-.169a2.114,2.114,0,0,1-.14.509c-.08.22-.172.445-.271.681s-.187.446-.268.617a2.236,2.236,0,0,0-.139.333l-3.817,8.2h-.006a1.763,1.763,0,0,1-.67.826,1.489,1.489,0,0,1-.8.252h-.151V.44h3.672V.252h-.15A.771.771,0,0,1-9-.027a.716.716,0,0,1-.056-.8H-9.06l.829-1.937h4.215L-3.2-.826h0a.716.716,0,0,1-.056.8.767.767,0,0,1-.577.279h-.15V.44H.933V.252H.783A1.468,1.468,0,0,1,0,0M-7.942-3.438l1.838-4.3,1.805,4.3Z" fill="#fff"/>
      </g>
      <g id="Group_28192" data-name="Group 28192" transform="translate(82.742 -2.409)">
        <path id="Path_25720" data-name="Path 25720" d="M0,0A10.634,10.634,0,0,1-1.172-1.1q-.526-.571-.96-1.126t-.837-1.062q-.4-.507-.644-.821T-4.2-4.817c-.23-.268-.5-.553-.8-.853a5.039,5.039,0,0,0-1.145-.821,1.542,1.542,0,0,0,.217.016,2.908,2.908,0,0,0,2.084-.879,3.03,3.03,0,0,0,.909-2.28,2.644,2.644,0,0,0-.936-2.173,5.08,5.08,0,0,0-3.345-.987h-5.734v.166h.217a1,1,0,0,1,.743.311,1.058,1.058,0,0,1,.327.741v9.285A1.032,1.032,0,0,1-12-1.556a1.048,1.048,0,0,1-.735.3h-.217v.166h5.083v-.166h-.218a1.034,1.034,0,0,1-.753-.311,1,1,0,0,1-.317-.746v-9.747h1.272a2.226,2.226,0,0,1,1.6.644,2.415,2.415,0,0,1,.671,1.829A2.317,2.317,0,0,1-6.7-7.36a3.276,3.276,0,0,1-1.575.386H-8.6v.167c.233.053.544.391.936,1q.333.466,1.472,2.172c.757,1.138,1.277,1.91,1.553,2.307A8.086,8.086,0,0,0-.711,2.006a6.686,6.686,0,0,0,2.374.4,6.119,6.119,0,0,0,2.776-.655V1.588A7.007,7.007,0,0,1,1.312.853,7.561,7.561,0,0,1,0,0" fill="#fff"/>
      </g>
      <g id="Group_28193" data-name="Group 28193" transform="translate(92.387 -14.006)">
        <path id="Path_25721" data-name="Path 25721" d="M0,0A7.736,7.736,0,0,0-3.355-.671H-9.634v.188h.222A1.082,1.082,0,0,1-8.655-.2.99.99,0,0,1-8.331.52V9.3a1.069,1.069,0,0,1-.316.719,1,1,0,0,1-.746.306h-.241v.188h6.279A7.736,7.736,0,0,0,0,9.838a4.948,4.948,0,0,0,2.151-1.92,5.674,5.674,0,0,0,.754-3,5.677,5.677,0,0,0-.754-3A4.948,4.948,0,0,0,0,0M-.531,8.524A3.667,3.667,0,0,1-3.506,9.838H-6.131V0h2.625A3.659,3.659,0,0,1-.523,1.314,5.5,5.5,0,0,1,.558,4.919,5.488,5.488,0,0,1-.531,8.524" fill="#fff"/>
      </g>
      <g id="Group_28194" data-name="Group 28194" transform="translate(110.224 -9.938)">
        <path id="Path_25722" data-name="Path 25722" d="M0,0-3.673-2.5a4.268,4.268,0,0,1-.661-.491,1.825,1.825,0,0,1-.417-.545,1.488,1.488,0,0,1-.138-.651,1.574,1.574,0,0,1,.7-1.27,2.806,2.806,0,0,1,1.708-.5A2.956,2.956,0,0,1-.534-5.4,1.852,1.852,0,0,1,.128-3.907H.32L.481-6.192h.01l.022-.363H-.5c-.146-.022-.3-.044-.464-.064-.341-.043-.694-.075-1.057-.1s-.708-.032-1.035-.032a4.267,4.267,0,0,0-1.869.395,3.28,3.28,0,0,0-1.312,1.11A3.288,3.288,0,0,0-6.79-3.566a3.31,3.31,0,0,0,.3,1.74A3.082,3.082,0,0,0-5.188-.47l3.437,2.392a3.067,3.067,0,0,1,1.015.854,1.734,1.734,0,0,1,.309,1,1.876,1.876,0,0,1-.662,1.463A2.886,2.886,0,0,1-3.01,5.85a3.705,3.705,0,0,1-1.847-.437A2.859,2.859,0,0,1-6.032,4.206a3.239,3.239,0,0,1-.331-1.729h-.213a5.088,5.088,0,0,0-.331.982,5.726,5.726,0,0,0-.16,1.132,2.658,2.658,0,0,0,.106.939,3.142,3.142,0,0,0,.94.587,5.887,5.887,0,0,0,1.345.374,9.536,9.536,0,0,0,1.58.128A5.746,5.746,0,0,0-.726,6.16a3.81,3.81,0,0,0,1.612-1.3A3.588,3.588,0,0,0,1.516,2.9a3.428,3.428,0,0,0-.384-1.719A2.983,2.983,0,0,0,0,0" fill="#fff"/>
      </g>
      <g id="Group_28195" data-name="Group 28195" transform="translate(124.402 -16.482)">
        <path id="Path_25723" data-name="Path 25723" d="M0,0A7.851,7.851,0,0,1-.9.053H-8.455A7.682,7.682,0,0,1-9.331,0a8.339,8.339,0,0,1-.854-.139,4.767,4.767,0,0,1-.555-.149V2.786h.214V2.53a1.674,1.674,0,0,1,.437-1.206A1.686,1.686,0,0,1-8.861.843h2.925v10.7a1.146,1.146,0,0,1-.363.8,1.149,1.149,0,0,1-.833.331h-.234v.214h5.38v-.214H-2.2a1.188,1.188,0,0,1-.844-.331,1.059,1.059,0,0,1-.352-.8V.843H-.47a1.686,1.686,0,0,1,1.228.481A1.6,1.6,0,0,1,1.174,2.53v.256h.235V-.288a3.51,3.51,0,0,1-.544.149Q.469-.054,0,0" fill="#fff"/>
      </g>
      <g id="Group_28196" data-name="Group 28196" transform="translate(152.265 -5.732)">
        <path id="Path_25724" data-name="Path 25724" d="M0,0A3.251,3.251,0,0,1-1.164.993a3.663,3.663,0,0,1-1.676.352H-5.594V-3.843h2.818a1.368,1.368,0,0,1,1.025.427,1.449,1.449,0,0,1,.363,1v.193h.214V-6.235h-.214v.192a1.45,1.45,0,0,1-.363,1,1.3,1.3,0,0,1-1.025.406H-5.594V-9.886h3.523a1.563,1.563,0,0,1,1.217.47A1.768,1.768,0,0,1-.427-8.178v.235h.235v-3.075a5.612,5.612,0,0,1-.982.225,8.115,8.115,0,0,1-1.324.117H-9.566v.214h.278a1.172,1.172,0,0,1,.833.32,1.138,1.138,0,0,1,.362.811V.79a1.154,1.154,0,0,1-.362.8,1.152,1.152,0,0,1-.833.331h-.278v.213H.021L.961-1.5H.769A5.7,5.7,0,0,1,0,0" fill="#fff"/>
      </g>
      <g id="Group_28197" data-name="Group 28197" transform="translate(164.905 -5.732)">
        <path id="Path_25725" data-name="Path 25725" d="M0,0A3.251,3.251,0,0,1-1.164.993a3.663,3.663,0,0,1-1.676.352H-5.594V-3.843h2.818a1.368,1.368,0,0,1,1.025.427,1.449,1.449,0,0,1,.363,1v.193h.214V-6.235h-.214v.192a1.45,1.45,0,0,1-.363,1,1.3,1.3,0,0,1-1.025.406H-5.594V-9.886h3.523a1.563,1.563,0,0,1,1.217.47A1.768,1.768,0,0,1-.427-8.178v.235h.235v-3.075a5.612,5.612,0,0,1-.982.225,8.115,8.115,0,0,1-1.324.117H-9.566v.214h.278a1.172,1.172,0,0,1,.833.32,1.138,1.138,0,0,1,.362.811V.79a1.154,1.154,0,0,1-.362.8,1.152,1.152,0,0,1-.833.331h-.278v.213H.021L.961-1.5H.769A5.7,5.7,0,0,1,0,0" fill="#fff"/>
      </g>
      <g id="Group_28198" data-name="Group 28198" transform="translate(179.137 -16.621)">
        <path id="Path_25726" data-name="Path 25726" d="M0,0Q-.4.086-.865.139a8.086,8.086,0,0,1-.9.053H-9.32A7.919,7.919,0,0,1-10.2.139,8.339,8.339,0,0,1-11.05,0,4.767,4.767,0,0,1-11.6-.149V2.925h.214V2.669a1.674,1.674,0,0,1,.437-1.206A1.686,1.686,0,0,1-9.726.982H-6.8v10.7a1.147,1.147,0,0,1-.363.8A1.148,1.148,0,0,1-8,12.811h-.235v.214H-2.85v-.214h-.214a1.184,1.184,0,0,1-.843-.331,1.057,1.057,0,0,1-.353-.8V.982h2.926a1.686,1.686,0,0,1,1.227.481A1.6,1.6,0,0,1,.31,2.669v.256H.544V-.149A3.544,3.544,0,0,1,0,0" fill="#fff"/>
      </g>
    </g>
  </g>
</svg>
