<svg xmlns="http://www.w3.org/2000/svg" xmlns:xlink="http://www.w3.org/1999/xlink" width="179.27" height="49.831" viewBox="0 0 179.27 49.831">
  <defs>
    <clipPath id="clip-path">
      <path id="Path_25669" data-name="Path 25669" d="M0,7.331H179.27V-42.5H0Z" transform="translate(0 42.499)" fill="none"/>
    </clipPath>
  </defs>
  <g id="Group_28154" data-name="Group 28154" transform="translate(0 42.5)">
    <g id="Group_28130" data-name="Group 28130" transform="translate(0 -42.499)" clip-path="url(#clip-path)">
      <g id="Group_28129" data-name="Group 28129" transform="translate(30.39 6.542)">
        <path id="Path_25668" data-name="Path 25668" d="M.815.451A.878.878,0,0,0,.653.041a.947.947,0,0,0-.3-.249,1.764,1.764,0,0,0-.82-.175,1.574,1.574,0,0,0-.767.142A.448.448,0,0,0-1.47.168a.531.531,0,0,0,.242.444A2.441,2.441,0,0,0-.6.921a8.321,8.321,0,0,0,.888.249q.5.114,1.021.263a8.782,8.782,0,0,1,1.022.356,3.389,3.389,0,0,1,.886.537,2.6,2.6,0,0,1,.632.794A2.4,2.4,0,0,1,4.1,4.242a3.068,3.068,0,0,1-.337,1.473A2.917,2.917,0,0,1,2.825,6.75a4.383,4.383,0,0,1-1.432.618,7.5,7.5,0,0,1-1.828.209,5.416,5.416,0,0,1-1.734-.263,4.328,4.328,0,0,1-1.338-.706A3.317,3.317,0,0,1-4.38,5.579a2.814,2.814,0,0,1-.344-1.243h3.038a1.076,1.076,0,0,0,.525.766,1.4,1.4,0,0,0,.429.182,1.97,1.97,0,0,0,.471.061A2.141,2.141,0,0,0,.7,5.163a.572.572,0,0,0,.355-.531.608.608,0,0,0-.409-.558A5.617,5.617,0,0,0-.381,3.724l-1.345-.337a5.7,5.7,0,0,1-1.345-.517A3.064,3.064,0,0,1-4.1,1.97,2.486,2.486,0,0,1-4.508.478,2.789,2.789,0,0,1-4.193-.873a2.744,2.744,0,0,1,.874-.968,4.1,4.1,0,0,1,1.325-.578,6.792,6.792,0,0,1,1.68-.195,5.654,5.654,0,0,1,1.747.242,3.776,3.776,0,0,1,1.244.659,3.039,3.039,0,0,1,.787.974A3.663,3.663,0,0,1,3.826.451Z" transform="translate(4.724 2.614)" fill="#fff"/>
      </g>
    </g>
    <g id="Group_28131" data-name="Group 28131" transform="translate(41.019 -35.702)">
      <path id="Path_25670" data-name="Path 25670" d="M0,1.424V-8.255H3.832L5.539-2.219,7.246-8.255h3.832V1.424H8.227V-1.533l.04-1.507.162-1.747H8.4L6.641,1.424h-2.2L2.676-4.787H2.649l.134,1.425L2.85-1.857V1.424Z" transform="translate(0 8.255)" fill="#fff"/>
    </g>
    <g id="Group_28132" data-name="Group 28132" transform="translate(53.713 -35.702)">
      <path id="Path_25671" data-name="Path 25671" d="M0,1.424,3.468-8.255H6.695l3.468,9.679H7L6.628.147H3.468L3.106,1.424ZM5.055-5.338,4.073-1.87h2Z" transform="translate(0 8.255)" fill="#fff"/>
    </g>
    <g id="Group_28134" data-name="Group 28134" transform="translate(0 -42.499)" clip-path="url(#clip-path)">
      <g id="Group_28133" data-name="Group 28133" transform="translate(65.908 6.797)">
        <path id="Path_25672" data-name="Path 25672" d="M.467.927V4.3H-2.706V-5.377h4.57A10.306,10.306,0,0,1,3.9-5.209a3.749,3.749,0,0,1,1.324.5,1.883,1.883,0,0,1,.72.861,3.214,3.214,0,0,1,.215,1.223,2.846,2.846,0,0,1-.389,1.486,1.965,1.965,0,0,1-1.237.881c.251.1.478.195.685.29a1.378,1.378,0,0,1,.518.4,1.883,1.883,0,0,1,.322.7,4.855,4.855,0,0,1,.114,1.17v.794a4.189,4.189,0,0,0,.027.524.616.616,0,0,0,.095.288.252.252,0,0,0,.215.088v.3H3.29A2.472,2.472,0,0,1,3.175,3.7a10.5,10.5,0,0,1-.047-1.089,4.866,4.866,0,0,0-.054-.793A.971.971,0,0,0,2.84,1.3a1.05,1.05,0,0,0-.518-.281A3.616,3.616,0,0,0,1.435.927Zm0-2.125h1.25A2.47,2.47,0,0,0,2.84-1.4a.733.733,0,0,0,.382-.712.863.863,0,0,0-.355-.76,1.581,1.581,0,0,0-.922-.249H.467Z" transform="translate(2.706 5.377)" fill="#fff"/>
      </g>
    </g>
    <g id="Group_28135" data-name="Group 28135" transform="translate(76.181 -35.702)">
      <path id="Path_25674" data-name="Path 25674" d="M0,0H8.872V2.541H6.023V9.679H2.85V2.541H0Z" fill="#fff"/>
    </g>
    <g id="Group_28136" data-name="Group 28136" transform="translate(88.583 -35.702)">
      <path id="Path_25675" data-name="Path 25675" d="M1.341.88h.027L2.457-5.1H5.522L3.115,4.577H0l-1.115-5.62h-.027l-1.1,5.62H-5.367L-7.774-5.1h3.065L-3.62.88h.027L-2.437-5.1H.185Z" transform="translate(7.774 5.102)" fill="#fff"/>
    </g>
    <g id="Group_28138" data-name="Group 28138" transform="translate(0 -42.499)" clip-path="url(#clip-path)">
      <g id="Group_28137" data-name="Group 28137" transform="translate(117.447 6.797)">
        <path id="Path_25676" data-name="Path 25676" d="M.467.927V4.3H-2.706V-5.377h4.57A10.306,10.306,0,0,1,3.9-5.209a3.749,3.749,0,0,1,1.324.5,1.883,1.883,0,0,1,.72.861,3.214,3.214,0,0,1,.215,1.223,2.836,2.836,0,0,1-.39,1.486,1.959,1.959,0,0,1-1.236.881c.251.1.478.195.685.29a1.378,1.378,0,0,1,.518.4,1.883,1.883,0,0,1,.322.7,4.855,4.855,0,0,1,.114,1.17v.794a4.189,4.189,0,0,0,.027.524.616.616,0,0,0,.095.288.252.252,0,0,0,.215.088v.3H3.29A2.472,2.472,0,0,1,3.175,3.7a10.5,10.5,0,0,1-.047-1.089,4.866,4.866,0,0,0-.054-.793A.971.971,0,0,0,2.84,1.3a1.05,1.05,0,0,0-.518-.281A3.616,3.616,0,0,0,1.435.927Zm0-2.125h1.25A2.47,2.47,0,0,0,2.84-1.4a.733.733,0,0,0,.382-.712.863.863,0,0,0-.355-.76,1.581,1.581,0,0,0-.922-.249H.467Z" transform="translate(2.706 5.377)" fill="#fff"/>
      </g>
    </g>
    <g id="Group_28139" data-name="Group 28139" transform="translate(128.81 -35.702)">
      <path id="Path_25678" data-name="Path 25678" d="M0,1.424V-8.255H3.173V-.834H7.529V1.424Z" transform="translate(0 8.255)" fill="#fff"/>
    </g>
    <g id="Group_28144" data-name="Group 28144" transform="translate(0 -42.499)" clip-path="url(#clip-path)">
      <g id="Group_28140" data-name="Group 28140" transform="translate(138 6.797)">
        <path id="Path_25679" data-name="Path 25679" d="M0,1.424V-8.255H4.248a7.429,7.429,0,0,1,2.1.276,4.193,4.193,0,0,1,1.592.847A3.69,3.69,0,0,1,8.953-5.687,5.553,5.553,0,0,1,9.3-3.618,6.581,6.581,0,0,1,8.94-1.292,3.945,3.945,0,0,1,7.9.268a4.091,4.091,0,0,1-1.62.881,7.563,7.563,0,0,1-2.118.276ZM3.173-.834h.672a2.234,2.234,0,0,0,1.694-.619,2.809,2.809,0,0,0,.591-1.99A5.109,5.109,0,0,0,6-4.693a1.71,1.71,0,0,0-.409-.787,1.528,1.528,0,0,0-.733-.4A4.513,4.513,0,0,0,3.778-6H3.173Z" transform="translate(0 8.255)" fill="#fff"/>
      </g>
      <g id="Group_28141" data-name="Group 28141" transform="translate(102.817 5.002)">
        <path id="Path_25680" data-name="Path 25680" d="M.4.961a3.839,3.839,0,0,0,1.51,3.056l.144-.753,1.017-5.3-.1,1.081L2.491,4.386l-.012.13L2.238,7.2a6.5,6.5,0,0,1-.874-.352A6.554,6.554,0,0,1,3.747-5.572l-.116.6L3.2-2.743A3.849,3.849,0,0,0,.4.961" transform="translate(2.309 5.572)" fill="#fff"/>
      </g>
      <g id="Group_28142" data-name="Group 28142" transform="translate(109.87 5.002)">
        <path id="Path_25681" data-name="Path 25681" d="M.891.961A6.551,6.551,0,0,1-2.78,6.848h0a6.249,6.249,0,0,1-.87.352l-.242-2.686L-3.9,4.382-4.387-.958l-.095-1.062L-4.27-.91l.791,4.119.155.806A3.838,3.838,0,0,0-1.817.961a3.848,3.848,0,0,0-2.8-3.7L-5.093-5.2l-.07-.368A6.552,6.552,0,0,1,.891.961" transform="translate(5.163 5.572)" fill="#fff"/>
      </g>
      <g id="Group_28143" data-name="Group 28143" transform="translate(108.692 5.425)">
        <path id="Path_25682" data-name="Path 25682" d="M.308,1.46l.25,2.707C.177,4.19-.211,4.2-.6,4.2s-.8-.012-1.185-.034l.25-2.71.074-.789L-.9-5.405l.074-.79.21-2.266L-.4-6.2l.074.789L.234.669Z" transform="translate(1.787 8.462)" fill="#fff"/>
      </g>
    </g>
    <g id="Group_28145" data-name="Group 28145" transform="translate(107.754 -42.5)">
      <path id="Path_25684" data-name="Path 25684" d="M.238,0-1.381,4.173h.858L.238,2.214,1,4.173h.859Z" transform="translate(1.381)" fill="#fff"/>
    </g>
    <g id="Group_28153" data-name="Group 28153" transform="translate(0 -42.499)" clip-path="url(#clip-path)">
      <g id="Group_28146" data-name="Group 28146" transform="translate(0 19.476)">
        <path id="Path_25685" data-name="Path 25685" d="M1.838,0a13.619,13.619,0,0,1,6.6,1.532,10.919,10.919,0,0,1,4.39,4.324A13.116,13.116,0,0,1,14.4,12.394a13.116,13.116,0,0,1-1.571,6.538,10.927,10.927,0,0,1-4.39,4.324,13.619,13.619,0,0,1-6.6,1.532A13.474,13.474,0,0,1-4.7,23.256a10.934,10.934,0,0,1-4.39-4.324,13.128,13.128,0,0,1-1.57-6.538,13.128,13.128,0,0,1,1.57-6.538A10.927,10.927,0,0,1-4.7,1.532,13.474,13.474,0,0,1,1.838,0m0,23.63a8.027,8.027,0,0,0,4.727-1.4,9.168,9.168,0,0,0,3.107-3.915,14.564,14.564,0,0,0,1.114-5.925A14.564,14.564,0,0,0,9.673,6.47,9.179,9.179,0,0,0,6.566,2.554a8.027,8.027,0,0,0-4.727-1.4,7.989,7.989,0,0,0-4.677,1.4A9.132,9.132,0,0,0-5.963,6.47a14.564,14.564,0,0,0-1.114,5.925,14.564,14.564,0,0,0,1.114,5.925,9.122,9.122,0,0,0,3.124,3.915,7.989,7.989,0,0,0,4.677,1.4" transform="translate(10.656)" fill="#fff"/>
      </g>
      <g id="Group_28147" data-name="Group 28147" transform="translate(30.39 23.358)">
        <path id="Path_25686" data-name="Path 25686" d="M.358.315H.29A1.821,1.821,0,0,0-.284-.979,1.848,1.848,0,0,0-1.6-1.489h-.474v-.34H.661Zm0,16.105.3,2.18H-2.074v-.341H-1.6a1.783,1.783,0,0,0,1.317-.544A1.9,1.9,0,0,0,.29,16.421ZM3.329,18.6H.256V-1.829H3.329Zm0-20.43-.1,18.25h.1a1.731,1.731,0,0,0,.558,1.311,1.863,1.863,0,0,0,1.333.528h.406l.034.341H2.89ZM7.043-1.829a10.947,10.947,0,0,1,2.8.34A6.547,6.547,0,0,1,12.076-.45a4.844,4.844,0,0,1,1.468,1.736,5.334,5.334,0,0,1,.524,2.434,5.571,5.571,0,0,1-.609,2.537A5.5,5.5,0,0,1,11.7,8.284,5.913,5.913,0,0,1,9,9.3a3.978,3.978,0,0,1,1.52,1.089,11.425,11.425,0,0,1,1.317,1.634c.045.046.2.267.473.664s.613.875,1.029,1.43.838,1.107,1.267,1.651q.709.818,1.265,1.362a4.148,4.148,0,0,0,1.2.834,3.569,3.569,0,0,0,1.486.29V18.6h-1.62a9.765,9.765,0,0,1-3.073-.409,5.833,5.833,0,0,1-2.026-1.123A9.3,9.3,0,0,1,10.42,15.5a9.907,9.907,0,0,1-.641-.919q-.44-.681-.929-1.447t-.895-1.413c-.27-.431-.44-.715-.507-.852A6.766,6.766,0,0,0,6.081,9.287a2.437,2.437,0,0,0-1.57-.63v-.34q.878.033,1.554,0A12.862,12.862,0,0,0,7.8,8.13a3.245,3.245,0,0,0,1.6-.817,4.331,4.331,0,0,0,1.148-2.094,4.634,4.634,0,0,0,.17-.767,4.9,4.9,0,0,0,.033-1,5.209,5.209,0,0,0-.4-1.8A3.432,3.432,0,0,0,9.425.4,4.222,4.222,0,0,0,8.108-.348a5.329,5.329,0,0,0-1.571-.29Q5.288-.671,4.325-.655A7.367,7.367,0,0,1,3.262-.672L2.924-1.829Z" transform="translate(2.074 1.829)" fill="#fff"/>
      </g>
      <g id="Group_28148" data-name="Group 28148" transform="translate(53.453 22.88)">
        <path id="Path_25687" data-name="Path 25687" d="M3.03,1.813l-.1,4.835A8.1,8.1,0,0,1,.785,8.861a10.444,10.444,0,0,1-3.073,1.482,13.038,13.038,0,0,1-3.8.528,13.848,13.848,0,0,1-6.129-1.328,9.288,9.288,0,0,1-3.968-3.661,11.1,11.1,0,0,1-1.385-5.7,11.207,11.207,0,0,1,1.385-5.721,9.267,9.267,0,0,1,3.968-3.677,13.534,13.534,0,0,1,6.129-1.294A17.7,17.7,0,0,1-1.85-10a12.986,12.986,0,0,1,3.563,1.4L2.22-3.6h-.3A6.948,6.948,0,0,0-.971-8.061,9.222,9.222,0,0,0-5.986-9.389a8.082,8.082,0,0,0-4.44,1.175,7.663,7.663,0,0,0-2.836,3.3,11.83,11.83,0,0,0-1,5.057,11.851,11.851,0,0,0,1,5.039,7.57,7.57,0,0,0,2.82,3.3A8.386,8.386,0,0,0-6.087,9.713,10.851,10.851,0,0,0-1.715,8.9a6.931,6.931,0,0,0,3.04-2.554A9.724,9.724,0,0,0,2.761,1.813Z" transform="translate(17.568 10.513)" fill="#fff"/>
      </g>
      <g id="Group_28149" data-name="Group 28149" transform="translate(79.825 23.358)">
        <path id="Path_25688" data-name="Path 25688" d="M.358.32h-.1A1.851,1.851,0,0,0-.334-.99a1.875,1.875,0,0,0-1.334-.528h-.406v-.34H.358Zm0,16.071v2.18H-2.074V18.23h.406a1.841,1.841,0,0,0,1.334-.544,1.877,1.877,0,0,0,.59-1.294ZM3.3,18.572H.257V-1.858H3.3Zm0-20.43M14.912,9.037H2.958V7.88H14.912Zm0-1.157M3.228.32V-1.858h2.4v.34H5.22A1.873,1.873,0,0,0,3.886-.99,1.846,1.846,0,0,0,3.3.32Zm0,16.071H3.3a1.872,1.872,0,0,0,.59,1.294,1.839,1.839,0,0,0,1.334.544h.406v.341h-2.4ZM14.675.32h-.1A1.884,1.884,0,0,0,14-.99a1.855,1.855,0,0,0-1.351-.528h-.372v-.34h2.4Zm0,16.071v2.18h-2.4V18.23h.372A1.822,1.822,0,0,0,14,17.686a1.911,1.911,0,0,0,.575-1.294Zm2.972,2.18H14.574V-1.858h3.073Zm0-20.43M17.545.32V-1.858h2.432v.34h-.406a1.855,1.855,0,0,0-1.351.528A1.873,1.873,0,0,0,17.647.32Zm0,16.071h.1a1.9,1.9,0,0,0,.573,1.294,1.822,1.822,0,0,0,1.351.544h.372v.341h-2.4Z" transform="translate(2.074 1.858)" fill="#fff"/>
      </g>
      <g id="Group_28150" data-name="Group 28150" transform="translate(105.758 22.745)">
        <path id="Path_25689" data-name="Path 25689" d="M.75,2.74a1.441,1.441,0,0,0,.1,1.532,1.4,1.4,0,0,0,1.081.544H2.2v.341H-4.349V4.817h.271a2.644,2.644,0,0,0,1.418-.476,3.778,3.778,0,0,0,1.283-1.6ZM7.2-15.885l.2,2.928L-.195,5.056H-2.458l7.969-17.23q.033-.067.236-.528T6.2-13.775q.253-.612.473-1.191a3.828,3.828,0,0,0,.253-.919ZM10.847-1.244H2V-2.367h8.846Zm0-1.123M7.2-15.885,16.722,4.954h-3.68L6.153-11.8ZM12.163,2.74h3.58a3.568,3.568,0,0,0,1.25,1.6,2.638,2.638,0,0,0,1.418.476h.271v.341H10.746V4.817h.27a1.374,1.374,0,0,0,1.047-.544,1.446,1.446,0,0,0,.1-1.532" transform="translate(4.349 15.885)" fill="#fff"/>
      </g>
      <g id="Group_28151" data-name="Group 28151" transform="translate(156.882 23.358)">
        <path id="Path_25690" data-name="Path 25690" d="M.353.32H.285A1.847,1.847,0,0,0-.306-.99a1.87,1.87,0,0,0-1.333-.528h-.406v-.34h2.4ZM.387,16.358v2.214H-2.045V18.23h.44a1.81,1.81,0,0,0,1.333-.562,1.8,1.8,0,0,0,.557-1.311Zm3.005,2.214H.285V-1.858H3.392Zm0-20.43,5.875,0A13.254,13.254,0,0,1,15.193-.633a8.8,8.8,0,0,1,3.816,3.525,10.7,10.7,0,0,1,1.333,5.465A10.612,10.612,0,0,1,19.009,13.8a8.945,8.945,0,0,1-3.816,3.525,13.1,13.1,0,0,1-5.926,1.243H1.973l-.067-1.124H9.132a7.216,7.216,0,0,0,5.775-2.434A9.875,9.875,0,0,0,17,8.357,9.878,9.878,0,0,0,14.907,1.7,7.216,7.216,0,0,0,9.132-.735H1.569V-1.858Z" transform="translate(2.045 1.858)" fill="#fff"/>
      </g>
      <g id="Group_28152" data-name="Group 28152" transform="translate(130.865 22.653)">
        <path id="Path_25691" data-name="Path 25691" d="M4.837,3.793A17.531,17.531,0,0,1-9.021-2.995c-2.734-3.317-4-6.142-6.744-7.6a5.5,5.5,0,0,0,5.81-5.759c0-4.3-4.12-5.634-7.722-5.634H-28.024v.307h.373a1.935,1.935,0,0,1,1.931,1.9V-3.044a1.934,1.934,0,0,1-1.931,1.885h-.388v.3h9.181l-.006-.3h-.372a1.941,1.941,0,0,1-1.946-1.9v-17.6h2.288a4.057,4.057,0,0,1,4.111,4.224,6.347,6.347,0,0,1-.106,1.464,4.3,4.3,0,0,1-4.362,3.486c-.372.026-.81.006-.925.006v.286c.553.141,1.081.876,1.664,1.806,1.182,1.675,3.772,5.941,5.463,8.108C-7.391,5.976-.857,5.9,3.222,4.339" transform="translate(28.039 21.988)" fill="#fff"/>
      </g>
    </g>
  </g>
</svg>
