<?xml version="1.0" encoding="utf-8"?>
<!-- Generator: Adobe Illustrator 27.8.0, SVG Export Plug-In . SVG Version: 6.00 Build 0)  -->
<svg version="1.1" id="Group_27916" xmlns="http://www.w3.org/2000/svg" xmlns:xlink="http://www.w3.org/1999/xlink" x="0px"
	 y="0px" viewBox="0 0 32 32" style="enable-background:new 0 0 32 32;" xml:space="preserve">
<style type="text/css">
	.st0{clip-path:url(#SVGID_00000043455491652769862590000016121043817741747590_);}
	.st1{fill:#FFFFFF;}
</style>
<g>
	<defs>
		<rect id="SVGID_1_" x="2.4" y="2.7" width="27.3" height="26.5"/>
	</defs>
	<clipPath id="SVGID_00000095296311877262016770000007961529076324875183_">
		<use xlink:href="#SVGID_1_"  style="overflow:visible;"/>
	</clipPath>
	<g id="Group_27915" style="clip-path:url(#SVGID_00000095296311877262016770000007961529076324875183_);">
		<path id="Path_25478" class="st1" d="M21.2,3.1l1.1-0.3L29.6,29l-1.1,0.3L21.2,3.1"/>
		<path id="Path_25479" class="st1" d="M9.7,2.7L10.8,3L3.5,29.2l-1.1-0.3L9.7,2.7z"/>
		<rect id="Rectangle_4851" x="15.4" y="2.9" class="st1" width="1.1" height="26.2"/>
		<path id="Path_25480" class="st1" d="M21.5,26.1l1.2-0.2l0.4,3.1l-1.2,0.2L21.5,26.1"/>
		<path id="Path_25481" class="st1" d="M9.3,25.9l1.2,0.2L10,29.2L8.9,29L9.3,25.9"/>
		<path id="Path_25482" class="st1" d="M22,21.3l-1.2,0.2l-0.3-2.2l1.2-0.2L22,21.3"/>
		<path id="Path_25483" class="st1" d="M10,21.3l0.3-2.2l1.2,0.2l-0.3,2.2L10,21.3"/>
		<path id="Path_25484" class="st1" d="M21,14.1l0.2,1.6l-1.2,0.2l-0.2-1.6L21,14.1"/>
		<path id="Path_25485" class="st1" d="M11.9,15.8l-1.2-0.2l0.2-1.6l1.2,0.1L11.9,15.8"/>
		<path id="Path_25486" class="st1" d="M11.5,10.3l1.2,0.2l-0.2,1.3l-1.2-0.1L11.5,10.3"/>
		<path id="Path_25487" class="st1" d="M19.4,10.4l1.2-0.2l0.2,1.3l-1.2,0.2L19.4,10.4"/>
		<path id="Path_25488" class="st1" d="M20.2,8.2L19,8.4l-0.1-1L20,7.3L20.2,8.2"/>
		<path id="Path_25489" class="st1" d="M11.7,8.2l0.1-1L13,7.4l-0.1,1L11.7,8.2"/>
		<path id="Path_25490" class="st1" d="M13.3,5.8l-1.1-0.2l0.1-0.8L13.4,5L13.3,5.8"/>
		<path id="Path_25491" class="st1" d="M18.6,5l1.2-0.2l0.1,0.8l-1.1,0.2L18.6,5"/>
		<path id="Path_25492" class="st1" d="M13.6,3.7l-1.2-0.2l0.1-0.7L13.6,3L13.6,3.7"/>
		<path id="Path_25493" class="st1" d="M19.5,3.5l-1.1,0.2L18.3,3l1.2-0.2L19.5,3.5"/>
	</g>
</g>
</svg>
