<svg xmlns="http://www.w3.org/2000/svg" xmlns:xlink="http://www.w3.org/1999/xlink" width="24.669" height="34.588" viewBox="0 0 24.669 34.588">
  <defs>
    <clipPath id="clip-path">
      <rect id="Rectangle_4852" data-name="Rectangle 4852" width="9.062" height="8.828" fill="#555"/>
    </clipPath>
  </defs>
  <g id="Group_28346" data-name="Group 28346" transform="translate(-1552 -813.809)">
    <g id="Group_28342" data-name="Group 28342" transform="translate(1560 822.212)">
      <g id="Group_27915" data-name="Group 27915" clip-path="url(#clip-path)">
        <path id="Path_25478" data-name="Path 25478" d="M345.28.67l.375-.106,2.42,8.711-.375.106L345.28.67" transform="translate(-339.013 -0.554)" fill="#555"/>
        <path id="Path_25479" data-name="Path 25479" d="M2.423,0,2.8.1.375,8.815,0,8.711Z" fill="#555"/>
        <rect id="Rectangle_4851" data-name="Rectangle 4851" width="0.381" height="8.7" transform="translate(4.337 0.064)" fill="#555"/>
        <path id="Path_25480" data-name="Path 25480" d="M350.241,425.307l.386-.055.142,1.018-.385.055-.142-1.019" transform="translate(-343.884 -417.534)" fill="#555"/>
        <path id="Path_25481" data-name="Path 25481" d="M119.026,425.421l.385.054-.14,1.017-.387-.051.141-1.02" transform="translate(-116.727 -417.7)" fill="#555"/>
        <path id="Path_25482" data-name="Path 25482" d="M333.762,300.907l-.385.054-.1-.73.385-.055.1.731" transform="translate(-327.225 -294.728)" fill="#555"/>
        <path id="Path_25483" data-name="Path 25483" d="M139.177,300.379l.1-.731.385.051-.1.73-.386-.05" transform="translate(-136.651 -294.21)" fill="#555"/>
        <path id="Path_25484" data-name="Path 25484" d="M321.124,208.163l.076.54-.386.054-.075-.537.384-.056" transform="translate(-314.919 -204.385)" fill="#555"/>
        <path id="Path_25485" data-name="Path 25485" d="M153.043,208.407l-.387-.055.075-.537.383.05-.071.541" transform="translate(-149.885 -204.044)" fill="#555"/>
        <path id="Path_25486" data-name="Path 25486" d="M163.72,138.387l.384.054-.056.422-.386-.05.059-.426" transform="translate(-160.691 -135.875)" fill="#555"/>
        <path id="Path_25487" data-name="Path 25487" d="M311.149,137.617l.385-.055.06.424-.383.054-.062-.423" transform="translate(-305.502 -135.065)" fill="#555"/>
        <path id="Path_25488" data-name="Path 25488" d="M303.184,83.324l-.385.054-.046-.329.383-.052.048.327" transform="translate(-297.258 -81.491)" fill="#555"/>
        <path id="Path_25489" data-name="Path 25489" d="M171.564,83.281l.045-.326.386.05-.046.328-.385-.052" transform="translate(-168.45 -81.449)" fill="#555"/>
        <path id="Path_25490" data-name="Path 25490" d="M178.773,38.415l-.382-.053.032-.27.385.05-.035.273" transform="translate(-175.153 -37.401)" fill="#555"/>
        <path id="Path_25491" data-name="Path 25491" d="M297.316,38.939l.387-.052.035.27-.381.052-.04-.27" transform="translate(-291.92 -38.181)" fill="#555"/>
        <path id="Path_25492" data-name="Path 25492" d="M183.985,2.1l-.386-.054.033-.231.383.051-.03.233" transform="translate(-180.267 -1.78)" fill="#555"/>
        <path id="Path_25493" data-name="Path 25493" d="M292,2.252l-.381.052-.036-.232.386-.052.031.232" transform="translate(-286.291 -1.983)" fill="#555"/>
      </g>
    </g>
    <path id="Path_25498" data-name="Path 25498" d="M12.352,34.587c-.519-1.057-1-2.134-1.562-3.16a46.089,46.089,0,0,0-7.16-9.454,12.679,12.679,0,0,1-3.607-9.8A12.991,12.991,0,0,1,10.065.284a10.823,10.823,0,0,1,9,2,12.588,12.588,0,0,1,5.577,11.58,12.361,12.361,0,0,1-3.551,8.066,44.773,44.773,0,0,0-7.652,10.328c-.393.761-.727,1.552-1.09,2.333m7.3-21.056A7.45,7.45,0,1,0,12.2,20.969a7.469,7.469,0,0,0,7.455-7.438" transform="translate(1552 813.809)" fill="#555"/>
  </g>
</svg>
