<svg xmlns="http://www.w3.org/2000/svg" xmlns:xlink="http://www.w3.org/1999/xlink" width="24.669" height="34.588" viewBox="0 0 24.669 34.588">
  <defs>
    <clipPath id="clip-path">
      <rect id="Rectangle_4856" data-name="Rectangle 4856" width="10.671" height="9.003" fill="#1a5ba7"/>
    </clipPath>
  </defs>
  <g id="Group_28344" data-name="Group 28344" transform="translate(-1476 -813.809)">
    <g id="Group_28339" data-name="Group 28339" transform="translate(1483 822.929)">
      <g id="Group_27934" data-name="Group 27934" transform="translate(0 0)" clip-path="url(#clip-path)">
        <path id="Path_25500" data-name="Path 25500" d="M9.337,3.221l-.325.123c-.194.075-.388.153-.583.224a.121.121,0,0,0-.094.135c0,.431-.013.864.005,1.294a1.5,1.5,0,0,1-.673,1.325,3.346,3.346,0,0,1-1.463.6,4.645,4.645,0,0,1-2.475-.2A2.451,2.451,0,0,1,2.61,5.944a1.3,1.3,0,0,1-.283-.832c0-.463,0-.926,0-1.389a.14.14,0,0,0-.106-.158c-.649-.248-1.3-.5-1.943-.751A.378.378,0,0,1,0,2.465.367.367,0,0,1,.262,2.1L4.868.1a1.092,1.092,0,0,1,.909,0l4.636,2.012a.359.359,0,0,1,.011.684c-.227.088-.452.179-.68.264a.1.1,0,0,0-.074.1q0,1.4,0,2.8a.109.109,0,0,0,.069.111A.431.431,0,0,1,10,6.463a4.369,4.369,0,0,0,.209,1.164c.037.163.08.324.119.486a.169.169,0,0,1-.1.23c-.431.217-.862.435-1.3.645a.167.167,0,0,1-.244-.181c.072-.47.154-.94.232-1.409a4.375,4.375,0,0,0,.1-.889.476.476,0,0,1,.258-.436.155.155,0,0,0,.07-.106c0-.894,0-1.789,0-2.683,0-.017,0-.034-.006-.062m-.465-.176c0-.007,0-.014,0-.021-.033-.008-.066-.016-.1-.023L5.347,2.337c-.132-.026-.2-.1-.176-.2s.109-.148.236-.124q1.964.38,3.928.757a.458.458,0,0,0,.222,0c.24-.082.474-.179.71-.271a.94.94,0,0,0,.1-.054L9.787,2.2Q7.723,1.3,5.659.406A.774.774,0,0,0,5.013.4L.407,2.4a1.046,1.046,0,0,0-.1.063c.058.027.09.045.124.058q1.059.409,2.118.818c.777.3,1.554.6,2.329.909a1.168,1.168,0,0,0,.9,0c.639-.253,1.282-.5,1.922-.747l1.173-.456m-6.215.693c0,.251,0,.484,0,.717a.987.987,0,0,0,.223.646,1.909,1.909,0,0,0,.744.558,4.246,4.246,0,0,0,2.895.195,2.621,2.621,0,0,0,1.053-.53A1.052,1.052,0,0,0,8,4.616c.023-.286,0-.576,0-.875-.044.015-.082.028-.12.043l-2.04.79a1.4,1.4,0,0,1-1.048-.007L3.647,4.121l-.99-.384m5.3,1.692a2.845,2.845,0,0,1-1.04.642,4.636,4.636,0,0,1-2.279.222A3.568,3.568,0,0,1,3.16,5.778c-.158-.1-.3-.228-.456-.346a1.086,1.086,0,0,0,.258.42,2.178,2.178,0,0,0,.786.518,4.3,4.3,0,0,0,2.538.2A2.838,2.838,0,0,0,7.555,5.99a1.148,1.148,0,0,0,.4-.562M9.713,7.011c-.107,0-.2.006-.3,0-.081-.006-.105.026-.117.1-.056.36-.119.72-.179,1.08-.019.114-.035.228-.057.366.31-.154.6-.3.878-.441a.1.1,0,0,0,.029-.084c-.081-.338-.167-.674-.254-1.021m-.038-.332c0-.118.04-.244-.085-.307a.213.213,0,0,0-.18.012c-.108.071-.068.188-.065.3Z" transform="translate(0 0)" fill="#1a5ba7"/>
      </g>
    </g>
    <path id="Path_25498" data-name="Path 25498" d="M12.352,34.587c-.519-1.057-1-2.134-1.562-3.16a46.089,46.089,0,0,0-7.16-9.454,12.679,12.679,0,0,1-3.607-9.8A12.991,12.991,0,0,1,10.065.284a10.823,10.823,0,0,1,9,2,12.588,12.588,0,0,1,5.577,11.58,12.361,12.361,0,0,1-3.551,8.066,44.773,44.773,0,0,0-7.652,10.328c-.393.761-.727,1.552-1.09,2.333m7.3-21.056A7.45,7.45,0,1,0,12.2,20.969a7.469,7.469,0,0,0,7.455-7.438" transform="translate(1476 813.809)" fill="#1a5ba7"/>
  </g>
</svg>
