<svg id="Group_28349" data-name="Group 28349" xmlns="http://www.w3.org/2000/svg" xmlns:xlink="http://www.w3.org/1999/xlink" width="42.873" height="60.11" viewBox="0 0 42.873 60.11">
  <defs>
    <clipPath id="clip-path">
      <rect id="Rectangle_4856" data-name="Rectangle 4856" width="18.546" height="15.646" fill="#1a5ba7"/>
    </clipPath>
  </defs>
  <g id="Group_28339" data-name="Group 28339" transform="translate(12.165 15.851)">
    <g id="Group_27934" data-name="Group 27934" transform="translate(0 0)" clip-path="url(#clip-path)">
      <path id="Path_25500" data-name="Path 25500" d="M16.226,5.6c-.2.074-.381.143-.565.214-.338.13-.673.266-1.014.39a.21.21,0,0,0-.164.235c.007.75-.023,1.5.01,2.249a2.6,2.6,0,0,1-1.17,2.3,5.815,5.815,0,0,1-2.543,1.038,8.073,8.073,0,0,1-4.3-.353,4.259,4.259,0,0,1-1.944-1.342,2.263,2.263,0,0,1-.492-1.446c.008-.8,0-1.609.006-2.413A.244.244,0,0,0,3.865,6.2C2.738,5.766,1.615,5.323.488,4.891A.656.656,0,0,1,0,4.283a.638.638,0,0,1,.453-.63L8.46.173a1.9,1.9,0,0,1,1.58,0q4.028,1.75,8.057,3.5a.624.624,0,0,1,.019,1.189c-.394.153-.786.31-1.181.459a.165.165,0,0,0-.128.182q0,2.431,0,4.863a.19.19,0,0,0,.12.193.75.75,0,0,1,.451.677,7.593,7.593,0,0,0,.363,2.023c.064.283.139.563.207.844a.294.294,0,0,1-.179.4c-.75.377-1.5.756-2.254,1.12a.29.29,0,0,1-.424-.315c.125-.818.268-1.633.4-2.449a7.6,7.6,0,0,0,.17-1.545.828.828,0,0,1,.448-.758.269.269,0,0,0,.122-.184c.007-1.554.005-3.109,0-4.663,0-.029-.006-.059-.011-.109m-.808-.306c0-.012,0-.025,0-.037-.058-.013-.115-.028-.173-.039L9.292,4.062c-.229-.044-.34-.171-.306-.345s.19-.258.411-.215q3.413.66,6.827,1.316a.8.8,0,0,0,.386,0c.416-.143.824-.311,1.234-.472a1.633,1.633,0,0,0,.167-.093l-1-.435Q13.421,2.263,9.834.7A1.346,1.346,0,0,0,8.711.688l-8,3.479a1.818,1.818,0,0,0-.178.109c.1.047.157.078.216.1q1.84.712,3.68,1.422c1.35.524,2.7,1.044,4.047,1.579a2.03,2.03,0,0,0,1.566,0c1.111-.439,2.227-.866,3.341-1.3l2.039-.793m-10.8,1.2c0,.437.006.841,0,1.245A1.715,1.715,0,0,0,5,8.863a3.318,3.318,0,0,0,1.293.97,7.38,7.38,0,0,0,5.031.338,4.556,4.556,0,0,0,1.829-.922,1.829,1.829,0,0,0,.738-1.228c.039-.5.009-1,.009-1.52-.076.027-.143.049-.209.074L10.149,7.949a2.432,2.432,0,0,1-1.821-.013q-.995-.389-1.991-.774l-1.72-.668m9.2,2.94a4.945,4.945,0,0,1-1.807,1.116,8.056,8.056,0,0,1-3.961.386,6.2,6.2,0,0,1-2.56-.9c-.275-.178-.525-.4-.793-.6a1.887,1.887,0,0,0,.449.73,3.785,3.785,0,0,0,1.366.9,7.467,7.467,0,0,0,4.411.341,4.932,4.932,0,0,0,2.2-1,2,2,0,0,0,.69-.976m3.06,2.75c-.186,0-.355.01-.523,0-.141-.011-.183.045-.2.178-.1.626-.207,1.251-.311,1.876-.033.2-.061.4-.1.636.538-.268,1.035-.513,1.527-.767a.165.165,0,0,0,.051-.146c-.141-.587-.29-1.171-.442-1.775m-.065-.577c0-.206.069-.425-.148-.534a.37.37,0,0,0-.314.02c-.188.123-.118.327-.114.514Z" transform="translate(0 0)" fill="#1a5ba7"/>
    </g>
  </g>
  <path id="Path_25498" data-name="Path 25498" d="M21.466,60.109c-.9-1.837-1.729-3.708-2.715-5.491A80.1,80.1,0,0,0,6.307,38.188,22.034,22.034,0,0,1,.038,21.162,22.577,22.577,0,0,1,17.492.494C23.27-.866,28.47.674,33.139,3.963,40.047,8.83,43.28,15.657,42.831,24.089a21.482,21.482,0,0,1-6.172,14.018,77.811,77.811,0,0,0-13.3,17.948c-.683,1.322-1.264,2.7-1.895,4.054M34.161,23.517A12.947,12.947,0,1,0,21.2,36.443,12.98,12.98,0,0,0,34.161,23.517" transform="translate(0 0)" fill="#1a5ba7"/>
</svg>
