<?xml version="1.0" encoding="utf-8"?>
<!-- Generator: Adobe Illustrator 27.8.0, SVG Export Plug-In . SVG Version: 6.00 Build 0)  -->
<svg version="1.1" id="Layer_1" xmlns="http://www.w3.org/2000/svg" xmlns:xlink="http://www.w3.org/1999/xlink" x="0px" y="0px"
	 viewBox="0 0 32 32" style="enable-background:new 0 0 32 32;" xml:space="preserve">
<style type="text/css">
	.st0{clip-path:url(#SVGID_00000183940662152484401510000008632016411764285878_);}
	.st1{fill:#888888;}
</style>
<g id="Group_27947" transform="translate(0 0)">
	<g>
		<defs>
			<rect id="SVGID_1_" x="0.5" y="2.9" width="31" height="26.2"/>
		</defs>
		<clipPath id="SVGID_00000136400338758360595940000001950960429020933775_">
			<use xlink:href="#SVGID_1_"  style="overflow:visible;"/>
		</clipPath>
		
			<g id="Group_27934" transform="translate(0 0)" style="clip-path:url(#SVGID_00000136400338758360595940000001950960429020933775_);">
			<path id="Path_25500" class="st1" d="M27.6,12.3c-0.3,0.1-0.6,0.2-0.9,0.4c-0.6,0.2-1.1,0.4-1.7,0.7c-0.2,0-0.3,0.2-0.3,0.4
				c0,1.3,0,2.5,0,3.8c0.1,1.5-0.7,3-2,3.9c-1.3,0.9-2.7,1.5-4.3,1.7c-2.4,0.5-4.9,0.3-7.2-0.6C10,22,8.9,21.2,8.1,20.2
				c-0.5-0.7-0.8-1.5-0.8-2.4c0-1.3,0-2.7,0-4c0-0.2-0.1-0.4-0.3-0.5c-1.9-0.7-3.8-1.5-5.7-2.2c-0.5-0.1-0.8-0.5-0.8-1
				c0-0.5,0.3-0.9,0.8-1.1c4.5-1.9,8.9-3.9,13.4-5.8c0.8-0.4,1.8-0.4,2.6,0c4.5,2,9,3.9,13.5,5.9c0.6,0.2,0.9,0.7,0.7,1.3
				c-0.1,0.3-0.3,0.6-0.7,0.7c-0.7,0.3-1.3,0.5-2,0.8c-0.1,0-0.2,0.2-0.2,0.3c0,2.7,0,5.4,0,8.1c0,0.1,0.1,0.3,0.2,0.3
				c0.5,0.2,0.7,0.6,0.8,1.1c0,1.2,0.3,2.3,0.6,3.4c0.1,0.5,0.2,0.9,0.3,1.4c0.1,0.2,0,0.5-0.2,0.6c0,0,0,0-0.1,0
				c-1.3,0.6-2.5,1.3-3.8,1.9c-0.2,0.1-0.5,0-0.7-0.2c-0.1-0.1-0.1-0.2-0.1-0.3c0.2-1.4,0.4-2.7,0.7-4.1c0.2-0.9,0.3-1.7,0.3-2.6
				c0-0.5,0.3-1,0.8-1.3c0.1-0.1,0.2-0.2,0.2-0.3c0-2.6,0-5.2,0-7.8C27.7,12.4,27.6,12.4,27.6,12.3 M26.3,11.8
				C26.3,11.7,26.3,11.7,26.3,11.8c-0.1-0.1-0.2-0.1-0.3-0.1L16,9.7c-0.4-0.1-0.6-0.3-0.5-0.6s0.3-0.4,0.7-0.4
				c3.8,0.7,7.6,1.5,11.4,2.2c0.2,0.1,0.4,0.1,0.6,0c0.7-0.2,1.4-0.5,2.1-0.8c0.1,0,0.2-0.1,0.3-0.2l-1.7-0.7c-4-1.7-8-3.5-12-5.2
				c-0.6-0.3-1.3-0.3-1.9,0C10.6,6,6.1,7.9,1.7,9.9C1.6,9.9,1.5,10,1.4,10.1c0.2,0.1,0.3,0.1,0.4,0.2c2.1,0.8,4.1,1.6,6.2,2.4
				c2.3,0.9,4.5,1.7,6.8,2.6c0.8,0.4,1.8,0.4,2.6,0c1.9-0.7,3.7-1.4,5.6-2.2L26.3,11.8 M8.2,13.8c0,0.7,0,1.4,0,2.1
				c0,0.7,0.2,1.4,0.7,1.9c0.6,0.7,1.3,1.3,2.2,1.6c2.7,1.2,5.6,1.4,8.4,0.6c1.1-0.3,2.2-0.8,3.1-1.5c0.7-0.5,1.1-1.2,1.2-2.1
				c0.1-0.8,0-1.7,0-2.5c-0.1,0-0.2,0.1-0.3,0.1c-2,0.8-4,1.5-5.9,2.3c-1,0.4-2.1,0.4-3,0c-1.1-0.4-2.2-0.9-3.3-1.3L8.2,13.8
				 M23.6,18.7c-0.9,0.8-1.9,1.5-3,1.9c-2.1,0.8-4.4,1-6.6,0.6c-1.5-0.2-3-0.7-4.3-1.5c-0.5-0.3-0.9-0.7-1.3-1
				c0.2,0.5,0.4,0.9,0.8,1.2c0.6,0.7,1.4,1.2,2.3,1.5c2.3,0.9,4.9,1.1,7.4,0.6c1.3-0.2,2.6-0.8,3.7-1.7C23,19.9,23.4,19.3,23.6,18.7
				 M28.7,23.3c-0.3,0-0.6,0-0.9,0c-0.2,0-0.3,0.1-0.3,0.3c-0.2,1-0.3,2.1-0.5,3.1c-0.1,0.3-0.1,0.7-0.2,1.1
				c0.9-0.4,1.7-0.9,2.6-1.3c0.1-0.1,0.1-0.2,0.1-0.2C29.2,25.3,29,24.3,28.7,23.3 M28.6,22.3c0-0.3,0.1-0.7-0.2-0.9
				c-0.2-0.1-0.4-0.1-0.5,0c-0.3,0.2-0.2,0.5-0.2,0.9L28.6,22.3z"/>
		</g>
	</g>
</g>
</svg>
