<svg xmlns="http://www.w3.org/2000/svg" xmlns:xlink="http://www.w3.org/1999/xlink" width="328.093" height="68.817" viewBox="0 0 328.093 68.817">
  <defs>
    <clipPath id="clip-path">
      <path id="Path_25626" data-name="Path 25626" d="M0,0H328.093V-68.817H0Z" fill="none"/>
    </clipPath>
  </defs>
  <g id="Group_28127" data-name="Group 28127" transform="translate(0 68.817)">
    <g id="Group_28085" data-name="Group 28085" clip-path="url(#clip-path)">
      <g id="Group_28084" data-name="Group 28084" transform="translate(187.343 -9.47)">
        <path id="Path_25625" data-name="Path 25625" d="M0,0H-183.627a1.69,1.69,0,0,0-1.663-1.39A1.69,1.69,0,0,0-186.98.3a1.69,1.69,0,0,0,1.69,1.69A1.69,1.69,0,0,0-183.627.6H0Z" fill="#fff"/>
      </g>
    </g>
    <g id="Group_28086" data-name="Group 28086" transform="translate(193.242 -3.585)">
      <path id="Path_25627" data-name="Path 25627" d="M0,0H1.845L4.018-7.78H2.174Z" fill="#fff"/>
    </g>
    <g id="Group_28088" data-name="Group 28088" clip-path="url(#clip-path)">
      <g id="Group_28087" data-name="Group 28087" transform="translate(197.672 -13.937)">
        <path id="Path_25628" data-name="Path 25628" d="M0,0A.908.908,0,0,0-.744-.339,1.329,1.329,0,0,0-2.007.668a.982.982,0,0,0,.135.871.907.907,0,0,0,.744.34A1.331,1.331,0,0,0,.135.871h0A.982.982,0,0,0,0,0" fill="#fff"/>
      </g>
    </g>
    <g id="Group_28089" data-name="Group 28089" transform="translate(236.892 -3.585)">
      <path id="Path_25630" data-name="Path 25630" d="M0,0H1.844L4.018-7.78H2.174Z" fill="#fff"/>
    </g>
    <g id="Group_28091" data-name="Group 28091" clip-path="url(#clip-path)">
      <g id="Group_28090" data-name="Group 28090" transform="translate(241.323 -13.937)">
        <path id="Path_25631" data-name="Path 25631" d="M0,0A.908.908,0,0,0-.744-.339,1.328,1.328,0,0,0-2.007.668a.985.985,0,0,0,.134.871.91.91,0,0,0,.744.34A1.331,1.331,0,0,0,.135.871h0A.982.982,0,0,0,0,0" fill="#fff"/>
      </g>
    </g>
    <g id="Group_28092" data-name="Group 28092" transform="translate(290.892 -3.585)">
      <path id="Path_25633" data-name="Path 25633" d="M0,0H1.844L4.018-7.78H2.174Z" fill="#fff"/>
    </g>
    <g id="Group_28105" data-name="Group 28105" clip-path="url(#clip-path)">
      <g id="Group_28093" data-name="Group 28093" transform="translate(295.323 -13.937)">
        <path id="Path_25634" data-name="Path 25634" d="M0,0A.908.908,0,0,0-.744-.339,1.328,1.328,0,0,0-2.007.668a.985.985,0,0,0,.134.871.91.91,0,0,0,.744.34A1.331,1.331,0,0,0,.135.871h0A.982.982,0,0,0,0,0" fill="#fff"/>
      </g>
      <g id="Group_28094" data-name="Group 28094" transform="translate(203.116 -15.279)">
        <path id="Path_25635" data-name="Path 25635" d="M0,0-2.447,9.132c-.2.733-.3,1.126-.07,1.358.164.161.458.161,1.1.161H1.91L1.575,11.9H-1.756c-.76,0-1.45,0-1.886-.5-.523-.625-.312-1.411-.082-2.269L-1.277,0Z" fill="#fff"/>
      </g>
      <g id="Group_28095" data-name="Group 28095" transform="translate(209.741 -11.92)">
        <path id="Path_25636" data-name="Path 25636" d="M0,0H1.208L-1.081,8.542H-2.289ZM2.009-2.216a1.1,1.1,0,0,1-1.036.84c-.466,0-.72-.34-.586-.84a1.1,1.1,0,0,1,1.036-.84c.466,0,.72.34.586.84" fill="#fff"/>
      </g>
      <g id="Group_28096" data-name="Group 28096" transform="translate(214.042 -5.486)">
        <path id="Path_25637" data-name="Path 25637" d="M0,0A2.072,2.072,0,0,0,.046.858a.353.353,0,0,0,.314.178A.64.64,0,0,0,.771.858,3.316,3.316,0,0,0,1.277,0L4.5-6.434H5.745L2.452.125a3.794,3.794,0,0,1-1.215,1.7,2.152,2.152,0,0,1-1.192.393,1.306,1.306,0,0,1-.982-.393c-.374-.411-.336-.876-.305-1.7l.221-6.559H.222Z" fill="#fff"/>
      </g>
      <g id="Group_28097" data-name="Group 28097" transform="translate(222.688 -4.45)">
        <path id="Path_25638" data-name="Path 25638" d="M0,0A5.307,5.307,0,0,0,2.244-.518L2.458.554a6.607,6.607,0,0,1-2.774.625A2.383,2.383,0,0,1-2.683-.036,4.876,4.876,0,0,1-2.492-3.2,6.109,6.109,0,0,1-1.036-6.308,4.362,4.362,0,0,1,2.116-7.577a2.486,2.486,0,0,1,1.894.661,1.977,1.977,0,0,1,.38,1.8A3.016,3.016,0,0,1,3.058-3.36a4.771,4.771,0,0,1-2.837.537H-1.367A3.883,3.883,0,0,0-1.525-.75C-1.309-.268-.828,0,0,0M2.977-6.022A1.568,1.568,0,0,0,1.8-6.4a2.832,2.832,0,0,0-1.964.7A3.777,3.777,0,0,0-1.07-3.932H.518c1.088,0,1.571,0,2.01-.285a1.572,1.572,0,0,0,.654-.894,1.039,1.039,0,0,0-.2-.911" fill="#fff"/>
      </g>
      <g id="Group_28098" data-name="Group 28098" transform="translate(229.454 -4.093)">
        <path id="Path_25639" data-name="Path 25639" d="M0,0A1.3,1.3,0,0,1-1.223,1c-.563,0-.848-.412-.692-1A1.3,1.3,0,0,1-.692-1C-.129-1,.156-.588,0,0" fill="#fff"/>
      </g>
      <g id="Group_28099" data-name="Group 28099" transform="translate(246.665 -15.279)">
        <path id="Path_25640" data-name="Path 25640" d="M0,0-1.992,7.434c-.364,1.358-.565,2.109-.244,2.717a1.342,1.342,0,0,0,1.269.607,2.324,2.324,0,0,0,1.6-.607A5.241,5.241,0,0,0,1.84,7.434L3.832,0H5.109L3.117,7.434c-.364,1.358-.565,2.109-.245,2.717a1.345,1.345,0,0,0,1.27.607,2.322,2.322,0,0,0,1.6-.607A5.241,5.241,0,0,0,6.949,7.434L8.94,0h1.278L8.226,7.434a6.423,6.423,0,0,1-1.808,3.592,4,4,0,0,1-2.611.983,2.015,2.015,0,0,1-2.174-1.421A3.759,3.759,0,0,1-1.3,12.009a2.318,2.318,0,0,1-2.084-.983c-.592-.947-.271-2.144.117-3.592L-1.277,0Z" fill="#fff"/>
      </g>
      <g id="Group_28100" data-name="Group 28100" transform="translate(264.339 -10.508)">
        <path id="Path_25641" data-name="Path 25641" d="M0,0A5.3,5.3,0,0,1-.266,2.859a6.828,6.828,0,0,1-1.266,2.86A4.207,4.207,0,0,1-4.718,7.238,2.273,2.273,0,0,1-7.09,5.719a5.314,5.314,0,0,1,.266-2.86A6.819,6.819,0,0,1-5.557,0,4.2,4.2,0,0,1-2.372-1.519,2.273,2.273,0,0,1,0,0M-4.609.518A5.514,5.514,0,0,0-5.616,2.859,4.325,4.325,0,0,0-5.864,5.2,1.417,1.417,0,0,0-4.4,6.058,2.57,2.57,0,0,0-2.481,5.2,5.5,5.5,0,0,0-1.474,2.859,4.333,4.333,0,0,0-1.226.518,1.416,1.416,0,0,0-2.688-.339,2.569,2.569,0,0,0-4.609.518" fill="#fff"/>
      </g>
      <g id="Group_28101" data-name="Group 28101" transform="translate(271.943 -11.83)">
        <path id="Path_25642" data-name="Path 25642" d="M0,0-.664,1.126A2.03,2.03,0,0,0-1.437.983a2.559,2.559,0,0,0-1.709.643A4.714,4.714,0,0,0-4.2,4l-1.192,4.45H-6.6L-5.405,4A5.569,5.569,0,0,1-3.876.875,4.1,4.1,0,0,1-1.121-.2,3.016,3.016,0,0,1,0,0" fill="#fff"/>
      </g>
      <g id="Group_28102" data-name="Group 28102" transform="translate(276.445 -15.297)">
        <path id="Path_25643" data-name="Path 25643" d="M0,0-1.834,6.844A1.183,1.183,0,0,0-1.1,6.666,5.767,5.767,0,0,0-.349,6L2.318,3.4H3.8L.475,6.666a7.846,7.846,0,0,1-.646.607l1.948,4.646H.31L-1.349,7.935a2.934,2.934,0,0,1-.8.089l-1.044,3.895H-4.4L-1.208,0Z" fill="#fff"/>
      </g>
      <g id="Group_28103" data-name="Group 28103" transform="translate(282.687 -4.093)">
        <path id="Path_25644" data-name="Path 25644" d="M0,0A1.3,1.3,0,0,1-1.223,1c-.563,0-.848-.412-.692-1A1.3,1.3,0,0,1-.692-1C-.129-1,.156-.588,0,0" fill="#fff"/>
      </g>
      <g id="Group_28104" data-name="Group 28104" transform="translate(304.709 -14.296)">
        <path id="Path_25645" data-name="Path 25645" d="M0,0A3.247,3.247,0,0,1,.391,2.859a5.369,5.369,0,0,1-1.923,2.86A5.921,5.921,0,0,1-5.489,6.7h-.95l-1.129,4.218H-8.846L-6.4,1.787A3.569,3.569,0,0,1-5.1-.483a2.973,2.973,0,0,1,1.929-.5C-1.98-.983-.789-.983,0,0M-4.464.429c-.356.232-.461.625-.658,1.358L-6.1,5.451h.949a4.459,4.459,0,0,0,2.963-.626,3.588,3.588,0,0,0,1.3-1.966A2.162,2.162,0,0,0-1.137.893C-1.642.268-2.4.268-3.506.268a1.62,1.62,0,0,0-.958.161" fill="#fff"/>
      </g>
    </g>
    <g id="Group_28106" data-name="Group 28106" transform="translate(310.017 -15.297)">
      <path id="Path_25647" data-name="Path 25647" d="M0,0-3.194,11.919H-4.4L-1.208,0Z" fill="#fff"/>
    </g>
    <g id="Group_28111" data-name="Group 28111" clip-path="url(#clip-path)">
      <g id="Group_28107" data-name="Group 28107" transform="translate(314.949 -4.2)">
        <path id="Path_25648" data-name="Path 25648" d="M0,0A3.762,3.762,0,0,1-2.614.929,2.762,2.762,0,0,1-4.544.34a1.968,1.968,0,0,1-.485-2.056A3.536,3.536,0,0,1-3.46-3.771,4.621,4.621,0,0,1-.846-4.378H.569A2.454,2.454,0,0,0,.624-6.129,1.332,1.332,0,0,0-.635-6.648,7.173,7.173,0,0,0-3-6.183l-.078-1.126A8.666,8.666,0,0,1-.319-7.827a2.207,2.207,0,0,1,2.076.947A3.75,3.75,0,0,1,1.7-4.075L1.341-2.752A5.035,5.035,0,0,1,0,0M.272-3.271H-1.143a3.2,3.2,0,0,0-1.787.358,2.05,2.05,0,0,0-.891,1.2A1.1,1.1,0,0,0-3.57-.59,1.96,1.96,0,0,0-2.3-.25a2.234,2.234,0,0,0,1.567-.5,3.893,3.893,0,0,0,.864-2Z" fill="#fff"/>
      </g>
      <g id="Group_28108" data-name="Group 28108" transform="translate(320.522 -11.92)">
        <path id="Path_25649" data-name="Path 25649" d="M0,0,.081,5.754A6.527,6.527,0,0,0,.167,7.238c.06.161.223.2.391.214L4.108,0H5.351L.881,9.275a5.628,5.628,0,0,1-1.21,1.876,2.891,2.891,0,0,1-1.881.769A2.831,2.831,0,0,1-3.3,11.687l.659-1.108a1.842,1.842,0,0,0,.751.161,1.244,1.244,0,0,0,.824-.3A5.368,5.368,0,0,0,0,8.614a1.211,1.211,0,0,1-.954-.626A5.393,5.393,0,0,1-1.13,6.022L-1.26,0Z" fill="#fff"/>
      </g>
      <g id="Group_28109" data-name="Group 28109" transform="translate(325.891 -4.093)">
        <path id="Path_25650" data-name="Path 25650" d="M0,0A1.3,1.3,0,0,1-1.223,1c-.563,0-.848-.412-.692-1A1.3,1.3,0,0,1-.692-1C-.129-1,.156-.588,0,0" fill="#fff"/>
      </g>
      <g id="Group_28110" data-name="Group 28110" transform="translate(15.544 -41.857)">
        <path id="Path_25651" data-name="Path 25651" d="M0,0A2.452,2.452,0,0,0-.453-1.151a2.65,2.65,0,0,0-.829-.7,4.96,4.96,0,0,0-2.3-.49,4.441,4.441,0,0,0-2.151.4A1.261,1.261,0,0,0-6.414-.792,1.482,1.482,0,0,0-5.735.453a6.865,6.865,0,0,0,1.774.868,24.462,24.462,0,0,0,2.489.7q1.4.32,2.868.735a24.976,24.976,0,0,1,2.867,1,9.57,9.57,0,0,1,2.49,1.509A7.309,7.309,0,0,1,8.526,7.489a6.733,6.733,0,0,1,.679,3.15,8.6,8.6,0,0,1-.943,4.131,8.181,8.181,0,0,1-2.622,2.9,12.32,12.32,0,0,1-4.018,1.736A21.18,21.18,0,0,1-3.508,20a15.216,15.216,0,0,1-4.867-.735,12.234,12.234,0,0,1-3.754-1.981,9.342,9.342,0,0,1-2.452-2.886,7.928,7.928,0,0,1-.963-3.49h8.527a3.016,3.016,0,0,0,1.471,2.151,4.024,4.024,0,0,0,1.207.509,5.448,5.448,0,0,0,1.321.17,5.981,5.981,0,0,0,2.7-.51,1.607,1.607,0,0,0,1-1.49A1.709,1.709,0,0,0-.472,10.167a15.688,15.688,0,0,0-2.886-.98L-7.13,8.243A15.918,15.918,0,0,1-10.9,6.791a8.563,8.563,0,0,1-2.886-2.528A6.962,6.962,0,0,1-14.94.075a7.853,7.853,0,0,1,.887-3.791A7.671,7.671,0,0,1-11.6-6.432,11.532,11.532,0,0,1-7.885-8.055,19.142,19.142,0,0,1-3.169-8.6a15.8,15.8,0,0,1,4.9.68,10.576,10.576,0,0,1,3.49,1.848A8.525,8.525,0,0,1,7.432-3.339,10.193,10.193,0,0,1,8.451,0Z" fill="#fff"/>
      </g>
    </g>
    <g id="Group_28112" data-name="Group 28112" transform="translate(29.828 -22.578)">
      <path id="Path_25653" data-name="Path 25653" d="M0,0V-27.163H10.752l4.791,16.939,4.792-16.939H31.087V0h-8V-8.3l.113-4.226.453-4.9h-.076L18.637,0H12.45L7.508-17.43H7.432l.378,4L8-9.2V0Z" fill="#fff"/>
    </g>
    <g id="Group_28113" data-name="Group 28113" transform="translate(65.45 -22.578)">
      <path id="Path_25654" data-name="Path 25654" d="M0,0,9.734-27.163h9.054L28.522,0H19.656L18.6-3.584H9.734L8.715,0ZM14.185-18.977,11.431-9.243h5.622Z" fill="#fff"/>
    </g>
    <g id="Group_28115" data-name="Group 28115" clip-path="url(#clip-path)">
      <g id="Group_28114" data-name="Group 28114" transform="translate(108.577 -32.048)">
        <path id="Path_25655" data-name="Path 25655" d="M0,0V9.47H-8.9V-17.694H3.924a29.008,29.008,0,0,1,5.7.472,10.485,10.485,0,0,1,3.716,1.415,5.262,5.262,0,0,1,2.018,2.414,8.992,8.992,0,0,1,.6,3.433,7.956,7.956,0,0,1-1.094,4.169,5.5,5.5,0,0,1-3.47,2.471q1.055.415,1.924.811A3.911,3.911,0,0,1,14.77-1.377,5.292,5.292,0,0,1,15.676.6,13.639,13.639,0,0,1,16,3.886V6.112a11.619,11.619,0,0,0,.075,1.471,1.733,1.733,0,0,0,.265.811.711.711,0,0,0,.6.246v.83H7.923a6.966,6.966,0,0,1-.321-1.7A29.423,29.423,0,0,1,7.47,4.716,13.917,13.917,0,0,0,7.319,2.49a2.738,2.738,0,0,0-.66-1.452A2.945,2.945,0,0,0,5.206.245,10.248,10.248,0,0,0,2.716,0ZM0-5.961H3.508a6.935,6.935,0,0,0,3.151-.566,2.061,2.061,0,0,0,1.075-2,2.426,2.426,0,0,0-1-2.132,4.419,4.419,0,0,0-2.584-.7H0Z" fill="#fff"/>
      </g>
    </g>
    <g id="Group_28116" data-name="Group 28116" transform="translate(128.503 -49.742)">
      <path id="Path_25657" data-name="Path 25657" d="M0,0H24.9V7.13h-8V27.163H8V7.13H0Z" fill="#fff"/>
    </g>
    <g id="Group_28117" data-name="Group 28117" transform="translate(188.887 -32.953)">
      <path id="Path_25658" data-name="Path 25658" d="M0,0H.075L3.131-16.789h8.6L4.98,10.375H-3.773L-6.9-5.395H-6.98l-3.093,15.77h-8.753l-6.753-27.164h8.6L-13.921,0h.075L-10.6-16.789h7.357Z" fill="#fff"/>
    </g>
    <g id="Group_28119" data-name="Group 28119" clip-path="url(#clip-path)">
      <g id="Group_28118" data-name="Group 28118" transform="translate(253.211 -32.048)">
        <path id="Path_25659" data-name="Path 25659" d="M0,0V9.47H-8.9V-17.694H3.924a29.008,29.008,0,0,1,5.7.472,10.485,10.485,0,0,1,3.716,1.415,5.262,5.262,0,0,1,2.018,2.414,8.992,8.992,0,0,1,.6,3.433,7.956,7.956,0,0,1-1.094,4.169,5.5,5.5,0,0,1-3.47,2.471q1.055.415,1.924.811A3.911,3.911,0,0,1,14.77-1.377,5.261,5.261,0,0,1,15.675.6,13.581,13.581,0,0,1,16,3.886V6.112a11.406,11.406,0,0,0,.076,1.471,1.734,1.734,0,0,0,.264.811.711.711,0,0,0,.6.246v.83H7.922a7.029,7.029,0,0,1-.32-1.7A29.423,29.423,0,0,1,7.47,4.716,13.917,13.917,0,0,0,7.319,2.49a2.732,2.732,0,0,0-.661-1.452A2.938,2.938,0,0,0,5.206.245,10.253,10.253,0,0,0,2.716,0ZM0-5.961H3.509a6.926,6.926,0,0,0,3.149-.566,2.06,2.06,0,0,0,1.076-2,2.426,2.426,0,0,0-1-2.132,4.419,4.419,0,0,0-2.584-.7H0Z" fill="#fff"/>
      </g>
    </g>
    <g id="Group_28120" data-name="Group 28120" transform="translate(276.197 -22.578)">
      <path id="Path_25661" data-name="Path 25661" d="M0,0V-27.163H8.9V-6.338H21.127V0Z" fill="#fff"/>
    </g>
    <g id="Group_28125" data-name="Group 28125" clip-path="url(#clip-path)">
      <g id="Group_28121" data-name="Group 28121" transform="translate(301.986 -22.578)">
        <path id="Path_25662" data-name="Path 25662" d="M0,0V-27.163H11.922a20.882,20.882,0,0,1,5.9.773A11.834,11.834,0,0,1,22.3-24.013a10.375,10.375,0,0,1,2.829,4.056,15.606,15.606,0,0,1,.981,5.81,18.453,18.453,0,0,1-1.018,6.526,11.058,11.058,0,0,1-2.906,4.376A11.48,11.48,0,0,1,17.637-.773,21.273,21.273,0,0,1,11.695,0ZM8.9-6.338H10.79a6.272,6.272,0,0,0,4.753-1.735q1.66-1.735,1.66-5.584a14.413,14.413,0,0,0-.358-3.509,4.789,4.789,0,0,0-1.151-2.207A4.265,4.265,0,0,0,13.638-20.5a12.539,12.539,0,0,0-3.037-.32H8.9Z" fill="#fff"/>
      </g>
      <g id="Group_28122" data-name="Group 28122" transform="translate(210.851 -36.445)">
        <path id="Path_25663" data-name="Path 25663" d="M0,0A10.775,10.775,0,0,0,4.238,8.575l.405-2.112L7.5-8.423,7.223-5.39l-1.349,15-.034.366L5.163,17.51a17.756,17.756,0,0,1-2.452-.986A18.388,18.388,0,0,1-7.6,0,18.385,18.385,0,0,1,9.4-18.334L9.072-16.64l-1.2,6.247A10.8,10.8,0,0,0,0,0" fill="#fff"/>
      </g>
      <g id="Group_28123" data-name="Group 28123" transform="translate(240.034 -36.445)">
        <path id="Path_25664" data-name="Path 25664" d="M0,0A18.39,18.39,0,0,1-10.3,16.522v0l0,0a17.829,17.829,0,0,1-2.44.986l-.678-7.537-.033-.368-1.352-14.99-.268-2.982.6,3.116L-12.26,6.309l.432,2.261A10.771,10.771,0,0,0-7.6,0a10.793,10.793,0,0,0-7.867-10.39L-16.79-17.3l-.2-1.035A18.387,18.387,0,0,1,0,0" fill="#fff"/>
      </g>
      <g id="Group_28124" data-name="Group 28124" transform="translate(223.108 -25.748)">
        <path id="Path_25665" data-name="Path 25665" d="M0,0,.4,7.6a17.983,17.983,0,0,1-1.865.095,18.718,18.718,0,0,1-1.9-.1l.4-7.605.119-2.214.909-17.044.118-2.217.338-6.361.337,6.361.118,2.214L-.119-2.217Z" fill="#fff"/>
      </g>
    </g>
    <g id="Group_28126" data-name="Group 28126" transform="translate(221.65 -68.817)">
      <path id="Path_25667" data-name="Path 25667" d="M0,0-4.544,11.712h2.409L0,6.212l2.135,5.5h2.41Z" fill="#fff"/>
    </g>
  </g>
</svg>
