<svg xmlns="http://www.w3.org/2000/svg" xmlns:xlink="http://www.w3.org/1999/xlink" width="34.341" height="34.341" viewBox="0 0 34.341 34.341">
  <defs>
    <clipPath id="clip-path">
      <rect id="Rectangle_188" data-name="Rectangle 188" width="15.734" height="16.079" fill="#d3bc8b"/>
    </clipPath>
  </defs>
  <g id="Group_12541" data-name="Group 12541" transform="translate(0 0)">
    <g id="Group_12506" data-name="Group 12506" transform="translate(0)">
      <g id="Group_12505" data-name="Group 12505">
        <path id="Path_12454" data-name="Path 12454" d="M585.869,252.306a17.17,17.17,0,1,1,17.171-17.17A17.19,17.19,0,0,1,585.869,252.306Zm0-32.8A15.635,15.635,0,1,0,601.5,235.136,15.652,15.652,0,0,0,585.869,219.5Z" transform="translate(-568.698 -217.965)" fill="#d3bc8b"/>
      </g>
    </g>
    <g id="Group_12593" data-name="Group 12593" transform="translate(8.954 8.953)">
      <g id="Group_12592" data-name="Group 12592" transform="translate(0 0)" clip-path="url(#clip-path)">
        <path id="Path_12481" data-name="Path 12481" d="M0,16.078l.736-.857,4.271-4.964q.552-.641,1.1-1.281A.05.05,0,0,0,6.117,8.9Q5.389,7.843,4.662,6.784L3.173,4.616,1.611,2.344.022.032,0,0A.318.318,0,0,1,.036,0H4.653A.068.068,0,0,1,4.7.026q.979,1.422,1.957,2.845l2.06,3,.029.04.165-.191,3.959-4.6q.469-.545.938-1.089A.082.082,0,0,1,13.863,0q.664,0,1.327,0l.028,0-.03.037-2.92,3.394Q10.831,5.1,9.393,6.772a.05.05,0,0,0,0,.075q1.094,1.589,2.186,3.18l2.292,3.335,1.842,2.681a.334.334,0,0,0,.023.027s0,.008,0,.008H11.046c-.01-.016-.019-.033-.03-.048l-.311-.452-1.89-2.751L6.8,9.9l-.043-.061-.029.032L4.647,12.289,1.506,15.94c-.039.045-.075.093-.113.139ZM1.889,1.044l.033.049.58.829,3.284,4.7,2.983,4.267,2.91,4.163a.068.068,0,0,0,.064.032h2.044l.043,0c-.01-.015-.015-.026-.022-.036L11.652,11.96,7.927,6.632Q5.986,3.856,4.045,1.079a.075.075,0,0,0-.07-.036H1.889Z" transform="translate(0 0)" fill="#d3bc8b"/>
      </g>
    </g>
  </g>
</svg>
