<svg id="Group_31" data-name="Group 31" xmlns="http://www.w3.org/2000/svg" xmlns:xlink="http://www.w3.org/1999/xlink" width="34.341" height="34.341" viewBox="0 0 34.341 34.341">
  <defs>
    <clipPath id="clip-path">
      <rect id="Rectangle_122" data-name="Rectangle 122" width="34.341" height="34.341" fill="#d3bc8b"/>
    </clipPath>
  </defs>
  <g id="Group_125" data-name="Group 125" clip-path="url(#clip-path)">
    <path id="Path_158" data-name="Path 158" d="M17.17,34.341a17.17,17.17,0,1,1,17.17-17.17,17.19,17.19,0,0,1-17.17,17.17m0-32.805a15.635,15.635,0,0,0,0,31.269h0a15.635,15.635,0,1,0,0-31.269" fill="#d3bc8b"/>
    <path id="Path_159" data-name="Path 159" d="M39.355,32.4A2.56,2.56,0,0,0,36.8,29.837H24.789a2.56,2.56,0,0,0-2.56,2.561v6.866a2.56,2.56,0,0,0,2.56,2.561H36.8a2.56,2.56,0,0,0,2.559-2.561Zm-10.275,6.33V32.279L33.97,35.5Z" transform="translate(-13.694 -18.381)" fill="#d3bc8b" fill-rule="evenodd"/>
  </g>
</svg>
